<svg width="216" height="540" viewBox="0 0 216 540" fill="none" xmlns="http://www.w3.org/2000/svg">
<g clip-path="url(#clip0_639_713)">
<path d="M47.4054 78.3548C47.4054 74.0335 49.1251 69.805 52.3556 66.6576L97.9064 22.2855C99.0949 17.7631 101.366 13.5336 104.48 10.0463C108.242 5.71814 112.859 2.57849 117.482 1.20739C122.184 -0.189091 126.339 0.403679 129.183 2.87536C134.984 7.91735 133.34 19.3431 125.519 28.3412C122.505 31.9066 118.635 34.7445 114.324 36.5502L72.9747 79.1742L95.7384 113.67C100.147 118.81 101.123 125.925 98.2511 132.187C95.4767 138.237 89.6759 142.005 83.1114 142.022C76.09 142.039 69.8732 137.836 67.2716 131.315L48.5763 84.431C47.7882 82.4544 47.4054 80.3939 47.4054 78.3548Z" fill="#FFB6B6"/>
<path d="M137.996 489.043L137.758 488.796L70.7952 419.224C64.3138 412.491 61.1761 403.299 62.1859 394.007L65.679 361.862L99.5921 368.028L100.889 388.293L157.85 480.684L137.996 489.043Z" fill="#FFB6B6"/>
<path d="M146.133 539.223C145.053 539.223 143.986 538.948 143.012 538.408C140.655 537.097 139.353 534.426 139.773 531.762L142.101 517.022L130.082 490.979L133.251 481.469L151.4 480.461L157.449 474.413L164.223 475.591C168.276 476.295 171.65 478.813 173.48 482.497C175.309 486.181 175.277 490.389 173.39 494.044L151.876 535.727C151.069 537.292 149.696 538.434 148.01 538.943C147.391 539.13 146.76 539.223 146.133 539.223Z" fill="#2F2E41"/>
<path d="M112.119 294.45L99.1185 376.45L36.1185 406.45L26.1185 326.45L112.119 294.45Z" fill="#2F2E41"/>
<path d="M75.9964 465.043L75.7581 464.796L8.79524 395.224C2.31379 388.491 -0.823903 379.299 0.185857 370.007L3.67902 337.862L37.5921 344.028L38.889 364.293L95.8499 456.684L75.9964 465.043Z" fill="#FFB6B6"/>
<path d="M84.1333 515.223C83.0532 515.223 81.9858 514.948 81.0122 514.408C78.6548 513.097 77.353 510.426 77.773 507.762L80.1011 493.022L68.0815 466.979L71.2515 457.469L89.3999 456.461L95.4487 450.413L102.223 451.591C106.276 452.295 109.65 454.813 111.48 458.497C113.309 462.181 113.277 466.389 111.39 470.044L89.8765 511.727C89.0689 513.292 87.6958 514.434 86.0103 514.943C85.3911 515.13 84.7603 515.223 84.1333 515.223Z" fill="#2F2E41"/>
<path d="M40.4565 266.981L33.4194 286.123L1.8178 337.735C0.889086 339.25 0.739676 341.064 1.40764 342.711C2.07561 344.358 3.44573 345.555 5.16643 345.997L74.9106 363.88L107.198 318.541C116.408 305.606 121.172 289.774 120.635 273.91L40.4565 266.981Z" fill="#2F2E41"/>
<path d="M112.439 286.45H32.4067L32.4517 285.909L42.5561 163.434C43.8804 147.382 52.1811 132.842 65.3296 123.542L65.4683 123.444L120.173 125.47L108.296 235.858L124.09 267.654C126.107 271.715 125.885 276.441 123.496 280.294C121.107 284.149 116.973 286.45 112.439 286.45Z" fill="#E6E6E6"/>
<path d="M104.369 98.2944L77.5729 118.72L111.568 142.069L128.627 105.504L104.369 98.2944Z" fill="#FFB6B6"/>
<path d="M139.437 90.215C116.302 89.2427 131.956 99.6754 88.921 98.6466C87.4188 98.6107 75.8405 118.882 75.8366 120.385C75.8214 126.187 84.4549 126.223 89.8383 124.243C72.101 138.252 119.245 139.882 111.969 161.281C108.356 171.906 102.208 181.455 97.3207 191.558C80.8093 225.687 5.2996 270.107 32.7381 328.034C58.1656 351.029 53.8105 368.935 45.3633 386.113C37.8537 401.385 49.3899 419.116 66.3934 418.415C78.5289 417.914 108.135 452.555 130.214 452.487C161.746 452.389 175.289 419.419 205.478 428.523C248.326 366.695 134.307 376.069 138.629 312.964C139.361 302.281 157.452 253.604 154.217 243.397C145.412 215.614 175.257 169.851 173.42 150.757C171.565 131.479 174.7 122.015 153.232 103.947C155.446 100.798 157.659 97.6481 159.873 94.4985C151.999 89.4843 141.631 88.6337 133.045 92.2977" fill="#665DF5"/>
<path d="M118.985 115.868C134.651 115.868 147.352 103.168 147.352 87.5013C147.352 71.8346 134.651 59.1343 118.985 59.1343C103.318 59.1343 90.6176 71.8346 90.6176 87.5013C90.6176 103.168 103.318 115.868 118.985 115.868Z" fill="#FFB6B6"/>
<path d="M121.191 119.289C121.191 119.289 127.583 98.8264 123.452 94.9588C119.321 91.0912 119.453 95.0903 119.453 95.0903L124.692 75.3719C124.692 75.3719 122.196 63.9147 105.659 62.339C105.659 62.339 111.533 51.1953 120.072 53.034C128.61 54.8726 129.15 56.9743 132.777 56.2663C136.404 55.5583 143.921 62.1405 143.921 62.1405C143.921 62.1405 147.771 58.9987 147.334 62.8756C146.898 66.7524 150.99 73.0894 150.99 73.0894C150.99 73.0894 153.319 71.6369 152.678 75.7041C152.036 79.7713 155.05 81.9094 155.05 81.9094C155.05 81.9094 151.06 84.4855 152.34 86.5179C153.62 88.5503 158.736 90.1482 156.802 92.2136C154.868 94.2789 156.321 99.0588 149.775 104.102C143.229 109.145 121.191 119.289 121.191 119.289Z" fill="#2F2E41"/>
<path d="M90.5521 148.083C85.9847 148.084 81.5306 146.23 78.2386 142.753L43.5394 106.098C38.9759 101.278 37.7767 94.2476 40.4837 88.1871L66.4095 30.1207C65.8412 25.4801 66.389 20.7105 67.9955 16.3189C69.891 10.9078 73.0208 6.28376 76.8079 3.30134C80.6624 0.265212 84.7415 -0.721119 88.2972 0.526931C95.5521 3.06795 98.2474 14.2906 94.305 25.5435C92.8226 29.9683 90.2747 34.0367 86.9369 37.3092L64.2679 92.1969L98.1693 115.838C104.163 118.984 107.702 125.233 107.347 132.115C107.005 138.762 103.007 144.408 96.9134 146.848C94.8402 147.679 92.6839 148.083 90.5521 148.083Z" fill="#FFB6B6"/>
</g>
<defs>
<clipPath id="clip0_639_713">
<rect width="215.126" height="539.223" fill="white"/>
</clipPath>
</defs>
</svg>
