<svg width="260" height="260" viewBox="0 0 260 260" fill="none" xmlns="http://www.w3.org/2000/svg">
<path opacity="0.4" d="M130 260C201.797 260 260 201.797 260 130C260 58.203 201.797 0 130 0C58.203 0 0 58.203 0 130C0 201.797 58.203 260 130 260Z" fill="#E6E6E6"/>
<path d="M124.264 55.2449C125.36 55.2449 125.909 55.7936 127.005 56.3424C120.425 59.0863 113.846 66.2204 110.556 81.5861L98.4927 84.8787C102.331 73.9032 110.007 55.2449 124.264 55.2449ZM130.295 60.7326C131.392 64.0253 132.488 67.8667 132.488 73.9032C132.488 74.452 132.488 74.452 132.488 75.0008L116.587 79.391C119.877 67.8667 125.36 62.9277 130.295 60.7326ZM144.551 70.6106L137.423 72.8057C137.423 72.2569 137.423 71.7081 137.423 71.1594C137.423 66.2204 136.875 62.3789 135.778 59.0863C139.617 60.1838 142.907 65.1228 144.551 70.6106ZM180.192 79.391C180.192 78.8422 179.644 78.2934 179.096 78.2934C177.999 78.2934 166.484 77.1959 166.484 77.1959C166.484 77.1959 158.259 68.9642 157.163 68.4155C156.066 67.3179 154.421 67.8667 153.873 67.8667C153.873 67.8667 152.228 68.4155 149.486 69.513C146.745 61.8302 141.81 54.6961 133.585 54.6961H133.037C130.844 51.4034 127.554 50.3059 124.812 50.3059C105.073 49.7571 95.7511 74.452 92.4612 87.0739C88.0747 88.1714 83.6881 89.8177 78.7533 91.4641C74.3667 92.5616 74.3667 93.1104 73.8184 96.9518C73.2701 99.6957 62.3037 186.402 62.3037 186.402L149.486 202.866L196.642 192.439C196.642 192.439 180.192 80.4885 180.192 79.391Z" fill="#8DB849"/>
<path d="M178.547 78.292C177.999 78.292 166.484 77.1944 166.484 77.1944C166.484 77.1944 158.26 68.9628 157.163 68.414C156.615 67.8652 156.615 67.8652 156.066 67.8652L149.486 202.864L196.642 192.437C196.642 192.437 180.192 80.4871 180.192 79.3895C180.192 78.8408 179.096 78.292 178.547 78.292Z" fill="#5A863E"/>
<path d="M133.585 104.638L127.554 122.199C127.554 122.199 122.619 119.455 116.039 119.455C106.718 119.455 106.169 124.942 106.169 126.589C106.169 134.272 127.006 137.564 127.006 156.223C127.006 171.04 117.684 180.369 105.073 180.369C90.2683 180.369 82.5918 171.04 82.5918 171.04L86.43 157.869C86.43 157.869 94.1065 164.454 100.686 164.454C105.073 164.454 106.718 161.162 106.718 158.418C106.718 147.991 89.7199 147.442 89.7199 130.43C89.7199 116.162 100.138 102.443 120.426 102.443C129.747 101.894 133.585 104.638 133.585 104.638Z" fill="#FFFFFE"/>
</svg>
