<svg width="317" height="321" viewBox="0 0 317 321" fill="none" xmlns="http://www.w3.org/2000/svg">
<g clip-path="url(#clip0_2419_2364)">
<path d="M71.0982 53.6073L68.6814 66.2928L80.7304 69.6889L79.2333 56.1457L71.0982 53.6073Z" fill="#A0616A"/>
<path d="M0 316.196C0 316.595 0.320238 316.915 0.719022 316.915H316.281C316.68 316.915 317 316.595 317 316.196C317 315.798 316.68 315.477 316.281 315.477H0.719022C0.320238 315.477 0 315.798 0 316.196Z" fill="#3F3D56"/>
<path d="M215.114 143.955H90.8513C76.7598 143.955 65.3364 155.376 65.3364 169.464V289.936C65.3364 304.024 76.7598 315.445 90.8513 315.445H215.114C229.206 315.445 240.629 304.024 240.629 289.935V169.464C240.629 155.376 229.206 143.955 215.114 143.955Z" fill="#FDFDFD"/>
<path d="M215.114 316.049H90.8513C76.4493 316.049 64.7322 304.335 64.7322 289.936V169.465C64.7322 155.065 76.4493 143.351 90.8513 143.351H215.114C229.516 143.351 241.233 155.065 241.233 169.465V289.936C241.233 304.335 229.516 316.049 215.114 316.049ZM90.8513 144.559C77.1154 144.559 65.9406 155.731 65.9406 169.465V289.936C65.9406 303.669 77.1154 314.841 90.8513 314.841H215.114C228.85 314.841 240.025 303.669 240.025 289.936V169.465C240.025 155.731 228.85 144.559 215.114 144.559L90.8513 144.559Z" fill="#3F3D56"/>
<path d="M224.115 196.183H174.168C172.05 196.183 170.326 194.46 170.326 192.342C170.326 190.224 172.05 188.501 174.168 188.501H224.115C226.234 188.501 227.957 190.224 227.957 192.342C227.957 194.46 226.234 196.183 224.115 196.183Z" fill="#665DF5"/>
<path d="M177.258 226.391H128.708C127.484 226.391 126.488 225.395 126.488 224.172C126.488 222.948 127.484 221.953 128.708 221.953H177.258C178.482 221.953 179.478 222.948 179.478 224.172C179.478 225.395 178.482 226.391 177.258 226.391Z" fill="#665DF5"/>
<path d="M108.636 152.205H80.9177C80.8141 152.205 80.7302 152.289 80.7302 152.392V155.619C80.7302 155.722 80.8141 155.806 80.9177 155.806H108.636C108.74 155.806 108.824 155.722 108.824 155.619V152.392C108.824 152.289 108.74 152.205 108.636 152.205Z" fill="#665DF5"/>
<path d="M202.002 155.806C203.594 155.806 204.884 154.516 204.884 152.925C204.884 151.334 203.594 150.044 202.002 150.044C200.411 150.044 199.121 151.334 199.121 152.925C199.121 154.516 200.411 155.806 202.002 155.806Z" fill="#3F3D56"/>
<path d="M209.926 155.806C211.518 155.806 212.808 154.516 212.808 152.925C212.808 151.334 211.518 150.044 209.926 150.044C208.335 150.044 207.045 151.334 207.045 152.925C207.045 154.516 208.335 155.806 209.926 155.806Z" fill="#3F3D56"/>
<path d="M217.85 155.806C219.442 155.806 220.732 154.516 220.732 152.925C220.732 151.334 219.442 150.044 217.85 150.044C216.259 150.044 214.969 151.334 214.969 152.925C214.969 154.516 216.259 155.806 217.85 155.806Z" fill="#3F3D56"/>
<path d="M90.5488 238.271C90.5488 238.67 90.8691 238.99 91.2679 238.99H214.698C215.096 238.99 215.417 238.67 215.417 238.271C215.417 237.873 215.096 237.553 214.698 237.553H91.2679C90.8691 237.553 90.5488 237.873 90.5488 238.271Z" fill="#3F3D56"/>
<path d="M128.193 60.9608C130.82 58.79 134.071 58.3859 135.452 60.0581C136.834 61.7303 135.823 64.845 133.194 67.0162C132.156 67.898 130.922 68.5183 129.595 68.8253L118.345 77.8825L114.206 72.5138L125.736 64.1549C126.288 62.9093 127.13 61.814 128.193 60.9608Z" fill="#A0616A"/>
<path d="M63.1697 81.3964C63.164 80.9959 63.1677 77.5019 65.7549 75.2936C68.7269 72.7568 72.9205 73.7836 74.3913 74.1437C77.7891 74.9756 78.0677 76.4329 81.2586 77.9302C87.2282 80.7315 79.7484 79.2976 83.3006 78.3994C84.5302 78.0884 102.219 76.8619 106.622 74.1524C115.186 68.8828 121.021 65.6873 121.021 65.6873L124.835 73.3146C124.835 73.3146 119.319 80.9823 111.557 86.6628C103.594 92.4895 99.6124 95.403 93.5618 96.5286C93.0407 96.6256 80.2259 98.8132 69.9047 91.1036C67.5504 89.3451 63.2369 86.1231 63.1697 81.3964Z" fill="#E6E6E6"/>
<path d="M75.0018 61.9987C82.3404 61.9987 88.2896 56.0507 88.2896 48.7136C88.2896 41.3765 82.3404 35.4285 75.0018 35.4285C67.6632 35.4285 61.7141 41.3765 61.7141 48.7136C61.7141 56.0507 67.6632 61.9987 75.0018 61.9987Z" fill="#A0616A"/>
<path d="M179.066 137.968L165.382 123.963L158.318 131.33L168.513 144.758L178.626 145.915L179.066 137.968Z" fill="#A0616A"/>
<path d="M100.927 111.705C101.728 111.772 104.271 112.281 106.702 110.944C108.361 110.031 109.212 108.674 109.5 108.243C113.065 102.889 126.751 94.5398 139.033 94.0261C141.815 93.9097 143.645 94.2319 145.309 95.0992C147.669 96.3289 148.611 98.0904 151.605 102.217C153.243 104.474 155.055 106.601 156.713 108.843C166.417 121.973 170.096 123.004 169.72 127.214C169.303 131.884 164.265 136.315 160.917 135.804C159.545 135.594 159.014 134.641 157.182 132.711C151.81 127.052 149.588 128.098 145.763 123.763C141.298 118.703 141.882 114.507 139.553 114.345C137.392 114.195 136.474 117.774 131.862 122.529C129.752 124.705 128.249 125.703 123.67 128.879C105.84 141.246 105.555 142.115 101.957 143.101C100.383 143.533 89.2091 146.596 85.2287 141.721C78.9998 134.094 93.715 111.106 100.927 111.705Z" fill="#2F2E41"/>
<path d="M174.883 141.133C175.889 140.681 177.066 140.152 177.445 138.938C177.701 138.115 177.553 137.102 177.024 136.401C176.413 135.593 175.508 135.487 175.545 135.344C175.601 135.126 177.739 135.211 180.087 136.041C180.53 136.197 182.537 136.931 185.089 138.923C187.135 140.52 186.86 140.84 188.142 141.76C192.079 144.586 195.772 142.359 197.902 145.009C198.725 146.032 199.075 147.484 198.729 148.658C198.034 151.016 194.655 151.827 192.809 152.246C188.361 153.255 184.994 152.431 181.479 151.839C169.524 149.825 162.807 151.659 161.908 148.89C161.738 148.366 162.014 148.411 162.936 144.565C163.846 140.769 163.816 139.727 164.591 139.423C165.757 138.965 166.54 141.046 169.479 141.759C172.082 142.39 174.231 141.425 174.883 141.133Z" fill="#2F2E41"/>
<path d="M154.738 183.783L151.28 164.512L141.297 166.642L142.192 183.477L149.91 190.112L154.738 183.783Z" fill="#A0616A"/>
<path d="M104.832 118.183C105.456 118.687 107.275 120.537 110.038 120.795C111.923 120.972 113.39 120.327 113.87 120.131C119.827 117.702 135.84 118.477 146.292 124.948C148.659 126.413 149.993 127.708 150.883 129.36C152.144 131.702 151.934 133.688 152.094 138.784C152.182 141.571 152.487 144.348 152.599 147.134C153.255 163.447 155.72 166.366 153.044 169.638C150.076 173.268 143.419 174.106 140.935 171.803C139.918 170.86 140.014 169.773 139.582 167.147C138.315 159.449 135.889 159.066 135.159 153.332C134.306 146.638 137.146 143.495 135.31 142.053C133.607 140.715 130.837 143.162 124.349 144.507C121.381 145.122 119.577 145.104 114.005 145.162C92.3054 145.385 91.5818 145.944 88.0504 144.74C86.5054 144.213 75.5394 140.474 74.9833 134.206C74.1131 124.398 99.2003 113.638 104.832 118.183Z" fill="#2F2E41"/>
<path d="M149.498 184.053C150.585 184.244 151.855 184.468 152.851 183.675C153.525 183.139 153.972 182.217 153.927 181.34C153.876 180.329 153.187 179.733 153.298 179.635C153.466 179.486 155.188 180.757 156.664 182.762C156.943 183.14 158.192 184.873 159.185 187.955C159.981 190.425 159.573 190.535 160.117 192.017C161.788 196.565 166.095 196.796 166.369 200.184C166.475 201.492 165.949 202.891 165.004 203.668C163.105 205.229 159.853 204.003 158.089 203.313C153.842 201.651 151.519 199.079 148.943 196.615C140.182 188.237 133.594 185.984 134.405 183.188C134.559 182.659 134.763 182.851 137.685 180.186C140.57 177.556 141.131 176.677 141.943 176.86C143.165 177.136 142.644 179.298 144.675 181.537C146.475 183.521 148.794 183.929 149.498 184.053Z" fill="#2F2E41"/>
<path d="M76.8135 51.2533C77.3308 49.4033 76.6811 48.729 77.3433 47.8986C77.3433 47.8986 77.6098 47.5644 79.9923 46.6626C79.2894 42.5849 79.8157 41.8954 79.8157 41.8954C80.4223 41.1007 81.6375 40.9086 82.4647 41.0126C84.2143 41.2324 84.524 42.8137 85.6435 42.7782C87.19 42.7292 89.0448 39.6342 88.4691 36.9516C87.9995 34.7634 85.9745 33.1383 85.4669 33.4203C84.9636 33.6999 83.1518 32.467 82.4647 32.714C81.9955 32.8827 79.7867 32.6583 79.2859 32.8906C78.739 33.1443 77.1727 34.7238 77.0229 34.5248C75.9823 33.1418 76.0045 32.659 75.4007 32.3609C74.3309 31.8327 73.1678 32.809 71.1623 33.7734C67.0359 35.7578 65.8277 34.5741 63.9217 36.2453C62.9589 37.0896 62.4426 38.703 61.4493 41.8954C60.0602 46.36 59.3656 48.5922 60.0365 50.7236C60.7207 52.8973 61.7282 52.4242 63.2153 55.4909C64.8707 58.9046 64.3001 60.8889 65.8643 61.6706C67.0732 62.2749 69.016 61.8903 69.7495 60.7878C71.0054 58.9003 67.7594 56.3469 68.8665 53.3721C69.5461 51.5461 71.6426 50.1615 72.9283 50.5471C74.382 50.983 74.4891 53.589 75.4007 53.5487C76.1814 53.5141 76.7234 51.5757 76.8135 51.2533Z" fill="#2F2E41"/>
<path d="M66.7473 63.966C69.4664 60.9178 80.5421 64.0728 81.5817 68.9098C82.0093 70.8993 80.4308 71.7394 80.8753 74.0302C81.5254 77.3808 85.2068 77.1523 87.9393 80.5631C91.8186 85.4053 87.8221 90.1387 92.1777 98.2195C93.1084 99.9463 93.8929 101.402 95.5331 102.81C99.2969 106.042 102.8 104.934 104.716 107.931C106.149 110.172 105.561 112.934 105.423 113.581C104.857 116.234 103.324 116.88 102.244 119.054C100.447 122.671 102.482 125.327 102.597 129.648C102.742 135.055 99.8677 142.55 94.1203 145.009C87.6633 147.772 79.8756 143.196 76.1071 138.653C73.8584 135.942 73.2056 133.441 72.2219 130.354C67.8252 116.559 65.3413 117.807 61.9791 106.871C58.1354 94.3699 57.3798 79.7241 61.9791 75.0896C62.5887 74.4753 64.2663 73.0554 65.3345 70.4989C66.7718 67.0587 65.5301 65.3305 66.7473 63.966Z" fill="#E6E6E6"/>
<path d="M106.925 134.924C109.033 137.602 109.36 140.86 107.655 142.201C105.95 143.542 102.86 142.459 100.751 139.779C99.8945 138.721 99.3036 137.472 99.0281 136.138L90.239 124.678L94.7805 121.215L103.79 132.392C105.022 132.974 106.097 133.842 106.925 134.924Z" fill="#A0616A"/>
<path d="M74.7366 75.5829C75.1277 75.4956 78.5496 74.7863 81.2398 76.868C84.3301 79.2592 84.1804 83.5733 84.128 85.0864C84.0067 88.5817 82.6367 89.1518 81.8216 92.5804C80.2968 98.9949 83.2007 104.956 84.8051 108.25C85.3604 109.39 87.1445 112.878 90.696 116.635C97.6031 123.941 103.766 127.786 103.766 127.786L97.1453 133.669C97.1453 133.669 86.5992 130.456 79.4533 124.017C72.1231 117.412 60.8507 94.0436 58.5139 88.3512C58.3126 87.861 61.1632 95.8308 66.6061 84.1556C67.8476 81.4925 70.1222 76.6131 74.7366 75.5829Z" fill="#E6E6E6"/>
<path d="M165.515 254.727C161.306 255.372 158.228 258.066 158.639 260.743C159.05 263.421 162.794 265.068 167.004 264.422C168.689 264.187 170.293 263.552 171.683 262.571L189.479 259.613L188.291 252.58L170.535 255.092C168.915 254.571 167.193 254.446 165.515 254.727Z" fill="#FFB6B6"/>
<path d="M242.201 232.805L235.301 247.444L200.612 259.12L171.826 260.655L171.105 253.743L202.302 247.221L234.313 232.097L242.201 232.805Z" fill="#E6E6E6"/>
<path d="M178.221 288.392L172.026 304.059L164.009 298.593L168.746 282.198L178.221 288.392Z" fill="#FFB6B6"/>
<path d="M152.347 282.562L135.948 298.229L142.508 305.152L159.271 292.035L152.347 282.562Z" fill="#FFB6B6"/>
<path d="M245.275 231.553L245.092 230.278L240.901 222.08L227.053 225.724L229.604 237.019L245.275 231.553Z" fill="#FFB6B6"/>
<path d="M239.444 286.206L239.87 291.678C239.87 291.678 241.63 314.625 227.418 316.446C213.205 318.268 207.01 320.09 198.629 305.88L185.509 282.562L177.847 291.678L167.653 283.655C167.653 283.655 174.941 255.236 180.772 254.143C181.501 254.006 182.23 253.938 182.947 253.923C187.774 253.822 192.325 256.183 195.213 260.051L211.748 282.198L217.761 279.465L239.444 286.206Z" fill="#2F2E41"/>
<path d="M160.729 303.33L164.009 297.136L173.484 303.694C173.484 303.694 175.67 311.71 172.391 312.803C169.111 313.896 160 312.439 160 312.439C160 312.439 143.237 316.082 142.872 312.803C142.508 309.524 150.525 308.795 150.525 308.795L160.729 303.33Z" fill="#2F2E41"/>
<path d="M196.442 298.958L171.115 283.002L158.178 294.586L149.432 284.384C149.432 284.384 165.466 260.701 170.204 259.608C174.941 258.515 182.594 257.786 182.594 257.786L205.917 279.283L196.442 298.958Z" fill="#2F2E41"/>
<path d="M135.584 296.772L143.966 305.88L142.86 306.826C142.86 306.826 140.686 316.294 135.584 313.091C130.482 309.888 130.118 309.159 130.118 309.159C130.118 309.159 115.541 312.439 114.083 306.609C112.625 300.779 116.634 301.872 116.634 301.872L120.274 304.059L135.584 296.772Z" fill="#2F2E41"/>
<path d="M231.427 229.732C237.867 229.732 243.088 224.512 243.088 218.072C243.088 211.633 237.867 206.413 231.427 206.413C224.986 206.413 219.765 211.633 219.765 218.072C219.765 224.512 224.986 229.732 231.427 229.732Z" fill="#FFB6B6"/>
<path d="M228.694 234.65L245.457 229.549C245.457 229.549 252.016 244.852 250.923 251.775C249.83 258.697 239.87 291.678 239.87 291.678L217.761 279.465C217.761 279.465 217.396 272.178 216.303 268.899C215.21 265.62 211.748 255.6 219.401 247.22C227.054 238.84 228.694 234.65 228.694 234.65Z" fill="#E6E6E6"/>
<path d="M191.799 311.157C189.07 314.424 188.545 318.481 190.626 320.216C192.706 321.952 196.603 320.709 199.332 317.44C200.44 316.149 201.222 314.611 201.614 312.956L212.999 298.965L207.453 294.478L195.804 308.109C194.244 308.79 192.871 309.835 191.799 311.157Z" fill="#FFB6B6"/>
<path d="M241.552 242.001L245.514 257.692L226.121 288.729L206.324 308.621L199.908 303.299L219.873 278.462L235.007 246.46L241.552 242.001Z" fill="#E6E6E6"/>
<path d="M220.676 216.069C223.667 216.061 223.837 216.081 224.32 216.069C228.03 215.971 229 214.512 230.88 214.611C234.236 214.789 229.807 231.61 227.965 239.387C226.158 247.014 232.263 253.848 232.702 254.325C238.899 261.063 249.784 262.295 251.652 259.426C253.164 257.103 247.806 253.572 249.101 248.496C250.367 243.533 256.213 244.062 257.847 239.387C259.558 234.491 253.807 232.022 250.194 220.076C248.119 213.216 248.486 211.938 246.55 207.689C241.375 196.331 216.006 201.167 218.854 211.696C219.405 213.733 217.939 216.075 220.676 216.069Z" fill="#2F2E41"/>
<path d="M257.914 77.6595H135.354C131.888 77.6595 129.068 74.8402 129.068 71.3751V6.28442C129.068 2.81939 131.888 0 135.354 0H257.914C261.38 0 264.2 2.81938 264.2 6.28442V71.3751C264.2 74.8402 261.38 77.6595 257.914 77.6595Z" fill="#FDFDFD"/>
<path d="M257.914 77.6595H135.354C131.888 77.6595 129.068 74.8402 129.068 71.3751V6.28442C129.068 2.81939 131.888 0 135.354 0H257.914C261.38 0 264.2 2.81938 264.2 6.28442V71.3751C264.2 74.8402 261.38 77.6595 257.914 77.6595ZM135.354 1.04945C132.467 1.04945 130.118 3.39791 130.118 6.28442V71.3751C130.118 74.2616 132.467 76.6101 135.354 76.6101H257.914C260.801 76.6101 263.15 74.2616 263.15 71.3751V6.28442C263.15 3.39791 260.801 1.04945 257.914 1.04945H135.354Z" fill="#3F3D56"/>
<path d="M248.455 7.8709C249.324 7.8709 250.029 7.16612 250.029 6.29672C250.029 5.42733 249.324 4.72255 248.455 4.72255C247.585 4.72255 246.88 5.42733 246.88 6.29672C246.88 7.16612 247.585 7.8709 248.455 7.8709Z" fill="#3F3D56"/>
<path d="M252.654 7.8709C253.523 7.8709 254.228 7.16612 254.228 6.29672C254.228 5.42733 253.523 4.72255 252.654 4.72255C251.784 4.72255 251.079 5.42733 251.079 6.29672C251.079 7.16612 251.784 7.8709 252.654 7.8709Z" fill="#3F3D56"/>
<path d="M256.852 7.8709C257.722 7.8709 258.427 7.16612 258.427 6.29672C258.427 5.42733 257.722 4.72255 256.852 4.72255C255.983 4.72255 255.278 5.42733 255.278 6.29672C255.278 7.16612 255.983 7.8709 256.852 7.8709Z" fill="#3F3D56"/>
<path d="M137.991 31.746C137.556 31.746 137.203 32.099 137.203 32.533C137.203 32.7447 137.285 32.9404 137.433 33.0849C137.583 33.2381 137.779 33.3201 137.991 33.3201H255.803C256.237 33.3201 256.59 32.9671 256.59 32.533C256.59 32.3214 256.508 32.1257 256.36 31.9812C256.21 31.828 256.014 31.746 255.803 31.746H137.991Z" fill="#E6E6E6"/>
<path d="M241.107 31.4836V33.5825H137.991C137.702 33.5825 137.44 33.4671 137.251 33.2729C137.056 33.084 136.941 32.8217 136.941 32.5331C136.941 31.9558 137.413 31.4836 137.991 31.4836H241.107Z" fill="#665DF5"/>
<path d="M254.49 27.5482H243.994C242.836 27.5482 241.895 26.6068 241.895 25.4492C241.895 24.2917 242.836 23.3503 243.994 23.3503H254.49C255.648 23.3503 256.59 24.2917 256.59 25.4492C256.59 26.6068 255.648 27.5482 254.49 27.5482Z" fill="#E6E6E6"/>
<path d="M185.738 16.5289H138.778C137.62 16.5289 136.678 15.5876 136.678 14.43C136.678 13.2724 137.62 12.3311 138.778 12.3311H185.738C186.895 12.3311 187.837 13.2724 187.837 14.43C187.837 15.5876 186.895 16.5289 185.738 16.5289Z" fill="#E6E6E6"/>
<path d="M137.991 55.3587C137.556 55.3587 137.203 55.7117 137.203 56.1457C137.203 56.3574 137.285 56.5531 137.433 56.6976C137.583 56.8508 137.779 56.9328 137.991 56.9328H255.803C256.237 56.9328 256.59 56.5798 256.59 56.1457C256.59 55.9341 256.508 55.7384 256.36 55.5939C256.21 55.4407 256.014 55.3587 255.803 55.3587H137.991Z" fill="#E6E6E6"/>
<path d="M200.695 55.0963V57.1952H137.991C137.702 57.1952 137.44 57.0797 137.251 56.8856C137.056 56.6967 136.941 56.4343 136.941 56.1457C136.941 55.5685 137.413 55.0963 137.991 55.0963H200.695Z" fill="#665DF5"/>
<path d="M254.49 51.1609H243.994C242.836 51.1609 241.895 50.2195 241.895 49.0619C241.895 47.9044 242.836 46.963 243.994 46.963H254.49C255.648 46.963 256.59 47.9044 256.59 49.0619C256.59 50.2195 255.648 51.1609 254.49 51.1609Z" fill="#E6E6E6"/>
</g>
<defs>
<clipPath id="clip0_2419_2364">
<rect width="317" height="321" fill="white"/>
</clipPath>
</defs>
</svg>
