<svg width="585" height="585" viewBox="0 0 585 585" fill="none" xmlns="http://www.w3.org/2000/svg">
<path fill-rule="evenodd" clip-rule="evenodd" d="M148.625 0C138.44 0.50035 128.494 0.907686 118.556 1.4972C104.974 2.30417 92.1417 6.88237 79.5583 12.5434C75.0105 14.5897 70.4775 16.7322 66.0826 19.1858C42.6967 32.2437 24.0952 51.452 11.4171 78.1335C5.37434 90.8507 2.19879 104.651 0.807392 119.011C-1.31257 140.886 0.800815 162.405 6.4546 183.256C11.9309 203.455 20.9608 221.521 32.8605 237.605C39.3535 246.381 46.5263 254.22 54.4879 261.109C66.7393 271.711 78.9492 282.379 91.2291 292.935C94.5964 295.83 98.2008 298.345 101.603 301.186C105.573 304.501 109.612 307.745 113.32 311.434C129.62 327.653 137.529 348.268 136.509 373.411C136.151 382.258 135.654 391.099 135.39 399.95C135.133 408.613 137.395 416.463 141.366 423.732C143.217 427.121 145.505 429.97 148.134 432.516C156.665 440.777 166.309 446.753 176.552 451.467C191.891 458.526 207.764 463.275 224.018 466.37C235.714 468.596 247.45 470.356 259.279 471.256C274.009 472.376 288.74 472.165 303.454 471.067C322.038 469.68 340.497 466.959 358.853 463.282C375.328 459.981 391.788 456.565 407.977 451.644C426.472 446.025 444.803 439.766 462.335 430.708C472.758 425.322 482.609 418.797 491.45 410.297C501.49 400.646 508.569 388.664 512.529 374.137C514.512 366.863 514.726 359.429 513.964 351.995C512.056 333.363 507.362 315.807 498.629 299.892C494.35 292.094 489.158 285.2 483.62 278.633C478.442 272.494 473.131 266.502 468.093 260.209C464.97 256.308 462.106 252.092 459.374 247.8C452.751 237.394 450.92 225.733 452.778 213.008C453.732 206.476 454.461 199.838 454.64 193.223C455.053 177.953 451.278 163.783 445.54 150.227C440.716 138.831 434.252 128.828 426.777 119.677C404.015 91.8065 377.824 69.5371 347.747 53.708C323.514 40.9536 299.024 28.9157 273.834 18.9485C260.312 13.598 246.39 10.116 232.259 7.99918C216.867 5.69372 201.449 3.49988 185.99 1.98344C173.504 0.758864 160.939 0.613249 148.625 0Z" fill="white"/>
<path d="M384.564 371.36C390.036 384.625 392.84 398.838 392.818 413.188C392.795 427.537 389.946 441.742 384.432 454.989C378.919 468.237 370.849 480.269 360.684 490.398C350.52 500.526 338.459 508.553 325.192 514.019C269.403 537.018 205.531 510.436 182.532 454.647C178.049 443.799 175.343 432.3 174.52 420.591C172.947 397.709 178.606 374.912 190.699 355.423C202.791 335.934 220.704 320.739 241.904 311.987C260.189 304.442 280.18 302.003 299.743 304.932C319.305 307.861 337.705 316.048 352.979 328.618C356.757 331.715 360.321 335.065 363.645 338.645C364.107 339.144 364.563 339.646 365.016 340.155L365.018 340.161C367.023 342.394 368.936 344.722 370.76 347.143C376.376 354.593 381.015 362.731 384.564 371.36Z" fill="#3F3D56"/>
<path d="M244.4 349.405C238.848 348.822 233.236 349.514 227.993 351.429C222.749 353.343 218.012 356.43 214.143 360.454C210.729 363.98 207.687 369.034 208.718 375.471C212.965 369.844 222.389 372.083 227.294 379.884L226.995 380.116C228.63 386.246 232.943 391.875 237.727 394.122C236.616 390.198 238.028 386.633 239.794 384.042C241.56 381.451 243.763 379.19 244.483 375.69C245.337 371.541 243.939 366.569 243.026 361.884C242.113 357.198 241.848 351.867 244.4 349.405Z" fill="#FDFDFD"/>
<path d="M233.382 411.846C232.79 414.822 231.317 417.143 230.206 419.735C229.102 422.33 228.353 425.528 229.289 428.851C229.891 430.98 231.107 432.895 231.904 434.97C232.7 437.045 232.968 439.639 231.781 440.726C229.904 442.432 226.532 439.029 224.147 439.678C222.253 440.196 221.799 443.698 223.334 445.941C224.87 448.184 227.771 448.262 228.518 446.076C230.673 447.689 231.374 451.937 229.731 453.383C230.084 454.813 230.435 456.238 230.794 457.665C224.561 456.276 218.255 454.851 212.099 451.591C205.271 448.012 199.668 442.475 196.01 435.69C193.129 430.213 191.234 423.372 186.812 420.067C183.273 417.422 179.362 418.128 176.219 419.68C175.646 419.962 175.079 420.275 174.52 420.591C174.066 414.079 174.203 407.54 174.929 401.053C175.47 400.5 175.925 399.867 176.276 399.178C178.232 395.384 177.437 389.665 178.404 385.084C178.467 384.789 178.537 384.497 178.615 384.209C179.768 379.919 182.421 376.862 185.01 373.969C190.734 367.546 196.646 360.992 204.399 358.36L202.335 359.454C202.723 367.514 203.109 375.575 203.493 383.637C203.556 384.872 203.615 386.11 203.672 387.352C203.894 391.935 204.177 396.796 206.24 401.178C207.461 403.774 209.547 406.223 211.673 406.41C213.653 406.579 215.012 404.81 216.168 403.139C216.66 402.437 217.147 401.737 217.636 401.03C219.396 398.499 221.398 395.822 224.355 395.811C227.062 395.799 230.071 398.241 231.796 401.502C233.455 404.68 234.013 408.318 233.382 411.846Z" fill="#FDFDFD"/>
<path d="M267.408 453.94C258.633 452.516 249.858 451.093 241.083 449.669L241.076 449.314C237.407 452.765 238.79 461.245 242.116 467.274C245.443 473.303 250.213 477.952 253.986 483.608C259.124 491.358 262.094 500.342 262.587 509.627C267.533 495.507 271.051 480.926 273.088 466.104C273.44 464.197 273.504 462.248 273.277 460.322C272.965 458.302 271.986 456.122 270.489 455.016C269.567 454.407 268.509 454.038 267.408 453.94Z" fill="#FDFDFD"/>
<path d="M207.469 386.931C207.414 388.908 208.047 391.254 209.434 392.705C210.851 394.187 212.636 394.384 214.25 394.496L218.907 394.819C220.457 394.926 222.109 394.999 223.204 393.933C224.525 392.648 224.6 389.716 223.367 387.531C222.055 385.206 219.816 384.157 217.796 383.311C214.97 382.126 212.143 380.942 209.317 379.758L208.759 381.602C208.03 383.292 207.594 385.094 207.469 386.931Z" fill="#FDFDFD"/>
<path d="M354.392 357.003C356.3 356.695 358.209 356.388 360.118 356.08C362.237 362.081 361.566 368.72 358.472 372.299C357.182 373.79 355.495 374.84 354.779 376.927C354.135 378.821 354.411 381.242 354.698 383.546C355.195 387.57 355.691 391.594 356.188 395.617C356.727 399.952 357.142 404.843 354.948 407.389C353.065 409.576 349.735 409.223 346.885 407.502C344.036 405.781 341.547 402.914 339.127 400.116C340.651 403.624 340.437 407.77 338.615 409.959C336.787 412.151 333.489 412.21 330.797 410.109C328.863 408.602 327.326 406.196 325.402 404.651C323.479 403.107 320.7 402.913 320.272 405.282C319.994 406.855 320.882 408.721 321.142 410.466C321.543 413.176 320.328 415.483 318.548 416.374C316.774 417.263 314.554 416.943 312.432 416.144C308.051 414.483 303.783 410.741 300.726 405.888C299.367 403.723 298.21 401.233 298 398.765C297.79 396.298 298.763 393.927 300.59 393.66C300.73 390.91 297.322 388.743 295.497 389.811C293.666 390.881 293.003 393.59 292.069 395.846C291.14 398.1 289.397 400.178 287.143 399.249C287.762 400.721 286.964 402.192 285.875 402.497C284.793 402.805 283.531 402.354 282.339 402.155C277.733 401.382 273.705 404.815 272.883 410.21C271.655 402.614 270.765 393.684 275.094 389.995C276.861 388.485 279.316 388.116 280.77 386.165C283.343 382.707 280.843 374.684 276.575 372.707C278.196 375.572 279.576 379.126 278.833 381.848C278.091 384.571 274.191 384.603 273.134 381.466C273.542 383.761 271.384 385.024 269.662 383.843C267.935 382.664 266.936 379.984 266.892 377.743C266.848 375.503 267.556 373.589 268.248 371.748C269.736 367.792 271.25 363.787 273.596 360.719C275.948 357.648 279.267 355.571 283.101 356.078C285.122 356.348 287.207 357.327 289.216 357.47C291.227 357.619 293.299 356.641 293.6 354.232C293.942 351.543 292.026 348.551 291.364 345.639C290.206 340.49 294.088 336.257 298.063 338.334C295.861 338.645 294.773 341.851 295.703 344.809C296.628 347.77 299.26 350.06 301.547 350.128C305.383 350.228 307.069 345.304 308.143 340.948C309.258 336.392 310.378 331.835 311.502 327.279C311.667 326.514 311.896 325.765 312.188 325.04C312.669 323.925 313.555 323.034 314.668 322.549C315.781 322.063 317.037 322.019 318.181 322.425C321.646 323.471 324.652 327.307 328.01 329.416C332.885 332.482 337.939 331.633 342.585 330.702C346.046 330.004 349.51 329.309 352.979 328.617C356.757 331.714 360.321 335.064 363.645 338.645C359.164 343.191 355.931 349.572 354.392 357.003Z" fill="#FDFDFD"/>
<path d="M392.588 420.256C392.196 426.129 391.329 431.961 389.994 437.694C387.617 437.663 386.081 440.101 384.787 442.329C383.436 444.659 381.671 447.113 379.076 446.568C376.422 446.007 374.123 442.326 373.486 438.918C372.852 435.516 373.464 432.349 374.075 429.326C374.723 426.118 375.448 422.765 377.386 420.824C379.329 418.881 382.912 419.019 384.971 422.07L386.609 421.329C385.15 420.434 384.546 417.583 385.606 416.602C386.823 415.463 388.892 416.928 390.466 418.327C391.174 418.961 391.89 419.598 392.588 420.256Z" fill="#FDFDFD"/>
<path d="M319.195 422.778C315.717 424.475 311.076 421.245 307.414 417.696C303.752 414.146 299.999 409.908 295.87 409.035C293.51 408.537 291.341 409.229 289.093 409.443C286.845 409.657 284.235 409.257 282.222 407.083L279.58 407.101C277.282 410.016 274.957 412.978 273.508 416.778C271.883 421.041 271.705 425.719 273.002 430.093C274.438 434.805 278.12 439.201 281.807 439.674C284.721 440.047 287.118 438.066 290.015 438.313C293.635 438.622 297.25 442.362 299.741 446.5C302.232 450.639 303.953 455.296 306.274 459.563C308.594 463.83 311.833 467.931 315.514 469.09C320.12 470.541 324.166 466.089 323.554 460.244C323.255 457.376 322.039 454.502 321.509 451.616C320.576 446.533 321.826 441.961 322.371 437.251C322.916 432.541 322.442 426.645 319.195 422.778Z" fill="#FDFDFD"/>
<path d="M264.981 391.4C265.44 391.569 265.887 391.771 266.317 392.003C266.824 392.392 267.215 392.911 267.448 393.506C267.681 394.1 267.748 394.746 267.641 395.376C268.061 395.174 268.434 394.887 268.738 394.534C269.042 394.18 269.269 393.768 269.405 393.322C269.75 392.311 269.991 391.267 270.122 390.207C270.241 389.463 270.298 388.501 269.76 387.897C269.393 387.485 268.909 387.444 268.48 387.198C267.8 386.807 267.315 385.94 266.761 385.247C265.564 383.751 263.862 382.989 262.499 383.341L262.692 383.302C262.23 383.708 262.207 384.718 262.643 385.438C263.04 386.093 263.73 386.489 263.979 387.222C264.338 388.275 263.511 389.181 263.871 390.234C264.073 390.753 264.472 391.172 264.981 391.4Z" fill="#FDFDFD"/>
<path d="M251.668 376.47C251.673 376.466 251.678 376.464 251.683 376.46C251.752 376.314 251.81 376.163 251.855 376.008L251.668 376.47Z" fill="#E6E6E6"/>
<path d="M254.727 380.848C255.307 380.015 255.169 378.429 254.423 377.362C253.683 376.301 252.441 375.894 251.683 376.459C251.54 376.809 251.31 377.118 251.016 377.355C250.721 377.592 250.37 377.75 249.998 377.815C249.419 377.896 248.701 377.786 248.409 378.367C248.271 378.769 248.235 379.199 248.306 379.618C248.351 380.203 248.395 380.788 248.44 381.373C248.436 381.591 248.5 381.804 248.622 381.984C248.687 382.05 248.767 382.098 248.856 382.123C248.945 382.149 249.038 382.151 249.128 382.13C250.259 382.012 251.39 381.893 252.521 381.775C253.345 381.688 254.224 381.57 254.727 380.848Z" fill="#FDFDFD"/>
<path d="M358.287 416.024C357.506 415.453 356.725 414.882 355.945 414.311C355.123 413.616 354.173 413.088 353.148 412.757C352.924 412.686 352.687 412.661 352.453 412.682C352.219 412.704 351.991 412.772 351.783 412.883C351.576 412.994 351.392 413.146 351.244 413.329C351.096 413.511 350.986 413.722 350.92 413.948L351.156 414.361C352.768 415.256 354.503 416.273 355.588 418.14C356.016 418.876 356.311 419.699 356.727 420.443C357.143 421.188 357.743 421.891 358.388 422.021C359.324 422.208 359.888 421.13 360.046 420.033C360.215 419.116 360.069 418.169 359.634 417.344C359.28 416.816 358.822 416.367 358.287 416.024Z" fill="#FDFDFD"/>
<path d="M367.016 378.328C366.786 377.389 366.557 376.449 366.327 375.51C366.146 374.449 365.759 373.433 365.189 372.52C365.062 372.321 364.898 372.15 364.705 372.015C364.511 371.881 364.293 371.787 364.063 371.738C363.833 371.689 363.595 371.687 363.364 371.731C363.132 371.775 362.913 371.866 362.717 371.996L362.632 372.464C363.289 374.187 363.961 376.082 363.588 378.209C363.442 379.048 363.138 379.868 362.977 380.705C362.816 381.543 362.822 382.467 363.232 382.981C363.827 383.728 364.953 383.266 365.781 382.529C366.5 381.935 366.999 381.117 367.196 380.206C367.266 379.574 367.204 378.935 367.016 378.328Z" fill="#E6E6E6"/>
<path d="M366.008 414.003C365.966 413.254 365.327 412.639 364.959 411.943C364.54 411.022 364.407 409.996 364.577 408.998C364.763 408.047 364.799 407.072 364.684 406.11C364.624 405.674 364.434 405.267 364.14 404.941C363.843 404.658 363.404 404.654 363.303 405.017L363.883 405.123C363.218 405.268 362.595 405.561 362.059 405.981C361.768 406.255 361.547 406.596 361.416 406.974C361.284 407.352 361.246 407.757 361.304 408.153C361.459 408.744 361.562 409.347 361.614 409.955C361.572 410.631 361.12 411.036 360.99 411.667C360.944 412.198 361.03 412.733 361.241 413.222C361.453 413.712 361.783 414.141 362.201 414.471C362.909 415.002 363.789 415.251 364.67 415.169C365.313 415.139 366.055 414.845 366.008 414.003Z" fill="#FDFDFD"/>
<path d="M380.648 412.564C381.068 413.008 381.545 413.394 382.066 413.712C382.948 414.083 383.636 413.348 384.329 412.884C384.971 412.492 385.707 412.282 386.458 412.275C387.209 412.268 387.949 412.464 388.598 412.843C387.702 411.501 386.496 410.394 385.083 409.615C383.671 408.835 382.091 408.406 380.478 408.364C378.396 408.372 376.489 409.076 374.608 409.775L374.322 409.989C376.117 412.028 378.658 410.918 380.648 412.564Z" fill="#FDFDFD"/>
<path d="M327.502 440.157L327.511 440.166C327.517 440.093 327.524 440.02 327.53 439.948L327.502 440.157Z" fill="#E6E6E6"/>
<path d="M327.103 444.796C326.994 445.756 326.959 446.722 326.998 447.687C327.151 449.213 327.458 450.719 327.912 452.184C328.143 453.028 328.534 454.066 329.198 454.25C329.382 454.286 329.573 454.254 329.735 454.16C329.898 454.066 330.02 453.916 330.08 453.738C330.237 453.327 330.326 452.893 330.342 452.454C330.628 450.344 330.645 448.206 330.391 446.091C330.049 443.895 329.075 441.545 327.511 440.166C327.375 441.71 327.239 443.253 327.103 444.796Z" fill="#FDFDFD"/>
<path d="M266.052 350.785C266.492 350.962 266.975 351.007 267.44 350.913C267.905 350.82 268.333 350.592 268.671 350.259C269.36 349.544 269.922 348.717 270.33 347.812C270.715 347.175 270.973 346.469 271.091 345.734C271.145 345.302 271.113 344.863 270.996 344.443C270.88 344.023 270.682 343.631 270.413 343.288C269.725 342.503 268.806 342.523 268.021 342.604C266.765 342.734 265.509 342.863 264.253 342.993L264.762 341.929C263.745 341.826 263.165 343.035 263.068 344.277C263.011 345.086 263.073 345.898 263.254 346.688C263.64 348.415 264.704 350.223 266.052 350.785Z" fill="#E6E6E6"/>
<path d="M283.077 336.005C283.536 336.223 284.06 336.258 284.544 336.103C285.028 335.948 285.434 335.615 285.681 335.171C285.9 334.803 286.038 334.394 286.088 333.968C286.137 333.543 286.097 333.113 285.968 332.704C285.685 331.791 284.846 330.992 284.193 331.173L283.996 330.29C282.709 330.567 281.217 331.131 281.175 332.85C281.188 333.497 281.371 334.128 281.705 334.682C282.038 335.236 282.512 335.692 283.077 336.005Z" fill="#E6E6E6"/>
<path d="M526.252 402.041C519.362 404.881 511.703 407.734 503.275 410.599C459.68 425.415 400.786 438.72 337.441 448.066C274.096 457.412 213.868 461.68 167.853 460.085C145.437 459.308 127.601 457.178 114.84 453.754C101.33 450.13 94.014 445.132 93.0946 438.9C91.3037 426.76 114.634 414.325 134.522 406.03L135.188 407.628C107.878 419.018 93.537 430.035 94.8078 438.648C96.426 449.617 123.072 456.8 167.913 458.355C213.827 459.946 273.944 455.684 337.189 446.353C400.433 437.022 459.219 423.742 502.718 408.959C545.199 394.523 568.636 379.951 567.017 368.981C565.673 359.873 547.073 353.308 514.641 350.495L514.791 348.77C538.356 350.814 566.843 355.936 568.73 368.729C569.65 374.96 564.088 381.858 552.201 389.229C545.424 393.431 536.74 397.717 526.252 402.041Z" fill="#665DF5"/>
</svg>
