<svg width="434" height="617" viewBox="0 0 434 617" fill="none" xmlns="http://www.w3.org/2000/svg">
<path fill-rule="evenodd" clip-rule="evenodd" d="M99.1166 0C92.3246 0.448565 85.6914 0.813743 79.0638 1.34224C70.0061 2.0657 61.4485 6.17007 53.0568 11.2452C50.0239 13.0797 47.0009 15.0005 44.0699 17.2002C28.4741 28.9066 16.0689 46.1269 7.61395 70.0469C3.58412 81.4479 1.46637 93.8197 0.538462 106.694C-0.875324 126.305 0.534076 145.596 4.30454 164.289C7.95663 182.398 13.9786 198.595 21.9144 213.013C26.2445 220.881 31.028 227.909 36.3375 234.085C44.5079 243.59 52.6505 253.153 60.8399 262.617C63.0855 265.213 65.4893 267.467 67.7583 270.014C70.4054 272.986 73.0996 275.894 75.5725 279.202C86.4425 293.742 91.717 312.224 91.0368 334.764C90.7979 342.696 90.4662 350.621 90.2905 358.556C90.1188 366.322 91.6275 373.361 94.2757 379.877C95.5101 382.915 97.0357 385.47 98.7892 387.752C104.478 395.158 110.91 400.516 117.741 404.742C127.97 411.07 138.556 415.327 149.396 418.102C157.195 420.098 165.022 421.676 172.911 422.483C182.734 423.487 192.558 423.297 202.371 422.313C214.765 421.069 227.075 418.63 239.316 415.334C250.303 412.374 261.28 409.311 272.076 404.901C284.41 399.862 296.636 394.252 308.327 386.131C315.278 381.303 321.848 375.452 327.744 367.832C334.439 359.18 339.16 348.438 341.801 335.415C343.124 328.894 343.266 322.229 342.758 315.565C341.485 298.861 338.355 283.122 332.531 268.854C329.678 261.863 326.215 255.683 322.522 249.795C319.069 244.291 315.527 238.919 312.167 233.278C310.085 229.781 308.175 226.001 306.353 222.154C301.936 212.825 300.714 202.37 301.954 190.963C302.59 185.106 303.076 179.155 303.195 173.225C303.471 159.535 300.953 146.832 297.127 134.679C293.91 124.462 289.599 115.495 284.614 107.29C269.434 82.3048 251.967 62.3402 231.909 48.1494C215.748 36.715 199.416 25.923 182.618 16.9874C173.6 12.1906 164.315 9.06906 154.891 7.17129C144.627 5.10444 134.345 3.13765 124.035 1.77816C115.708 0.680324 107.329 0.54978 99.1166 0Z" fill="white"/>
<g clip-path="url(#clip0_2473_886)">
<path d="M317.643 482.731L316.499 489.057L322.201 490.751L321.492 483.997L317.643 482.731Z" fill="#A0616A"/>
<path d="M284 613.672C284 613.87 284.152 614.03 284.34 614.03H433.66C433.849 614.03 434 613.87 434 613.672C434 613.473 433.849 613.313 433.66 613.313H284.34C284.152 613.313 284 613.473 284 613.672Z" fill="#3F3D56"/>
<path d="M385.789 527.783H326.99C320.322 527.783 314.916 533.478 314.916 540.504V600.577C314.916 607.602 320.322 613.297 326.99 613.297H385.789C392.457 613.297 397.862 607.602 397.862 600.577V540.504C397.862 533.478 392.457 527.783 385.789 527.783Z" fill="#FDFDFD"/>
<path d="M385.789 613.598H326.99C320.175 613.598 314.63 607.757 314.63 600.577V540.504C314.63 533.324 320.175 527.482 326.99 527.482H385.789C392.604 527.482 398.148 533.324 398.148 540.504V600.577C398.148 607.757 392.604 613.598 385.789 613.598ZM326.99 528.084C320.49 528.084 315.202 533.656 315.202 540.504V600.577C315.202 607.425 320.49 612.996 326.99 612.996H385.789C392.289 612.996 397.577 607.425 397.577 600.577V540.504C397.577 533.656 392.289 528.084 385.789 528.084L326.99 528.084Z" fill="#3F3D56"/>
<path d="M390.048 553.827H366.414C365.412 553.827 364.596 552.968 364.596 551.912C364.596 550.855 365.412 549.996 366.414 549.996H390.048C391.051 549.996 391.866 550.855 391.866 551.912C391.866 552.968 391.051 553.827 390.048 553.827Z" fill="#665DF5"/>
<path d="M367.876 568.89H344.903C344.324 568.89 343.852 568.394 343.852 567.783C343.852 567.173 344.324 566.677 344.903 566.677H367.876C368.456 566.677 368.927 567.173 368.927 567.783C368.927 568.394 368.456 568.89 367.876 568.89Z" fill="#665DF5"/>
<path d="M335.405 531.897H322.289C322.24 531.897 322.201 531.939 322.201 531.991V533.599C322.201 533.651 322.24 533.693 322.289 533.693H335.405C335.454 533.693 335.494 533.651 335.494 533.599V531.991C335.494 531.939 335.454 531.897 335.405 531.897Z" fill="#665DF5"/>
<path d="M379.585 533.693C380.338 533.693 380.948 533.05 380.948 532.256C380.948 531.463 380.338 530.82 379.585 530.82C378.832 530.82 378.221 531.463 378.221 532.256C378.221 533.05 378.832 533.693 379.585 533.693Z" fill="#3F3D56"/>
<path d="M383.334 533.693C384.087 533.693 384.698 533.05 384.698 532.256C384.698 531.463 384.087 530.82 383.334 530.82C382.581 530.82 381.971 531.463 381.971 532.256C381.971 533.05 382.581 533.693 383.334 533.693Z" fill="#3F3D56"/>
<path d="M387.084 533.693C387.837 533.693 388.447 533.05 388.447 532.256C388.447 531.463 387.837 530.82 387.084 530.82C386.331 530.82 385.72 531.463 385.72 532.256C385.72 533.05 386.331 533.693 387.084 533.693Z" fill="#3F3D56"/>
<path d="M326.847 574.814C326.847 575.013 326.998 575.173 327.187 575.173H385.592C385.781 575.173 385.932 575.013 385.932 574.814C385.932 574.615 385.781 574.456 385.592 574.456H327.187C326.998 574.456 326.847 574.615 326.847 574.814Z" fill="#3F3D56"/>
<path d="M344.659 486.398C345.903 485.316 347.44 485.114 348.094 485.948C348.748 486.782 348.27 488.335 347.026 489.418C346.535 489.857 345.95 490.167 345.322 490.32L339.999 494.836L338.041 492.159L343.497 487.991C343.758 487.37 344.156 486.824 344.659 486.398Z" fill="#A0616A"/>
<path d="M313.891 496.588C313.888 496.389 313.89 494.646 315.114 493.545C316.521 492.28 318.505 492.792 319.201 492.972C320.809 493.387 320.941 494.113 322.451 494.86C325.275 496.257 321.736 495.542 323.417 495.094C323.999 494.939 332.369 494.327 334.452 492.976C338.504 490.349 341.265 488.755 341.265 488.755L343.07 492.558C343.07 492.558 340.46 496.382 336.787 499.215C333.019 502.12 331.135 503.573 328.272 504.134C328.026 504.183 321.962 505.273 317.078 501.429C315.964 500.552 313.923 498.945 313.891 496.588Z" fill="#E6E6E6"/>
<path d="M319.49 486.916C322.963 486.916 325.778 483.95 325.778 480.291C325.778 476.632 322.963 473.667 319.49 473.667C316.017 473.667 313.202 476.632 313.202 480.291C313.202 483.95 316.017 486.916 319.49 486.916Z" fill="#A0616A"/>
<path d="M368.732 524.798L362.257 517.814L358.914 521.488L363.738 528.184L368.524 528.76L368.732 524.798Z" fill="#A0616A"/>
<path d="M331.757 511.702C332.136 511.735 333.34 511.989 334.49 511.322C335.275 510.867 335.678 510.191 335.814 509.975C337.501 507.306 343.977 503.142 349.789 502.886C351.105 502.828 351.971 502.989 352.759 503.421C353.875 504.034 354.321 504.913 355.738 506.971C356.513 508.096 357.37 509.156 358.155 510.275C362.747 516.822 364.487 517.336 364.31 519.435C364.112 521.764 361.728 523.974 360.144 523.719C359.495 523.614 359.244 523.139 358.377 522.176C355.835 519.355 354.783 519.876 352.973 517.715C350.86 515.191 351.137 513.099 350.035 513.018C349.012 512.943 348.578 514.728 346.395 517.099C345.397 518.184 344.686 518.682 342.519 520.266C334.082 526.432 333.948 526.866 332.245 527.358C331.5 527.573 326.213 529.1 324.329 526.67C321.382 522.866 328.345 511.403 331.757 511.702Z" fill="#2F2E41"/>
<path d="M366.752 526.376C367.228 526.151 367.785 525.887 367.964 525.281C368.086 524.871 368.016 524.366 367.765 524.017C367.476 523.614 367.048 523.561 367.066 523.489C367.092 523.381 368.104 523.423 369.215 523.837C369.424 523.915 370.374 524.281 371.582 525.274C372.55 526.07 372.42 526.23 373.026 526.689C374.889 528.098 376.637 526.987 377.645 528.309C378.034 528.819 378.2 529.543 378.036 530.128C377.707 531.304 376.108 531.709 375.234 531.918C373.13 532.421 371.537 532.01 369.874 531.715C364.217 530.71 361.038 531.625 360.613 530.244C360.532 529.983 360.663 530.005 361.099 528.087C361.53 526.195 361.516 525.675 361.882 525.523C362.434 525.295 362.805 526.333 364.195 526.688C365.427 527.003 366.444 526.522 366.752 526.376Z" fill="#2F2E41"/>
<path d="M357.22 547.644L355.584 538.034L350.86 539.096L351.283 547.491L354.935 550.8L357.22 547.644Z" fill="#A0616A"/>
<path d="M333.605 514.932C333.901 515.184 334.761 516.106 336.068 516.235C336.961 516.323 337.654 516.001 337.882 515.903C340.701 514.693 348.278 515.079 353.223 518.306C354.343 519.036 354.975 519.682 355.396 520.505C355.993 521.673 355.893 522.664 355.969 525.205C356.01 526.595 356.155 527.979 356.208 529.369C356.518 537.503 357.685 538.959 356.419 540.59C355.014 542.4 351.864 542.818 350.689 541.67C350.207 541.199 350.253 540.657 350.048 539.348C349.449 535.509 348.301 535.319 347.955 532.46C347.552 529.121 348.896 527.554 348.027 526.835C347.221 526.168 345.91 527.388 342.841 528.059C341.436 528.365 340.582 528.357 337.946 528.385C327.678 528.496 327.335 528.775 325.664 528.175C324.933 527.912 319.744 526.048 319.481 522.922C319.069 518.031 330.94 512.666 333.605 514.932Z" fill="#2F2E41"/>
<path d="M354.741 547.778C355.255 547.874 355.856 547.985 356.327 547.59C356.646 547.322 356.858 546.863 356.836 546.426C356.812 545.921 356.486 545.624 356.538 545.575C356.618 545.501 357.433 546.135 358.131 547.134C358.263 547.323 358.854 548.187 359.324 549.724C359.701 550.955 359.508 551.01 359.765 551.749C360.556 554.018 362.594 554.132 362.724 555.822C362.774 556.474 362.525 557.172 362.078 557.559C361.179 558.338 359.64 557.726 358.806 557.382C356.796 556.553 355.697 555.271 354.478 554.043C350.332 549.865 347.215 548.741 347.599 547.347C347.672 547.083 347.768 547.179 349.151 545.85C350.516 544.539 350.781 544.1 351.165 544.192C351.744 544.329 351.497 545.407 352.458 546.524C353.31 547.513 354.408 547.717 354.741 547.778Z" fill="#2F2E41"/>
<path d="M320.347 481.558C320.592 480.635 320.285 480.299 320.598 479.885C320.598 479.885 320.724 479.718 321.851 479.268C321.519 477.235 321.768 476.891 321.768 476.891C322.055 476.495 322.63 476.399 323.021 476.451C323.849 476.561 323.996 477.349 324.525 477.331C325.257 477.307 326.135 475.764 325.862 474.426C325.64 473.335 324.682 472.525 324.442 472.665C324.204 472.805 323.346 472.19 323.021 472.313C322.799 472.397 321.754 472.285 321.517 472.401C321.258 472.527 320.517 473.315 320.446 473.216C319.954 472.526 319.964 472.285 319.679 472.137C319.172 471.873 318.622 472.36 317.673 472.841C315.721 473.831 315.149 473.24 314.247 474.074C313.791 474.495 313.547 475.299 313.077 476.891C312.42 479.117 312.091 480.231 312.409 481.293C312.732 482.377 313.209 482.141 313.913 483.671C314.696 485.373 314.426 486.362 315.166 486.752C315.738 487.053 316.658 486.862 317.005 486.312C317.599 485.371 316.063 484.097 316.587 482.614C316.908 481.704 317.9 481.013 318.509 481.205C319.197 481.423 319.247 482.722 319.679 482.702C320.048 482.685 320.305 481.718 320.347 481.558Z" fill="#2F2E41"/>
<path d="M315.584 487.897C316.871 486.377 322.112 487.95 322.603 490.362C322.806 491.354 322.059 491.773 322.269 492.915C322.577 494.586 324.319 494.472 325.612 496.173C327.447 498.587 325.556 500.948 327.617 504.977C328.058 505.838 328.429 506.564 329.205 507.266C330.986 508.878 332.644 508.325 333.55 509.82C334.229 510.937 333.95 512.315 333.885 512.637C333.617 513.96 332.892 514.283 332.381 515.367C331.53 517.17 332.493 518.494 332.548 520.649C332.616 523.345 331.256 527.083 328.537 528.309C325.481 529.687 321.796 527.405 320.013 525.139C318.949 523.788 318.64 522.541 318.175 521.001C316.094 514.122 314.919 514.744 313.328 509.291C311.509 503.058 311.151 495.755 313.328 493.444C313.616 493.137 314.41 492.429 314.916 491.154C315.596 489.439 315.008 488.577 315.584 487.897Z" fill="#E6E6E6"/>
<path d="M334.596 523.28C335.593 524.615 335.748 526.24 334.941 526.909C334.134 527.578 332.672 527.037 331.674 525.701C331.269 525.173 330.989 524.551 330.859 523.886L326.7 518.171L328.849 516.444L333.112 522.018C333.695 522.308 334.204 522.74 334.596 523.28Z" fill="#A0616A"/>
<path d="M319.364 493.69C319.55 493.646 321.169 493.292 322.442 494.33C323.904 495.523 323.833 497.674 323.808 498.429C323.751 500.171 323.103 500.456 322.717 502.165C321.995 505.364 323.37 508.337 324.129 509.979C324.392 510.547 325.236 512.287 326.916 514.16C330.185 517.803 333.101 519.721 333.101 519.721L329.968 522.655C329.968 522.655 324.978 521.052 321.596 517.841C318.128 514.548 312.794 502.895 311.688 500.057C311.593 499.812 312.942 503.786 315.517 497.964C316.105 496.636 317.181 494.203 319.364 493.69Z" fill="#E6E6E6"/>
<path d="M362.319 583.02C360.328 583.342 358.871 584.685 359.066 586.02C359.26 587.355 361.032 588.177 363.024 587.855C363.821 587.737 364.581 587.421 365.238 586.931L373.659 585.456L373.097 581.949L364.695 583.202C363.928 582.942 363.114 582.88 362.319 583.02Z" fill="#FFB6B6"/>
<path d="M398.606 572.088L395.341 579.388L378.927 585.21L365.306 585.976L364.965 582.529L379.727 579.277L394.874 571.735L398.606 572.088Z" fill="#E6E6E6"/>
<path d="M368.332 599.807L365.4 607.619L361.607 604.894L363.849 596.718L368.332 599.807Z" fill="#FFB6B6"/>
<path d="M356.089 596.9L348.329 604.712L351.433 608.164L359.365 601.624L356.089 596.9Z" fill="#FFB6B6"/>
<path d="M400.061 571.464L399.975 570.829L397.991 566.741L391.439 568.558L392.646 574.19L400.061 571.464Z" fill="#FFB6B6"/>
<path d="M397.302 598.717L397.503 601.445C397.503 601.445 398.336 612.888 391.611 613.796C384.886 614.705 381.955 615.613 377.989 608.528L371.781 596.9L368.155 601.446L363.331 597.445C363.331 597.445 366.78 583.274 369.539 582.729C369.884 582.66 370.229 582.626 370.568 582.619C372.852 582.569 375.006 583.746 376.372 585.675L384.196 596.718L387.042 595.356L397.302 598.717Z" fill="#2F2E41"/>
<path d="M360.055 607.256L361.607 604.167L366.09 607.438C366.09 607.438 367.125 611.435 365.573 611.98C364.021 612.525 359.71 611.798 359.71 611.798C359.71 611.798 351.778 613.615 351.605 611.98C351.433 610.344 355.227 609.981 355.227 609.981L360.055 607.256Z" fill="#2F2E41"/>
<path d="M376.954 605.076L364.969 597.12L358.848 602.896L354.709 597.808C354.709 597.808 362.297 585.999 364.538 585.454C366.78 584.909 370.401 584.546 370.401 584.546L381.437 595.265L376.954 605.076Z" fill="#2F2E41"/>
<path d="M348.157 603.986L352.123 608.528L351.6 608.999C351.6 608.999 350.571 613.721 348.157 612.123C345.742 610.526 345.57 610.163 345.57 610.163C345.57 610.163 338.672 611.798 337.983 608.891C337.293 605.984 339.19 606.529 339.19 606.529L340.912 607.619L348.157 603.986Z" fill="#2F2E41"/>
<path d="M393.508 570.556C396.556 570.556 399.026 567.953 399.026 564.742C399.026 561.531 396.556 558.928 393.508 558.928C390.461 558.928 387.99 561.531 387.99 564.742C387.99 567.953 390.461 570.556 393.508 570.556Z" fill="#FFB6B6"/>
<path d="M392.215 573.009L400.147 570.465C400.147 570.465 403.251 578.096 402.734 581.548C402.216 585 397.503 601.446 397.503 601.446L387.042 595.356C387.042 595.356 386.869 591.722 386.352 590.087C385.835 588.452 384.196 583.455 387.818 579.277C391.439 575.098 392.215 573.009 392.215 573.009Z" fill="#E6E6E6"/>
<path d="M374.757 611.159C373.466 612.788 373.217 614.811 374.202 615.676C375.186 616.541 377.03 615.922 378.321 614.292C378.845 613.648 379.216 612.881 379.401 612.056L384.788 605.079L382.164 602.842L376.652 609.639C375.914 609.979 375.264 610.5 374.757 611.159Z" fill="#FFB6B6"/>
<path d="M398.299 576.674L400.174 584.499L390.998 599.975L381.63 609.894L378.594 607.24L388.041 594.855L395.202 578.897L398.299 576.674Z" fill="#E6E6E6"/>
<path d="M388.421 563.743C389.836 563.739 389.917 563.749 390.145 563.743C391.901 563.694 392.36 562.967 393.249 563.016C394.837 563.105 392.741 571.493 391.87 575.371C391.015 579.174 393.904 582.582 394.112 582.82C397.044 586.18 402.195 586.794 403.078 585.363C403.794 584.205 401.258 582.444 401.871 579.913C402.47 577.438 405.237 577.702 406.01 575.371C406.82 572.929 404.098 571.698 402.389 565.741C401.407 562.32 401.58 561.683 400.664 559.564C398.215 553.901 386.211 556.312 387.559 561.563C387.82 562.578 387.126 563.746 388.421 563.743Z" fill="#2F2E41"/>
<path d="M406.041 494.725H348.048C346.408 494.725 345.073 493.319 345.073 491.591V459.134C345.073 457.406 346.408 456 348.048 456H406.041C407.682 456 409.016 457.406 409.016 459.134V491.591C409.016 493.319 407.682 494.725 406.041 494.725Z" fill="#FDFDFD"/>
<path d="M406.041 494.725H348.048C346.408 494.725 345.073 493.319 345.073 491.591V459.134C345.073 457.406 346.408 456 348.048 456H406.041C407.682 456 409.016 457.406 409.016 459.134V491.591C409.016 493.319 407.682 494.725 406.041 494.725ZM348.048 456.523C346.682 456.523 345.57 457.694 345.57 459.134V491.591C345.57 493.031 346.682 494.202 348.048 494.202H406.041C407.408 494.202 408.519 493.031 408.519 491.591V459.134C408.519 457.694 407.408 456.523 406.041 456.523H348.048Z" fill="#3F3D56"/>
<path d="M401.566 459.925C401.977 459.925 402.311 459.573 402.311 459.14C402.311 458.706 401.977 458.355 401.566 458.355C401.154 458.355 400.82 458.706 400.82 459.14C400.82 459.573 401.154 459.925 401.566 459.925Z" fill="#3F3D56"/>
<path d="M403.552 459.925C403.964 459.925 404.297 459.573 404.297 459.14C404.297 458.706 403.964 458.355 403.552 458.355C403.141 458.355 402.807 458.706 402.807 459.14C402.807 459.573 403.141 459.925 403.552 459.925Z" fill="#3F3D56"/>
<path d="M405.539 459.925C405.95 459.925 406.284 459.573 406.284 459.14C406.284 458.706 405.95 458.355 405.539 458.355C405.128 458.355 404.794 458.706 404.794 459.14C404.794 459.573 405.128 459.925 405.539 459.925Z" fill="#3F3D56"/>
<path d="M349.295 471.83C349.09 471.83 348.923 472.006 348.923 472.223C348.923 472.328 348.961 472.426 349.032 472.498C349.102 472.574 349.195 472.615 349.295 472.615H405.042C405.248 472.615 405.415 472.439 405.415 472.223C405.415 472.117 405.376 472.019 405.306 471.947C405.235 471.871 405.142 471.83 405.042 471.83H349.295Z" fill="#E6E6E6"/>
<path d="M398.089 471.699V472.746H349.295C349.159 472.746 349.035 472.689 348.945 472.592C348.853 472.498 348.799 472.367 348.799 472.223C348.799 471.935 349.022 471.699 349.295 471.699H398.089Z" fill="#665DF5"/>
<path d="M404.421 469.737H399.455C398.907 469.737 398.461 469.268 398.461 468.69C398.461 468.113 398.907 467.644 399.455 467.644H404.421C404.969 467.644 405.415 468.113 405.415 468.69C405.415 469.268 404.969 469.737 404.421 469.737Z" fill="#E6E6E6"/>
<path d="M371.889 464.242H349.668C349.12 464.242 348.674 463.773 348.674 463.196C348.674 462.618 349.12 462.149 349.668 462.149H371.889C372.436 462.149 372.882 462.618 372.882 463.196C372.882 463.773 372.436 464.242 371.889 464.242Z" fill="#E6E6E6"/>
<path d="M349.295 483.605C349.09 483.605 348.923 483.781 348.923 483.997C348.923 484.103 348.961 484.2 349.032 484.272C349.102 484.349 349.195 484.39 349.295 484.39H405.042C405.248 484.39 405.415 484.214 405.415 483.997C405.415 483.892 405.376 483.794 405.306 483.722C405.235 483.646 405.142 483.605 405.042 483.605H349.295Z" fill="#E6E6E6"/>
<path d="M378.966 483.474V484.52H349.295C349.159 484.52 349.035 484.463 348.945 484.366C348.853 484.272 348.799 484.141 348.799 483.997C348.799 483.709 349.022 483.474 349.295 483.474H378.966Z" fill="#665DF5"/>
<path d="M404.421 481.511H399.455C398.907 481.511 398.461 481.042 398.461 480.465C398.461 479.888 398.907 479.418 399.455 479.418H404.421C404.969 479.418 405.415 479.888 405.415 480.465C405.415 481.042 404.969 481.511 404.421 481.511Z" fill="#E6E6E6"/>
</g>
<path d="M254.565 352.918C258.185 361.694 260.04 371.097 260.025 380.591C260.01 390.084 258.125 399.481 254.478 408.246C250.83 417.01 245.491 424.97 238.767 431.671C232.042 438.372 224.063 443.682 215.286 447.298C178.377 462.514 136.121 444.927 120.906 408.019C117.94 400.842 116.15 393.235 115.605 385.488C114.565 370.35 118.309 355.268 126.309 342.375C134.309 329.481 146.159 319.429 160.185 313.639C172.282 308.647 185.507 307.034 198.449 308.972C211.391 310.91 223.564 316.326 233.669 324.641C236.169 326.69 238.526 328.907 240.726 331.275C241.031 331.606 241.333 331.937 241.632 332.274L241.634 332.278C242.96 333.755 244.226 335.295 245.432 336.898C249.148 341.826 252.217 347.21 254.565 352.918Z" fill="#3F3D56"/>
<path d="M161.836 338.394C158.163 338.008 154.451 338.466 150.982 339.732C147.513 340.999 144.379 343.041 141.819 345.703C139.561 348.036 137.548 351.379 138.23 355.638C141.04 351.916 147.274 353.397 150.52 358.557L150.322 358.711C151.403 362.766 154.257 366.491 157.422 367.977C156.686 365.381 157.62 363.023 158.789 361.309C159.957 359.594 161.415 358.098 161.891 355.783C162.456 353.038 161.531 349.749 160.927 346.649C160.323 343.55 160.148 340.023 161.836 338.394Z" fill="#FDFDFD"/>
<path d="M154.547 379.703C154.155 381.672 153.181 383.207 152.446 384.922C151.716 386.639 151.22 388.755 151.84 390.953C152.238 392.362 153.042 393.628 153.569 395.001C154.096 396.374 154.273 398.09 153.488 398.809C152.246 399.938 150.015 397.687 148.437 398.116C147.184 398.458 146.884 400.776 147.9 402.26C148.916 403.743 150.835 403.795 151.329 402.349C152.755 403.416 153.219 406.226 152.132 407.183C152.365 408.129 152.598 409.071 152.835 410.016C148.712 409.096 144.54 408.154 140.467 405.997C135.95 403.63 132.243 399.966 129.823 395.477C127.917 391.854 126.663 387.328 123.738 385.142C121.396 383.392 118.809 383.859 116.73 384.886C116.351 385.072 115.976 385.279 115.606 385.488C115.305 381.18 115.396 376.854 115.876 372.563C116.234 372.197 116.535 371.778 116.768 371.322C118.061 368.812 117.535 365.029 118.175 361.998C118.217 361.803 118.263 361.61 118.315 361.419C119.078 358.581 120.833 356.559 122.546 354.645C126.332 350.395 130.244 346.059 135.373 344.318L134.007 345.042C134.264 350.374 134.519 355.707 134.774 361.041C134.815 361.858 134.854 362.677 134.892 363.499C135.039 366.531 135.226 369.746 136.591 372.645C137.399 374.363 138.779 375.983 140.185 376.107C141.495 376.218 142.394 375.048 143.159 373.943C143.484 373.478 143.806 373.016 144.13 372.548C145.295 370.873 146.619 369.102 148.575 369.095C150.366 369.086 152.357 370.703 153.498 372.86C154.596 374.962 154.965 377.369 154.547 379.703Z" fill="#FDFDFD"/>
<path d="M177.058 407.552C171.253 406.61 165.447 405.668 159.642 404.725L159.637 404.491C157.21 406.774 158.124 412.384 160.325 416.373C162.526 420.361 165.682 423.437 168.178 427.179C171.577 432.306 173.542 438.249 173.869 444.392C177.141 435.051 179.468 425.405 180.816 415.599C181.048 414.337 181.091 413.048 180.941 411.773C180.734 410.437 180.087 408.995 179.096 408.263C178.486 407.86 177.786 407.616 177.058 407.552Z" fill="#FDFDFD"/>
<path d="M137.403 363.22C137.368 364.528 137.786 366.08 138.704 367.04C139.641 368.02 140.822 368.151 141.89 368.225L144.971 368.438C145.996 368.509 147.089 368.557 147.814 367.852C148.688 367.002 148.737 365.063 147.921 363.617C147.053 362.079 145.572 361.385 144.236 360.825C142.366 360.041 140.496 359.258 138.626 358.474L138.257 359.694C137.775 360.813 137.486 362.005 137.403 363.22Z" fill="#FDFDFD"/>
<path d="M234.604 343.42C235.867 343.217 237.129 343.013 238.392 342.81C239.794 346.78 239.35 351.172 237.303 353.54C236.45 354.526 235.333 355.221 234.86 356.602C234.434 357.855 234.617 359.456 234.806 360.981C235.135 363.643 235.463 366.305 235.792 368.967C236.149 371.834 236.423 375.07 234.972 376.754C233.726 378.202 231.523 377.967 229.638 376.829C227.752 375.691 226.106 373.794 224.505 371.943C225.514 374.264 225.372 377.007 224.166 378.455C222.957 379.905 220.775 379.944 218.994 378.554C217.715 377.557 216.698 375.965 215.425 374.943C214.153 373.922 212.315 373.793 212.031 375.361C211.847 376.401 212.435 377.636 212.606 378.79C212.872 380.583 212.068 382.109 210.891 382.699C209.717 383.287 208.248 383.075 206.845 382.546C203.946 381.448 201.123 378.972 199.1 375.762C198.201 374.329 197.435 372.682 197.296 371.049C197.158 369.417 197.801 367.848 199.01 367.672C199.102 365.852 196.848 364.419 195.64 365.125C194.429 365.833 193.991 367.625 193.373 369.118C192.758 370.609 191.605 371.984 190.114 371.369C190.524 372.343 189.995 373.316 189.275 373.518C188.559 373.722 187.724 373.423 186.936 373.292C183.889 372.78 181.224 375.052 180.68 378.621C179.868 373.595 179.278 367.687 182.143 365.247C183.312 364.248 184.936 364.004 185.898 362.713C187.6 360.426 185.946 355.117 183.122 353.81C184.194 355.705 185.107 358.056 184.616 359.857C184.125 361.658 181.545 361.68 180.846 359.605C181.116 361.122 179.688 361.959 178.549 361.177C177.407 360.397 176.745 358.624 176.716 357.142C176.687 355.659 177.156 354.393 177.613 353.175C178.598 350.558 179.599 347.908 181.151 345.879C182.707 343.847 184.903 342.473 187.439 342.809C188.777 342.987 190.156 343.635 191.485 343.73C192.816 343.828 194.187 343.181 194.385 341.587C194.612 339.808 193.344 337.829 192.906 335.903C192.141 332.496 194.709 329.695 197.338 331.07C195.881 331.275 195.161 333.396 195.777 335.353C196.389 337.312 198.13 338.827 199.643 338.872C202.181 338.938 203.296 335.681 204.007 332.799C204.745 329.784 205.486 326.77 206.229 323.756C206.338 323.25 206.49 322.754 206.683 322.274C207.001 321.537 207.588 320.948 208.324 320.626C209.06 320.305 209.891 320.276 210.648 320.544C212.94 321.237 214.929 323.775 217.15 325.17C220.376 327.198 223.719 326.636 226.792 326.021C229.082 325.559 231.374 325.099 233.669 324.641C236.169 326.69 238.527 328.906 240.726 331.275C237.761 334.283 235.622 338.505 234.604 343.42Z" fill="#FDFDFD"/>
<path d="M259.873 385.267C259.614 389.153 259.04 393.011 258.157 396.803C256.585 396.783 255.569 398.396 254.712 399.87C253.819 401.411 252.651 403.035 250.934 402.674C249.178 402.303 247.658 399.868 247.236 397.613C246.817 395.363 247.221 393.267 247.626 391.267C248.054 389.145 248.534 386.927 249.816 385.643C251.102 384.357 253.472 384.448 254.834 386.467L255.918 385.977C254.952 385.384 254.553 383.499 255.254 382.849C256.06 382.096 257.428 383.065 258.47 383.991C258.938 384.41 259.412 384.832 259.873 385.267Z" fill="#FDFDFD"/>
<path d="M211.318 386.936C209.017 388.058 205.947 385.921 203.525 383.573C201.102 381.225 198.619 378.421 195.887 377.844C194.326 377.514 192.891 377.972 191.404 378.113C189.916 378.255 188.19 377.991 186.858 376.552L185.11 376.564C183.59 378.493 182.052 380.452 181.093 382.966C180.018 385.786 179.901 388.881 180.758 391.775C181.709 394.892 184.144 397.801 186.584 398.113C188.511 398.36 190.097 397.05 192.014 397.213C194.409 397.417 196.8 399.892 198.448 402.63C200.096 405.367 201.235 408.449 202.77 411.272C204.305 414.095 206.448 416.807 208.883 417.574C211.93 418.534 214.607 415.589 214.203 411.722C214.004 409.825 213.2 407.923 212.85 406.014C212.232 402.651 213.059 399.626 213.42 396.51C213.78 393.395 213.467 389.494 211.318 386.936Z" fill="#FDFDFD"/>
<path d="M175.452 366.176C175.756 366.288 176.051 366.422 176.336 366.576C176.671 366.833 176.93 367.176 177.084 367.57C177.239 367.963 177.283 368.391 177.212 368.807C177.49 368.673 177.737 368.484 177.938 368.25C178.138 368.016 178.289 367.743 178.379 367.448C178.607 366.779 178.766 366.089 178.853 365.387C178.932 364.895 178.969 364.258 178.613 363.859C178.371 363.587 178.051 363.56 177.767 363.397C177.317 363.138 176.996 362.565 176.629 362.106C175.838 361.116 174.711 360.612 173.81 360.845L173.938 360.819C173.632 361.088 173.617 361.756 173.905 362.232C174.168 362.666 174.624 362.928 174.789 363.412C175.027 364.109 174.479 364.708 174.717 365.405C174.851 365.749 175.115 366.026 175.452 366.176Z" fill="#FDFDFD"/>
<path d="M166.645 356.299C166.648 356.296 166.651 356.295 166.654 356.292C166.7 356.196 166.738 356.096 166.768 355.994L166.645 356.299Z" fill="#E6E6E6"/>
<path d="M168.668 359.196C169.052 358.645 168.961 357.596 168.467 356.889C167.977 356.187 167.156 355.918 166.655 356.292C166.56 356.524 166.408 356.728 166.213 356.885C166.018 357.041 165.786 357.146 165.539 357.189C165.156 357.242 164.681 357.17 164.489 357.554C164.397 357.82 164.374 358.104 164.42 358.382C164.45 358.769 164.479 359.156 164.509 359.543C164.506 359.687 164.549 359.828 164.629 359.947C164.672 359.991 164.726 360.022 164.784 360.039C164.843 360.056 164.905 360.058 164.964 360.044C165.712 359.965 166.46 359.887 167.209 359.809C167.754 359.752 168.336 359.673 168.668 359.196Z" fill="#FDFDFD"/>
<path d="M237.181 382.467C236.664 382.089 236.148 381.712 235.631 381.334C235.087 380.874 234.459 380.525 233.781 380.306C233.633 380.259 233.476 380.242 233.321 380.256C233.166 380.271 233.015 380.316 232.878 380.389C232.741 380.463 232.619 380.563 232.521 380.684C232.423 380.805 232.35 380.944 232.307 381.094L232.463 381.367C233.53 381.959 234.677 382.632 235.395 383.867C235.678 384.354 235.874 384.898 236.149 385.391C236.424 385.884 236.821 386.349 237.248 386.434C237.867 386.559 238.24 385.845 238.345 385.119C238.456 384.512 238.36 383.886 238.072 383.341C237.838 382.991 237.534 382.694 237.181 382.467Z" fill="#FDFDFD"/>
<path d="M242.956 357.529C242.804 356.907 242.652 356.286 242.5 355.664C242.38 354.962 242.124 354.29 241.747 353.686C241.663 353.554 241.555 353.441 241.427 353.352C241.299 353.263 241.154 353.201 241.002 353.168C240.85 353.136 240.692 353.135 240.539 353.164C240.386 353.193 240.241 353.253 240.111 353.34L240.055 353.649C240.49 354.789 240.934 356.043 240.688 357.45C240.591 358.005 240.39 358.547 240.284 359.101C240.177 359.655 240.181 360.267 240.452 360.607C240.846 361.101 241.591 360.795 242.139 360.307C242.614 359.915 242.944 359.374 243.075 358.771C243.121 358.353 243.08 357.93 242.956 357.529Z" fill="#E6E6E6"/>
<path d="M242.289 381.13C242.261 380.635 241.838 380.227 241.595 379.767C241.318 379.158 241.23 378.479 241.342 377.819C241.465 377.19 241.489 376.545 241.413 375.908C241.373 375.62 241.248 375.351 241.053 375.135C240.857 374.948 240.566 374.945 240.499 375.185L240.883 375.255C240.443 375.351 240.031 375.545 239.676 375.823C239.484 376.005 239.338 376.23 239.251 376.48C239.164 376.73 239.138 376.998 239.177 377.26C239.279 377.651 239.348 378.05 239.382 378.452C239.354 378.899 239.055 379.167 238.969 379.585C238.938 379.936 238.996 380.29 239.135 380.614C239.275 380.937 239.493 381.221 239.77 381.44C240.239 381.791 240.821 381.956 241.404 381.901C241.829 381.882 242.32 381.687 242.289 381.13Z" fill="#FDFDFD"/>
<path d="M251.975 380.178C252.252 380.472 252.568 380.727 252.912 380.938C253.496 381.183 253.951 380.697 254.41 380.39C254.834 380.131 255.321 379.992 255.818 379.987C256.315 379.982 256.804 380.112 257.234 380.363C256.641 379.475 255.843 378.743 254.909 378.227C253.974 377.711 252.929 377.427 251.862 377.399C250.484 377.405 249.223 377.87 247.979 378.333L247.789 378.474C248.977 379.823 250.658 379.089 251.975 380.178Z" fill="#FDFDFD"/>
<path d="M216.814 398.432L216.82 398.437C216.824 398.39 216.828 398.342 216.832 398.295L216.814 398.432Z" fill="#E6E6E6"/>
<path d="M216.55 401.502C216.478 402.137 216.455 402.776 216.481 403.415C216.582 404.424 216.785 405.421 217.085 406.389C217.238 406.948 217.497 407.635 217.937 407.756C218.058 407.78 218.185 407.759 218.292 407.697C218.399 407.635 218.48 407.535 218.519 407.418C218.624 407.146 218.682 406.859 218.693 406.568C218.882 405.172 218.893 403.758 218.725 402.359C218.499 400.906 217.855 399.351 216.82 398.439C216.73 399.46 216.64 400.481 216.55 401.502Z" fill="#FDFDFD"/>
<path d="M176.161 339.307C176.452 339.424 176.771 339.454 177.079 339.392C177.387 339.33 177.67 339.179 177.893 338.959C178.349 338.486 178.721 337.939 178.991 337.34C179.246 336.918 179.416 336.452 179.494 335.965C179.53 335.679 179.509 335.389 179.432 335.111C179.355 334.834 179.224 334.574 179.046 334.347C178.59 333.828 177.983 333.841 177.464 333.895C176.633 333.98 175.802 334.066 174.971 334.152L175.307 333.448C174.634 333.38 174.251 334.18 174.187 335.001C174.149 335.536 174.19 336.074 174.309 336.596C174.565 337.739 175.269 338.935 176.161 339.307Z" fill="#E6E6E6"/>
<path d="M187.424 329.529C187.727 329.673 188.074 329.696 188.394 329.594C188.714 329.491 188.983 329.271 189.147 328.977C189.291 328.734 189.383 328.463 189.416 328.181C189.448 327.9 189.422 327.615 189.337 327.345C189.149 326.741 188.594 326.213 188.162 326.332L188.032 325.748C187.18 325.931 186.193 326.305 186.166 327.442C186.174 327.869 186.295 328.287 186.516 328.653C186.737 329.02 187.05 329.322 187.424 329.529Z" fill="#E6E6E6"/>
<path d="M348.302 373.216C343.744 375.095 338.677 376.983 333.101 378.878C304.26 388.68 265.297 397.482 223.39 403.665C181.483 409.848 141.637 412.672 111.195 411.617C96.365 411.103 84.5652 409.694 76.123 407.428C67.1852 405.031 62.3449 401.724 61.7366 397.601C60.5518 389.57 75.9867 381.343 89.1437 375.856L89.5848 376.913C71.5168 384.448 62.0294 391.736 62.8701 397.434C63.9406 404.692 81.5687 409.443 111.234 410.472C141.61 411.525 181.382 408.705 223.223 402.532C265.063 396.359 303.955 387.573 332.732 377.793C360.836 368.243 376.342 358.602 375.271 351.345C374.382 345.319 362.076 340.976 340.62 339.115L340.719 337.974C356.309 339.326 375.156 342.715 376.404 351.178C377.013 355.3 373.333 359.864 365.469 364.74C360.986 367.52 355.24 370.356 348.302 373.216Z" fill="#665DF5"/>
<defs>
<clipPath id="clip0_2473_886">
<rect width="150" height="160.067" fill="white" transform="translate(284 456)"/>
</clipPath>
</defs>
</svg>
