<svg width="604" height="688" viewBox="0 0 604 688" fill="none" xmlns="http://www.w3.org/2000/svg">
<path fill-rule="evenodd" clip-rule="evenodd" d="M148.625 103C138.44 103.5 128.494 103.908 118.556 104.497C104.974 105.304 92.1418 109.882 79.5584 115.543C75.0106 117.59 70.4776 119.732 66.0826 122.186C42.6967 135.244 24.0953 154.452 11.4171 181.133C5.3744 193.851 2.19885 207.651 0.807453 222.011C-1.31251 243.886 0.800876 265.405 6.45466 286.256C11.931 306.455 20.9608 324.521 32.8606 340.605C39.3536 349.381 46.5263 357.22 54.488 364.109C66.7394 374.711 78.9492 385.379 91.2291 395.935C94.5964 398.83 98.2009 401.345 101.603 404.186C105.573 407.501 109.613 410.745 113.321 414.434C129.62 430.653 137.529 451.268 136.509 476.411C136.151 485.258 135.654 494.099 135.39 502.95C135.133 511.613 137.395 519.463 141.366 526.732C143.217 530.121 145.505 532.97 148.134 535.516C156.665 543.777 166.309 549.753 176.552 554.467C191.891 561.526 207.764 566.275 224.018 569.37C235.714 571.596 247.45 573.356 259.279 574.256C274.009 575.376 288.74 575.165 303.454 574.067C322.038 572.68 340.497 569.959 358.853 566.282C375.328 562.981 391.788 559.565 407.977 554.644C426.472 549.025 444.804 542.766 462.335 533.708C472.758 528.322 482.609 521.797 491.45 513.297C501.49 503.646 508.569 491.664 512.53 477.137C514.513 469.863 514.726 462.429 513.964 454.995C512.056 436.363 507.362 418.807 498.629 402.892C494.35 395.094 489.158 388.2 483.62 381.633C478.442 375.494 473.131 369.502 468.094 363.209C464.971 359.308 462.106 355.092 459.374 350.8C452.751 340.394 450.92 328.733 452.778 316.008C453.733 309.476 454.461 302.838 454.64 296.223C455.053 280.953 451.278 266.783 445.54 253.227C440.716 241.831 434.252 231.828 426.777 222.677C404.015 194.806 377.824 172.537 347.747 156.708C323.514 143.954 299.024 131.916 273.834 121.948C260.312 116.598 246.39 113.116 232.259 110.999C216.867 108.694 201.449 106.5 185.99 104.983C173.504 103.759 160.939 103.613 148.625 103Z" fill="white"/>
<path d="M384.564 474.36C390.036 487.625 392.84 501.838 392.818 516.188C392.795 530.537 389.945 544.742 384.432 557.989C378.918 571.237 370.849 583.269 360.684 593.398C350.519 603.526 338.459 611.553 325.192 617.019C269.403 640.018 205.531 613.436 182.532 557.647C178.048 546.799 175.343 535.3 174.52 523.591C172.946 500.709 178.606 477.912 190.699 458.423C202.791 438.934 220.704 423.739 241.904 414.987C260.189 407.442 280.18 405.003 299.743 407.932C319.305 410.861 337.705 419.048 352.978 431.618C356.757 434.715 360.321 438.065 363.645 441.645C364.107 442.144 364.563 442.646 365.016 443.155L365.018 443.161C367.022 445.394 368.936 447.722 370.76 450.143C376.376 457.593 381.015 465.731 384.564 474.36Z" fill="#3F3D56"/>
<path d="M244.399 452.405C238.848 451.822 233.236 452.514 227.993 454.429C222.749 456.343 218.012 459.43 214.143 463.454C210.729 466.98 207.687 472.034 208.717 478.471C212.965 472.844 222.388 475.083 227.294 482.884L226.995 483.116C228.63 489.246 232.943 494.875 237.727 497.122C236.616 493.198 238.027 489.633 239.793 487.042C241.559 484.451 243.762 482.19 244.483 478.69C245.337 474.541 243.939 469.569 243.026 464.884C242.113 460.198 241.848 454.867 244.399 452.405Z" fill="#FDFDFD"/>
<path d="M233.382 514.846C232.79 517.822 231.317 520.143 230.206 522.735C229.102 525.33 228.353 528.528 229.289 531.851C229.891 533.98 231.107 535.895 231.904 537.97C232.7 540.045 232.968 542.639 231.781 543.726C229.904 545.432 226.532 542.029 224.147 542.678C222.253 543.196 221.799 546.698 223.334 548.941C224.87 551.184 227.771 551.262 228.518 549.076C230.673 550.689 231.374 554.937 229.731 556.383C230.084 557.813 230.435 559.238 230.794 560.665C224.561 559.276 218.255 557.851 212.099 554.591C205.271 551.012 199.668 545.475 196.01 538.69C193.129 533.213 191.234 526.372 186.812 523.067C183.273 520.422 179.362 521.129 176.219 522.68C175.646 522.962 175.079 523.275 174.52 523.591C174.066 517.079 174.203 510.54 174.929 504.053C175.47 503.5 175.925 502.867 176.276 502.178C178.232 498.384 177.437 492.665 178.404 488.084C178.467 487.789 178.537 487.497 178.615 487.209C179.768 482.919 182.421 479.862 185.01 476.969C190.734 470.546 196.646 463.992 204.399 461.36L202.335 462.454C202.723 470.514 203.109 478.576 203.493 486.637C203.556 487.872 203.615 489.11 203.672 490.352C203.894 494.935 204.177 499.796 206.24 504.178C207.461 506.774 209.547 509.223 211.673 509.41C213.653 509.579 215.012 507.81 216.168 506.139C216.66 505.437 217.147 504.738 217.636 504.03C219.396 501.499 221.398 498.822 224.355 498.811C227.062 498.799 230.071 501.241 231.796 504.502C233.455 507.68 234.013 511.318 233.382 514.846Z" fill="#FDFDFD"/>
<path d="M267.408 556.941C258.633 555.517 249.858 554.093 241.083 552.669L241.076 552.314C237.407 555.765 238.79 564.245 242.116 570.274C245.443 576.303 250.213 580.952 253.986 586.608C259.124 594.358 262.094 603.342 262.587 612.627C267.533 598.507 271.051 583.926 273.088 569.104C273.44 567.197 273.504 565.248 273.277 563.322C272.965 561.302 271.986 559.122 270.489 558.016C269.567 557.407 268.509 557.038 267.408 556.941Z" fill="#FDFDFD"/>
<path d="M207.469 489.931C207.414 491.908 208.047 494.254 209.434 495.705C210.851 497.187 212.636 497.384 214.25 497.496L218.907 497.819C220.457 497.926 222.109 497.999 223.204 496.933C224.525 495.648 224.6 492.716 223.367 490.531C222.055 488.206 219.816 487.157 217.796 486.311C214.97 485.126 212.143 483.942 209.317 482.758L208.759 484.602C208.03 486.292 207.594 488.094 207.469 489.931Z" fill="#FDFDFD"/>
<path d="M354.392 460.003C356.3 459.695 358.209 459.388 360.118 459.08C362.237 465.081 361.566 471.72 358.472 475.299C357.182 476.79 355.495 477.84 354.779 479.927C354.135 481.821 354.411 484.242 354.698 486.546C355.194 490.57 355.691 494.594 356.188 498.617C356.727 502.952 357.141 507.843 354.947 510.389C353.065 512.576 349.735 512.223 346.885 510.502C344.035 508.781 341.547 505.914 339.126 503.116C340.651 506.624 340.437 510.77 338.614 512.959C336.786 515.151 333.489 515.21 330.797 513.109C328.863 511.602 327.326 509.196 325.402 507.651C323.479 506.107 320.7 505.913 320.272 508.282C319.994 509.855 320.882 511.721 321.141 513.466C321.543 516.176 320.327 518.483 318.548 519.374C316.774 520.263 314.554 519.943 312.432 519.144C308.051 517.483 303.783 513.741 300.726 508.888C299.367 506.723 298.209 504.233 298 501.765C297.79 499.298 298.763 496.927 300.589 496.66C300.73 493.91 297.322 491.743 295.497 492.811C293.666 493.881 293.003 496.59 292.069 498.846C291.14 501.1 289.397 503.178 287.142 502.249C287.762 503.721 286.964 505.192 285.875 505.497C284.793 505.805 283.531 505.354 282.339 505.155C277.733 504.382 273.705 507.815 272.883 513.21C271.655 505.614 270.765 496.684 275.094 492.995C276.861 491.485 279.316 491.116 280.77 489.165C283.343 485.707 280.843 477.684 276.575 475.707C278.195 478.572 279.576 482.126 278.833 484.848C278.091 487.571 274.191 487.603 273.134 484.466C273.541 486.761 271.384 488.024 269.662 486.843C267.935 485.664 266.935 482.984 266.892 480.743C266.848 478.503 267.556 476.589 268.248 474.748C269.736 470.792 271.249 466.787 273.596 463.719C275.948 460.648 279.267 458.571 283.1 459.078C285.122 459.348 287.207 460.327 289.216 460.47C291.227 460.619 293.299 459.641 293.6 457.232C293.942 454.543 292.026 451.551 291.364 448.639C290.206 443.49 294.088 439.257 298.063 441.334C295.86 441.645 294.772 444.851 295.703 447.809C296.628 450.77 299.26 453.06 301.546 453.128C305.382 453.228 307.069 448.304 308.143 443.948C309.258 439.392 310.378 434.835 311.502 430.279C311.667 429.514 311.896 428.765 312.188 428.04C312.669 426.925 313.555 426.034 314.668 425.549C315.781 425.063 317.037 425.019 318.181 425.425C321.646 426.471 324.652 430.307 328.01 432.416C332.885 435.482 337.939 434.633 342.584 433.702C346.046 433.004 349.51 432.309 352.978 431.617C356.757 434.714 360.321 438.064 363.645 441.645C359.164 446.191 355.931 452.572 354.392 460.003Z" fill="#FDFDFD"/>
<path d="M392.588 523.256C392.196 529.13 391.328 534.961 389.994 540.694C387.617 540.663 386.081 543.101 384.787 545.329C383.436 547.659 381.671 550.113 379.076 549.568C376.422 549.007 374.123 545.326 373.486 541.918C372.852 538.516 373.463 535.349 374.075 532.326C374.722 529.118 375.448 525.765 377.386 523.824C379.329 521.881 382.912 522.019 384.971 525.07L386.609 524.329C385.15 523.434 384.546 520.583 385.605 519.602C386.823 518.463 388.891 519.928 390.466 521.327C391.174 521.961 391.89 522.599 392.588 523.256Z" fill="#FDFDFD"/>
<path d="M319.195 525.778C315.717 527.475 311.076 524.245 307.414 520.696C303.752 517.146 299.999 512.908 295.87 512.035C293.51 511.537 291.34 512.229 289.093 512.443C286.845 512.657 284.235 512.257 282.222 510.083L279.579 510.101C277.282 513.016 274.957 515.979 273.508 519.778C271.883 524.041 271.705 528.719 273.002 533.093C274.438 537.805 278.12 542.201 281.807 542.674C284.721 543.047 287.117 541.066 290.015 541.313C293.635 541.622 297.25 545.362 299.741 549.5C302.232 553.639 303.953 558.297 306.274 562.563C308.594 566.83 311.832 570.931 315.513 572.09C320.12 573.541 324.166 569.089 323.554 563.244C323.254 560.376 322.039 557.502 321.509 554.616C320.575 549.533 321.826 544.961 322.371 540.251C322.916 535.541 322.442 529.645 319.195 525.778Z" fill="#FDFDFD"/>
<path d="M264.981 494.4C265.44 494.569 265.887 494.771 266.317 495.003C266.824 495.392 267.215 495.911 267.448 496.506C267.681 497.1 267.748 497.747 267.641 498.376C268.061 498.174 268.434 497.887 268.738 497.534C269.041 497.18 269.268 496.768 269.404 496.322C269.75 495.311 269.99 494.267 270.122 493.207C270.241 492.463 270.297 491.501 269.759 490.897C269.392 490.485 268.909 490.444 268.48 490.198C267.8 489.807 267.315 488.94 266.761 488.247C265.564 486.751 263.861 485.989 262.499 486.341L262.692 486.302C262.23 486.708 262.207 487.718 262.643 488.438C263.04 489.093 263.729 489.489 263.979 490.222C264.338 491.275 263.51 492.181 263.87 493.234C264.073 493.753 264.472 494.172 264.981 494.4Z" fill="#FDFDFD"/>
<path d="M251.668 479.47C251.673 479.467 251.678 479.464 251.683 479.46C251.752 479.314 251.81 479.163 251.855 479.008L251.668 479.47Z" fill="#E6E6E6"/>
<path d="M254.726 483.848C255.307 483.015 255.169 481.43 254.423 480.362C253.682 479.301 252.441 478.894 251.683 479.459C251.54 479.809 251.31 480.118 251.015 480.355C250.721 480.592 250.37 480.75 249.997 480.815C249.418 480.896 248.7 480.786 248.409 481.367C248.271 481.769 248.235 482.199 248.306 482.618C248.351 483.203 248.395 483.788 248.44 484.373C248.436 484.591 248.5 484.804 248.622 484.984C248.687 485.05 248.767 485.098 248.856 485.123C248.944 485.149 249.038 485.151 249.128 485.13C250.259 485.012 251.39 484.893 252.52 484.775C253.345 484.688 254.224 484.57 254.726 483.848Z" fill="#FDFDFD"/>
<path d="M358.287 519.024C357.506 518.453 356.725 517.882 355.945 517.311C355.122 516.616 354.173 516.088 353.148 515.757C352.924 515.686 352.687 515.661 352.453 515.682C352.219 515.704 351.991 515.772 351.783 515.883C351.576 515.994 351.392 516.146 351.244 516.329C351.096 516.512 350.985 516.722 350.92 516.948L351.156 517.361C352.768 518.256 354.503 519.273 355.588 521.14C356.015 521.876 356.311 522.699 356.727 523.443C357.143 524.188 357.743 524.891 358.388 525.021C359.324 525.208 359.888 524.13 360.046 523.033C360.215 522.116 360.069 521.169 359.634 520.344C359.28 519.816 358.822 519.367 358.287 519.024Z" fill="#FDFDFD"/>
<path d="M367.016 481.328C366.786 480.389 366.557 479.449 366.327 478.51C366.146 477.449 365.759 476.433 365.189 475.52C365.062 475.321 364.898 475.15 364.705 475.015C364.511 474.881 364.293 474.787 364.063 474.738C363.833 474.689 363.595 474.687 363.364 474.731C363.132 474.775 362.913 474.866 362.717 474.996L362.632 475.464C363.289 477.187 363.961 479.082 363.588 481.209C363.442 482.048 363.138 482.868 362.977 483.705C362.816 484.543 362.822 485.467 363.232 485.981C363.827 486.728 364.953 486.266 365.781 485.529C366.5 484.935 366.999 484.117 367.196 483.206C367.266 482.574 367.204 481.935 367.016 481.328Z" fill="#E6E6E6"/>
<path d="M366.008 517.003C365.966 516.254 365.327 515.639 364.959 514.943C364.54 514.022 364.407 512.996 364.577 511.998C364.763 511.047 364.799 510.072 364.684 509.11C364.624 508.675 364.434 508.267 364.14 507.941C363.843 507.658 363.404 507.654 363.303 508.017L363.883 508.123C363.218 508.268 362.595 508.561 362.059 508.981C361.768 509.255 361.547 509.596 361.416 509.974C361.284 510.352 361.246 510.757 361.304 511.153C361.459 511.744 361.563 512.347 361.614 512.955C361.572 513.631 361.12 514.036 360.99 514.667C360.944 515.198 361.03 515.733 361.241 516.222C361.453 516.712 361.783 517.141 362.201 517.471C362.909 518.002 363.789 518.251 364.67 518.169C365.313 518.139 366.055 517.846 366.008 517.003Z" fill="#FDFDFD"/>
<path d="M380.648 515.564C381.068 516.008 381.545 516.394 382.066 516.712C382.948 517.083 383.636 516.348 384.329 515.884C384.971 515.493 385.707 515.282 386.458 515.275C387.209 515.268 387.949 515.464 388.598 515.843C387.701 514.501 386.496 513.394 385.083 512.615C383.67 511.835 382.091 511.406 380.478 511.364C378.396 511.372 376.489 512.076 374.608 512.775L374.322 512.989C376.117 515.028 378.658 513.918 380.648 515.564Z" fill="#FDFDFD"/>
<path d="M327.502 543.157L327.511 543.166C327.517 543.093 327.524 543.02 327.53 542.948L327.502 543.157Z" fill="#E6E6E6"/>
<path d="M327.103 547.796C326.994 548.756 326.959 549.722 326.998 550.687C327.151 552.213 327.458 553.719 327.912 555.184C328.143 556.028 328.534 557.066 329.198 557.25C329.382 557.286 329.573 557.254 329.735 557.16C329.898 557.066 330.02 556.916 330.08 556.738C330.237 556.328 330.326 555.893 330.342 555.454C330.628 553.344 330.645 551.206 330.391 549.091C330.049 546.895 329.075 544.545 327.511 543.166C327.375 544.71 327.239 546.253 327.103 547.796Z" fill="#FDFDFD"/>
<path d="M266.052 453.785C266.492 453.962 266.975 454.007 267.44 453.913C267.905 453.82 268.333 453.592 268.671 453.259C269.36 452.544 269.922 451.717 270.33 450.812C270.715 450.175 270.973 449.469 271.091 448.734C271.145 448.302 271.113 447.863 270.996 447.443C270.88 447.024 270.682 446.631 270.413 446.288C269.725 445.503 268.806 445.524 268.021 445.604C266.765 445.734 265.509 445.863 264.253 445.993L264.762 444.929C263.745 444.826 263.165 446.035 263.068 447.277C263.011 448.086 263.073 448.898 263.254 449.688C263.64 451.415 264.704 453.223 266.052 453.785Z" fill="#E6E6E6"/>
<path d="M283.077 439.005C283.536 439.223 284.06 439.258 284.544 439.103C285.028 438.948 285.434 438.615 285.681 438.171C285.9 437.803 286.038 437.394 286.088 436.968C286.137 436.543 286.096 436.113 285.968 435.704C285.685 434.791 284.846 433.992 284.193 434.173L283.995 433.29C282.709 433.567 281.217 434.131 281.175 435.85C281.188 436.497 281.371 437.128 281.704 437.682C282.038 438.236 282.512 438.692 283.077 439.005Z" fill="#E6E6E6"/>
<path d="M526.252 505.041C519.362 507.881 511.703 510.734 503.275 513.599C459.68 528.415 400.786 541.72 337.441 551.066C274.096 560.412 213.868 564.68 167.853 563.085C145.437 562.308 127.601 560.178 114.84 556.754C101.33 553.13 94.014 548.132 93.0946 541.9C91.3037 529.76 114.634 517.325 134.522 509.03L135.188 510.628C107.878 522.019 93.537 533.035 94.8078 541.648C96.426 552.617 123.072 559.8 167.913 561.355C213.827 562.946 273.944 558.684 337.189 549.353C400.433 540.022 459.219 526.742 502.718 511.96C545.199 497.523 568.636 482.951 567.017 471.981C565.673 462.873 547.073 456.308 514.641 453.495L514.791 451.77C538.356 453.814 566.843 458.936 568.73 471.729C569.65 477.96 564.088 484.858 552.201 492.229C545.424 496.431 536.74 500.717 526.252 505.041Z" fill="#665DF5"/>
<g clip-path="url(#clip0_2473_799)">
<path d="M357.142 53.6073L354.725 66.2927L366.774 69.6888L365.277 56.1457L357.142 53.6073Z" fill="#A0616A"/>
<path d="M286.044 316.196C286.044 316.595 286.364 316.915 286.763 316.915H602.325C602.723 316.915 603.044 316.595 603.044 316.196C603.044 315.798 602.723 315.477 602.325 315.477H286.763C286.364 315.477 286.044 315.798 286.044 316.196Z" fill="#3F3D56"/>
<path d="M501.158 143.955H376.895C362.803 143.955 351.38 155.376 351.38 169.464V289.935C351.38 304.024 362.803 315.445 376.895 315.445H501.158C515.249 315.445 526.673 304.024 526.673 289.935V169.464C526.673 155.376 515.249 143.955 501.158 143.955Z" fill="#FDFDFD"/>
<path d="M501.158 316.049H376.895C362.493 316.049 350.776 304.335 350.776 289.935V169.465C350.776 155.065 362.493 143.351 376.895 143.351H501.158C515.56 143.351 527.277 155.065 527.277 169.465V289.935C527.277 304.335 515.56 316.049 501.158 316.049ZM376.895 144.559C363.159 144.559 351.984 155.731 351.984 169.465V289.935C351.984 303.669 363.159 314.841 376.895 314.841H501.158C514.894 314.841 526.069 303.669 526.069 289.935V169.465C526.069 155.731 514.894 144.559 501.158 144.559L376.895 144.559Z" fill="#3F3D56"/>
<path d="M510.159 196.183H460.212C458.093 196.183 456.37 194.46 456.37 192.342C456.37 190.224 458.093 188.501 460.212 188.501H510.159C512.277 188.501 514.001 190.224 514.001 192.342C514.001 194.46 512.277 196.183 510.159 196.183Z" fill="#665DF5"/>
<path d="M463.302 226.391H414.751C413.527 226.391 412.531 225.395 412.531 224.172C412.531 222.948 413.527 221.953 414.751 221.953H463.302C464.526 221.953 465.522 222.948 465.522 224.172C465.522 225.395 464.526 226.391 463.302 226.391Z" fill="#665DF5"/>
<path d="M394.68 152.205H366.961C366.858 152.205 366.774 152.289 366.774 152.392V155.619C366.774 155.722 366.858 155.806 366.961 155.806H394.68C394.784 155.806 394.868 155.722 394.868 155.619V152.392C394.868 152.289 394.784 152.205 394.68 152.205Z" fill="#665DF5"/>
<path d="M488.046 155.806C489.637 155.806 490.928 154.516 490.928 152.925C490.928 151.334 489.637 150.044 488.046 150.044C486.455 150.044 485.165 151.334 485.165 152.925C485.165 154.516 486.455 155.806 488.046 155.806Z" fill="#3F3D56"/>
<path d="M495.97 155.806C497.561 155.806 498.851 154.516 498.851 152.925C498.851 151.334 497.561 150.044 495.97 150.044C494.379 150.044 493.089 151.334 493.089 152.925C493.089 154.516 494.379 155.806 495.97 155.806Z" fill="#3F3D56"/>
<path d="M503.894 155.806C505.485 155.806 506.775 154.516 506.775 152.925C506.775 151.334 505.485 150.044 503.894 150.044C502.302 150.044 501.012 151.334 501.012 152.925C501.012 154.516 502.302 155.806 503.894 155.806Z" fill="#3F3D56"/>
<path d="M376.592 238.271C376.592 238.67 376.913 238.99 377.311 238.99H500.741C501.14 238.99 501.46 238.67 501.46 238.271C501.46 237.873 501.14 237.553 500.741 237.553H377.311C376.913 237.553 376.592 237.873 376.592 238.271Z" fill="#3F3D56"/>
<path d="M414.236 60.9608C416.864 58.79 420.114 58.3859 421.496 60.0581C422.877 61.7303 421.867 64.845 419.238 67.0163C418.2 67.898 416.965 68.5183 415.638 68.8253L404.388 77.8826L400.25 72.5138L411.779 64.1549C412.332 62.9093 413.174 61.814 414.236 60.9608Z" fill="#A0616A"/>
<path d="M349.213 81.3963C349.208 80.9958 349.211 77.5018 351.798 75.2935C354.77 72.7567 358.964 73.7835 360.435 74.1436C363.833 74.9755 364.111 76.4328 367.302 77.9301C373.272 80.7314 365.792 79.2976 369.344 78.3993C370.574 78.0884 388.263 76.8619 392.666 74.1524C401.229 68.8828 407.064 65.6873 407.064 65.6873L410.878 73.3145C410.878 73.3145 405.363 80.9823 397.6 86.6627C389.637 92.4895 385.656 95.4029 379.605 96.5286C379.084 96.6255 366.27 98.8131 355.948 91.1035C353.594 89.345 349.28 86.123 349.213 81.3963Z" fill="#E6E6E6"/>
<path d="M361.046 61.9987C368.384 61.9987 374.333 56.0507 374.333 48.7136C374.333 41.3765 368.384 35.4285 361.046 35.4285C353.707 35.4285 347.758 41.3765 347.758 48.7136C347.758 56.0507 353.707 61.9987 361.046 61.9987Z" fill="#A0616A"/>
<path d="M465.11 137.968L451.426 123.963L444.362 131.33L454.557 144.758L464.67 145.915L465.11 137.968Z" fill="#A0616A"/>
<path d="M386.971 111.705C387.771 111.772 390.315 112.281 392.746 110.944C394.405 110.031 395.256 108.674 395.544 108.243C399.109 102.889 412.795 94.5399 425.077 94.0261C427.858 93.9097 429.689 94.232 431.353 95.0992C433.713 96.3289 434.655 98.0904 437.649 102.217C439.287 104.474 441.099 106.601 442.757 108.843C452.461 121.973 456.14 123.004 455.764 127.214C455.347 131.884 450.309 136.315 446.96 135.804C445.589 135.594 445.058 134.641 443.226 132.711C437.854 127.052 435.632 128.098 431.807 123.763C427.342 118.703 427.926 114.507 425.597 114.345C423.436 114.195 422.518 117.774 417.906 122.529C415.795 124.705 414.292 125.703 409.714 128.879C391.884 141.246 391.599 142.115 388.001 143.101C386.427 143.533 375.253 146.596 371.272 141.721C365.044 134.094 379.759 111.106 386.971 111.705Z" fill="#2F2E41"/>
<path d="M460.926 141.133C461.933 140.681 463.11 140.153 463.488 138.938C463.745 138.115 463.597 137.102 463.067 136.401C462.456 135.593 461.552 135.487 461.589 135.344C461.644 135.126 463.783 135.211 466.13 136.041C466.573 136.197 468.58 136.931 471.133 138.923C473.179 140.52 472.903 140.84 474.186 141.76C478.123 144.586 481.816 142.359 483.946 145.009C484.768 146.032 485.119 147.484 484.773 148.658C484.078 151.016 480.699 151.827 478.852 152.246C474.405 153.255 471.038 152.431 467.523 151.839C455.568 149.825 448.851 151.659 447.952 148.89C447.782 148.366 448.058 148.411 448.98 144.565C449.89 140.769 449.86 139.727 450.635 139.423C451.801 138.965 452.584 141.046 455.522 141.759C458.126 142.39 460.274 141.425 460.926 141.133Z" fill="#2F2E41"/>
<path d="M440.781 183.783L437.324 164.512L427.341 166.642L428.235 183.477L435.954 190.112L440.781 183.783Z" fill="#A0616A"/>
<path d="M390.875 118.183C391.5 118.687 393.319 120.537 396.081 120.795C397.967 120.972 399.433 120.327 399.913 120.131C405.871 117.702 421.884 118.477 432.336 124.948C434.702 126.413 436.036 127.708 436.926 129.359C438.188 131.702 437.978 133.688 438.138 138.784C438.226 141.571 438.531 144.348 438.643 147.134C439.298 163.447 441.763 166.366 439.088 169.638C436.12 173.268 429.462 174.106 426.979 171.803C425.962 170.859 426.058 169.772 425.626 167.147C424.359 159.449 421.933 159.066 421.202 153.332C420.35 146.638 423.19 143.495 421.353 142.053C419.65 140.715 416.88 143.162 410.393 144.507C407.425 145.122 405.621 145.104 400.048 145.162C378.349 145.384 377.625 145.944 374.094 144.74C372.549 144.213 361.583 140.474 361.027 134.206C360.157 124.398 385.244 113.638 390.875 118.183Z" fill="#2F2E41"/>
<path d="M435.542 184.053C436.628 184.244 437.899 184.468 438.895 183.675C439.568 183.139 440.016 182.217 439.971 181.34C439.919 180.328 439.231 179.733 439.341 179.635C439.51 179.486 441.231 180.757 442.708 182.761C442.986 183.14 444.235 184.873 445.229 187.955C446.024 190.425 445.617 190.535 446.161 192.017C447.832 196.565 452.138 196.796 452.413 200.184C452.518 201.492 451.993 202.891 451.047 203.668C449.148 205.229 445.896 204.003 444.133 203.313C439.886 201.651 437.563 199.079 434.987 196.615C426.226 188.237 419.638 185.984 420.449 183.188C420.603 182.659 420.806 182.851 423.729 180.186C426.614 177.556 427.175 176.677 427.986 176.86C429.208 177.136 428.688 179.298 430.719 181.537C432.518 183.521 434.838 183.929 435.542 184.053Z" fill="#2F2E41"/>
<path d="M362.857 51.2533C363.375 49.4032 362.725 48.729 363.387 47.8986C363.387 47.8986 363.654 47.5644 366.036 46.6626C365.333 42.5849 365.859 41.8954 365.859 41.8954C366.466 41.1007 367.681 40.9086 368.508 41.0126C370.258 41.2324 370.568 42.8137 371.687 42.7782C373.234 42.7292 375.089 39.6341 374.513 36.9516C374.043 34.7633 372.018 33.1383 371.511 33.4203C371.007 33.6999 369.196 32.467 368.508 32.714C368.039 32.8827 365.83 32.6583 365.33 32.8906C364.783 33.1443 363.216 34.7238 363.067 34.5248C362.026 33.1418 362.048 32.659 361.444 32.3609C360.375 31.8327 359.212 32.8089 357.206 33.7734C353.08 35.7578 351.871 34.5741 349.965 36.2453C349.003 37.0895 348.486 38.703 347.493 41.8954C346.104 46.3599 345.409 48.5922 346.08 50.7236C346.764 52.8973 347.772 52.4242 349.259 55.4909C350.914 58.9046 350.344 60.8888 351.908 61.6706C353.117 62.2748 355.06 61.8903 355.793 60.7878C357.049 58.9002 353.803 56.3468 354.91 53.3721C355.59 51.5461 357.686 50.1615 358.972 50.5471C360.426 50.983 360.533 53.589 361.444 53.5486C362.225 53.5141 362.767 51.5757 362.857 51.2533Z" fill="#2F2E41"/>
<path d="M352.791 63.9659C355.51 60.9177 366.586 64.0727 367.625 68.9097C368.053 70.8993 366.474 71.7393 366.919 74.0301C367.569 77.3807 371.25 77.1523 373.983 80.563C377.862 85.4052 373.866 90.1386 378.221 98.2195C379.152 99.9462 379.937 101.402 381.577 102.81C385.341 106.042 388.843 104.934 390.76 107.931C392.193 110.172 391.604 112.934 391.466 113.581C390.901 116.234 389.368 116.88 388.288 119.054C386.49 122.671 388.525 125.326 388.641 129.648C388.785 135.055 385.911 142.55 380.164 145.009C373.707 147.772 365.919 143.196 362.151 138.653C359.902 135.942 359.249 133.441 358.266 130.354C353.869 116.559 351.385 117.807 348.023 106.871C344.179 94.3699 343.423 79.724 348.023 75.0895C348.632 74.4752 350.31 73.0554 351.378 70.4988C352.815 67.0586 351.574 65.3304 352.791 63.9659Z" fill="#E6E6E6"/>
<path d="M392.969 134.924C395.077 137.602 395.404 140.86 393.699 142.201C391.994 143.542 388.904 142.458 386.795 139.779C385.938 138.72 385.347 137.472 385.072 136.138L376.283 124.678L380.824 121.215L389.834 132.392C391.066 132.974 392.141 133.842 392.969 134.924Z" fill="#A0616A"/>
<path d="M360.78 75.5828C361.171 75.4955 364.593 74.7863 367.284 76.8679C370.374 79.2591 370.224 83.5732 370.172 85.0863C370.05 88.5816 368.68 89.1517 367.865 92.5803C366.34 98.9948 369.244 104.956 370.849 108.249C371.404 109.389 373.188 112.878 376.74 116.635C383.647 123.941 389.81 127.786 389.81 127.786L383.189 133.669C383.189 133.669 372.643 130.456 365.497 124.017C358.167 117.412 346.894 94.0436 344.558 88.3511C344.356 87.8609 347.207 95.8307 352.65 84.1555C353.891 81.4924 356.166 76.6131 360.78 75.5828Z" fill="#E6E6E6"/>
<path d="M451.558 254.727C447.35 255.372 444.272 258.066 444.683 260.743C445.094 263.421 448.838 265.068 453.048 264.422C454.733 264.187 456.337 263.552 457.726 262.571L475.522 259.613L474.335 252.58L456.579 255.092C454.958 254.571 453.237 254.446 451.558 254.727Z" fill="#FFB6B6"/>
<path d="M528.245 232.805L521.345 247.444L486.655 259.12L457.87 260.655L457.149 253.743L488.346 247.221L520.357 232.097L528.245 232.805Z" fill="#E6E6E6"/>
<path d="M464.265 288.392L458.07 304.059L450.052 298.593L454.79 282.198L464.265 288.392Z" fill="#FFB6B6"/>
<path d="M438.391 282.562L421.992 298.229L428.552 305.152L445.315 292.035L438.391 282.562Z" fill="#FFB6B6"/>
<path d="M531.318 231.553L531.136 230.278L526.945 222.08L513.097 225.724L515.648 237.019L531.318 231.553Z" fill="#FFB6B6"/>
<path d="M525.488 286.206L525.914 291.678C525.914 291.678 527.674 314.625 513.462 316.446C499.249 318.268 493.054 320.09 484.672 305.88L471.553 282.562L463.89 291.678L453.697 283.655C453.697 283.655 460.985 255.236 466.816 254.143C467.545 254.006 468.274 253.938 468.991 253.923C473.818 253.822 478.368 256.183 481.257 260.051L497.792 282.198L503.805 279.465L525.488 286.206Z" fill="#2F2E41"/>
<path d="M446.773 303.33L450.053 297.136L459.527 303.694C459.527 303.694 461.714 311.71 458.434 312.803C455.154 313.896 446.044 312.439 446.044 312.439C446.044 312.439 429.28 316.082 428.916 312.803C428.552 309.524 436.569 308.795 436.569 308.795L446.773 303.33Z" fill="#2F2E41"/>
<path d="M482.486 298.958L457.159 283.002L444.222 294.586L435.476 284.384C435.476 284.384 451.51 260.701 456.248 259.608C460.985 258.515 468.638 257.786 468.638 257.786L491.961 279.283L482.486 298.958Z" fill="#2F2E41"/>
<path d="M421.628 296.772L430.009 305.88L428.904 306.826C428.904 306.826 426.73 316.294 421.628 313.091C416.526 309.888 416.161 309.159 416.161 309.159C416.161 309.159 401.585 312.439 400.127 306.609C398.669 300.779 402.678 301.872 402.678 301.872L406.318 304.059L421.628 296.772Z" fill="#2F2E41"/>
<path d="M517.47 229.732C523.911 229.732 529.132 224.512 529.132 218.072C529.132 211.633 523.911 206.413 517.47 206.413C511.03 206.413 505.809 211.633 505.809 218.072C505.809 224.512 511.03 229.732 517.47 229.732Z" fill="#FFB6B6"/>
<path d="M514.737 234.65L531.501 229.549C531.501 229.549 538.06 244.852 536.967 251.775C535.874 258.697 525.914 291.678 525.914 291.678L503.805 279.465C503.805 279.465 503.44 272.178 502.347 268.899C501.254 265.62 497.792 255.6 505.444 247.22C513.097 238.84 514.737 234.65 514.737 234.65Z" fill="#E6E6E6"/>
<path d="M477.842 311.157C475.114 314.424 474.589 318.48 476.669 320.216C478.75 321.952 482.647 320.709 485.376 317.44C486.484 316.149 487.266 314.611 487.658 312.956L499.042 298.964L493.497 294.478L481.848 308.109C480.288 308.79 478.915 309.835 477.842 311.157Z" fill="#FFB6B6"/>
<path d="M527.595 242.001L531.558 257.692L512.165 288.729L492.368 308.621L485.951 303.299L505.917 278.462L521.051 246.46L527.595 242.001Z" fill="#E6E6E6"/>
<path d="M506.72 216.069C509.711 216.061 509.88 216.081 510.364 216.069C514.074 215.971 515.044 214.512 516.924 214.611C520.28 214.789 515.85 231.61 514.008 239.387C512.202 247.014 518.307 253.848 518.746 254.325C524.943 261.063 535.828 262.295 537.696 259.426C539.208 257.103 533.85 253.572 535.145 248.496C536.411 243.533 542.257 244.062 543.891 239.387C545.602 234.491 539.851 232.022 536.238 220.076C534.163 213.216 534.53 211.938 532.594 207.689C527.418 196.331 502.05 201.167 504.898 211.696C505.449 213.733 503.983 216.075 506.72 216.069Z" fill="#2F2E41"/>
<path d="M543.958 77.6595H421.398C417.932 77.6595 415.112 74.8402 415.112 71.3751V6.28442C415.112 2.81939 417.932 0 421.398 0H543.958C547.424 0 550.243 2.81938 550.243 6.28442V71.3751C550.243 74.8402 547.424 77.6595 543.958 77.6595Z" fill="#FDFDFD"/>
<path d="M543.958 77.6595H421.398C417.932 77.6595 415.112 74.8402 415.112 71.3751V6.28442C415.112 2.81939 417.932 0 421.398 0H543.958C547.424 0 550.243 2.81938 550.243 6.28442V71.3751C550.243 74.8402 547.424 77.6595 543.958 77.6595ZM421.398 1.04945C418.511 1.04945 416.162 3.39791 416.162 6.28442V71.3751C416.162 74.2616 418.511 76.6101 421.398 76.6101H543.958C546.845 76.6101 549.194 74.2616 549.194 71.3751V6.28442C549.194 3.39791 546.845 1.04945 543.958 1.04945H421.398Z" fill="#3F3D56"/>
<path d="M534.499 7.87089C535.368 7.87089 536.073 7.16611 536.073 6.29671C536.073 5.42732 535.368 4.72253 534.499 4.72253C533.629 4.72253 532.924 5.42732 532.924 6.29671C532.924 7.16611 533.629 7.87089 534.499 7.87089Z" fill="#3F3D56"/>
<path d="M538.697 7.87089C539.567 7.87089 540.272 7.16611 540.272 6.29671C540.272 5.42732 539.567 4.72253 538.697 4.72253C537.828 4.72253 537.123 5.42732 537.123 6.29671C537.123 7.16611 537.828 7.87089 538.697 7.87089Z" fill="#3F3D56"/>
<path d="M542.896 7.87089C543.765 7.87089 544.47 7.16611 544.47 6.29671C544.47 5.42732 543.765 4.72253 542.896 4.72253C542.026 4.72253 541.321 5.42732 541.321 6.29671C541.321 7.16611 542.026 7.87089 542.896 7.87089Z" fill="#3F3D56"/>
<path d="M424.034 31.746C423.6 31.746 423.247 32.099 423.247 32.5331C423.247 32.7447 423.329 32.9404 423.477 33.0849C423.627 33.2382 423.823 33.3201 424.034 33.3201H541.846C542.28 33.3201 542.633 32.9671 542.633 32.5331C542.633 32.3214 542.552 32.1257 542.403 31.9812C542.254 31.828 542.058 31.746 541.846 31.746H424.034Z" fill="#E6E6E6"/>
<path d="M527.151 31.4836V33.5825H424.034C423.746 33.5825 423.483 33.467 423.294 33.2729C423.1 33.084 422.984 32.8216 422.984 32.533C422.984 31.9558 423.457 31.4836 424.034 31.4836H527.151Z" fill="#665DF5"/>
<path d="M540.534 27.5482H530.037C528.88 27.5482 527.938 26.6068 527.938 25.4493C527.938 24.2917 528.88 23.3503 530.037 23.3503H540.534C541.692 23.3503 542.633 24.2917 542.633 25.4493C542.633 26.6068 541.692 27.5482 540.534 27.5482Z" fill="#E6E6E6"/>
<path d="M471.781 16.5289H424.821C423.664 16.5289 422.722 15.5875 422.722 14.43C422.722 13.2724 423.664 12.3311 424.821 12.3311H471.781C472.939 12.3311 473.88 13.2724 473.88 14.43C473.88 15.5875 472.939 16.5289 471.781 16.5289Z" fill="#E6E6E6"/>
<path d="M424.034 55.3586C423.6 55.3586 423.247 55.7117 423.247 56.1457C423.247 56.3574 423.329 56.5531 423.477 56.6976C423.627 56.8508 423.823 56.9328 424.034 56.9328H541.846C542.28 56.9328 542.633 56.5798 542.633 56.1457C542.633 55.9341 542.552 55.7384 542.403 55.5939C542.254 55.4406 542.058 55.3586 541.846 55.3586H424.034Z" fill="#E6E6E6"/>
<path d="M486.739 55.0963V57.1952H424.034C423.746 57.1952 423.483 57.0798 423.294 56.8856C423.1 56.6967 422.984 56.4344 422.984 56.1458C422.984 55.5685 423.457 55.0963 424.034 55.0963H486.739Z" fill="#665DF5"/>
<path d="M540.534 51.1608H530.037C528.88 51.1608 527.938 50.2195 527.938 49.0619C527.938 47.9043 528.88 46.963 530.037 46.963H540.534C541.692 46.963 542.633 47.9043 542.633 49.0619C542.633 50.2195 541.692 51.1608 540.534 51.1608Z" fill="#E6E6E6"/>
</g>
<defs>
<clipPath id="clip0_2473_799">
<rect width="317" height="321" fill="white" transform="translate(286.044)"/>
</clipPath>
</defs>
</svg>
