<svg width="388" height="495" viewBox="0 0 388 495" fill="none" xmlns="http://www.w3.org/2000/svg">
<path fill-rule="evenodd" clip-rule="evenodd" d="M99.1166 0C92.3246 0.448565 85.6914 0.813743 79.0638 1.34224C70.0061 2.0657 61.4485 6.17007 53.0568 11.2452C50.0239 13.0797 47.0009 15.0005 44.0699 17.2002C28.4741 28.9066 16.0689 46.1269 7.61395 70.0469C3.58412 81.4479 1.46637 93.8197 0.538462 106.694C-0.875324 126.305 0.534076 145.596 4.30454 164.289C7.95663 182.398 13.9786 198.595 21.9144 213.013C26.2445 220.881 31.028 227.909 36.3375 234.085C44.5079 243.59 52.6505 253.153 60.8399 262.617C63.0855 265.213 65.4893 267.467 67.7583 270.014C70.4054 272.986 73.0996 275.894 75.5725 279.202C86.4425 293.742 91.717 312.224 91.0368 334.764C90.7979 342.696 90.4662 350.621 90.2905 358.556C90.1188 366.322 91.6275 373.361 94.2757 379.877C95.5101 382.915 97.0357 385.47 98.7892 387.752C104.478 395.158 110.91 400.516 117.741 404.742C127.97 411.07 138.556 415.327 149.396 418.102C157.195 420.098 165.022 421.676 172.911 422.483C182.734 423.487 192.558 423.297 202.371 422.313C214.765 421.069 227.075 418.63 239.316 415.334C250.303 412.374 261.28 409.311 272.076 404.901C284.41 399.862 296.636 394.252 308.327 386.131C315.278 381.303 321.848 375.452 327.744 367.832C334.439 359.18 339.16 348.438 341.801 335.415C343.124 328.894 343.266 322.229 342.758 315.565C341.485 298.861 338.355 283.122 332.531 268.854C329.678 261.863 326.215 255.683 322.522 249.795C319.069 244.291 315.527 238.919 312.167 233.278C310.085 229.781 308.175 226.001 306.353 222.154C301.936 212.825 300.714 202.37 301.954 190.963C302.59 185.106 303.076 179.155 303.195 173.225C303.471 159.535 300.953 146.832 297.127 134.679C293.91 124.462 289.599 115.495 284.614 107.29C269.434 82.3048 251.967 62.3402 231.909 48.1494C215.748 36.715 199.416 25.923 182.618 16.9874C173.6 12.1906 164.315 9.06906 154.891 7.17129C144.627 5.10444 134.345 3.13765 124.035 1.77816C115.708 0.680324 107.329 0.54978 99.1166 0Z" fill="white"/>
<path d="M254.565 352.918C258.185 361.694 260.04 371.097 260.025 380.591C260.01 390.084 258.125 399.481 254.478 408.246C250.83 417.01 245.491 424.97 238.767 431.671C232.042 438.372 224.063 443.682 215.286 447.298C178.377 462.514 136.121 444.927 120.906 408.019C117.94 400.842 116.15 393.235 115.605 385.488C114.565 370.35 118.309 355.268 126.309 342.375C134.309 329.481 146.16 319.429 160.185 313.639C172.282 308.647 185.507 307.034 198.449 308.972C211.391 310.91 223.564 316.326 233.669 324.641C236.169 326.69 238.526 328.907 240.726 331.275C241.031 331.606 241.333 331.937 241.633 332.274L241.634 332.278C242.96 333.755 244.226 335.295 245.432 336.898C249.148 341.826 252.217 347.21 254.565 352.918Z" fill="#3F3D56"/>
<path d="M161.836 338.394C158.163 338.008 154.451 338.466 150.982 339.732C147.513 340.999 144.379 343.041 141.819 345.703C139.561 348.036 137.548 351.379 138.23 355.638C141.04 351.916 147.274 353.397 150.52 358.557L150.322 358.711C151.403 362.766 154.257 366.491 157.422 367.977C156.686 365.381 157.621 363.023 158.789 361.309C159.957 359.594 161.415 358.098 161.891 355.783C162.456 353.038 161.531 349.749 160.927 346.649C160.324 343.55 160.148 340.023 161.836 338.394Z" fill="#FDFDFD"/>
<path d="M154.547 379.703C154.155 381.672 153.181 383.207 152.446 384.922C151.716 386.639 151.22 388.755 151.84 390.953C152.238 392.362 153.042 393.628 153.569 395.001C154.096 396.374 154.274 398.09 153.488 398.809C152.247 399.938 150.015 397.687 148.437 398.116C147.184 398.458 146.884 400.776 147.9 402.26C148.916 403.743 150.835 403.795 151.329 402.349C152.755 403.416 153.219 406.226 152.132 407.183C152.366 408.129 152.598 409.071 152.835 410.016C148.712 409.096 144.54 408.154 140.467 405.997C135.95 403.63 132.243 399.966 129.823 395.477C127.917 391.854 126.663 387.328 123.738 385.142C121.396 383.392 118.809 383.859 116.73 384.886C116.351 385.072 115.976 385.279 115.606 385.488C115.305 381.18 115.396 376.854 115.876 372.563C116.234 372.197 116.535 371.778 116.768 371.322C118.061 368.812 117.535 365.029 118.175 361.998C118.217 361.803 118.263 361.61 118.315 361.419C119.078 358.581 120.833 356.559 122.546 354.645C126.332 350.395 130.244 346.059 135.373 344.318L134.007 345.042C134.264 350.374 134.52 355.707 134.774 361.041C134.815 361.858 134.855 362.677 134.892 363.499C135.039 366.531 135.226 369.746 136.591 372.645C137.399 374.363 138.779 375.983 140.185 376.107C141.495 376.218 142.394 375.048 143.159 373.943C143.485 373.478 143.806 373.016 144.13 372.548C145.295 370.873 146.619 369.102 148.575 369.095C150.366 369.086 152.357 370.703 153.498 372.86C154.596 374.962 154.965 377.369 154.547 379.703Z" fill="#FDFDFD"/>
<path d="M177.058 407.552C171.253 406.61 165.447 405.668 159.642 404.725L159.637 404.491C157.21 406.774 158.125 412.384 160.325 416.373C162.526 420.361 165.682 423.437 168.178 427.179C171.577 432.306 173.542 438.249 173.869 444.392C177.141 435.051 179.468 425.405 180.816 415.599C181.049 414.337 181.091 413.048 180.941 411.773C180.734 410.437 180.087 408.995 179.096 408.263C178.486 407.86 177.786 407.616 177.058 407.552Z" fill="#FDFDFD"/>
<path d="M137.404 363.22C137.368 364.528 137.786 366.08 138.704 367.04C139.641 368.02 140.822 368.151 141.89 368.225L144.971 368.438C145.996 368.509 147.089 368.557 147.814 367.852C148.688 367.002 148.737 365.063 147.921 363.617C147.053 362.079 145.572 361.385 144.236 360.825C142.366 360.041 140.496 359.258 138.626 358.474L138.257 359.694C137.775 360.813 137.487 362.005 137.404 363.22Z" fill="#FDFDFD"/>
<path d="M234.604 343.42C235.867 343.217 237.129 343.013 238.392 342.81C239.794 346.78 239.35 351.172 237.303 353.54C236.45 354.526 235.334 355.221 234.86 356.602C234.434 357.855 234.617 359.456 234.806 360.981C235.135 363.643 235.463 366.305 235.792 368.967C236.149 371.834 236.423 375.07 234.972 376.754C233.726 378.202 231.523 377.967 229.638 376.829C227.753 375.691 226.106 373.794 224.505 371.943C225.514 374.264 225.372 377.007 224.166 378.455C222.957 379.905 220.775 379.944 218.995 378.554C217.715 377.557 216.698 375.965 215.425 374.943C214.153 373.922 212.315 373.793 212.031 375.361C211.848 376.401 212.435 377.636 212.606 378.79C212.872 380.583 212.068 382.109 210.891 382.699C209.717 383.287 208.249 383.075 206.845 382.546C203.946 381.448 201.123 378.972 199.1 375.762C198.201 374.329 197.435 372.682 197.297 371.049C197.158 369.417 197.801 367.848 199.01 367.672C199.103 365.852 196.848 364.419 195.64 365.125C194.429 365.833 193.991 367.625 193.373 369.118C192.758 370.609 191.605 371.984 190.114 371.369C190.524 372.343 189.995 373.316 189.275 373.518C188.56 373.722 187.724 373.423 186.936 373.292C183.889 372.78 181.224 375.052 180.68 378.621C179.868 373.595 179.278 367.687 182.143 365.247C183.312 364.248 184.936 364.004 185.898 362.713C187.6 360.426 185.946 355.117 183.122 353.81C184.195 355.705 185.108 358.056 184.616 359.857C184.125 361.658 181.545 361.68 180.846 359.605C181.116 361.122 179.688 361.959 178.549 361.177C177.407 360.397 176.745 358.624 176.716 357.142C176.687 355.659 177.156 354.393 177.613 353.175C178.598 350.558 179.599 347.908 181.151 345.879C182.707 343.847 184.903 342.473 187.44 342.809C188.777 342.987 190.156 343.635 191.485 343.73C192.816 343.828 194.187 343.181 194.385 341.587C194.612 339.808 193.344 337.829 192.907 335.903C192.141 332.496 194.709 329.695 197.338 331.07C195.881 331.275 195.161 333.396 195.777 335.353C196.389 337.312 198.13 338.827 199.643 338.872C202.181 338.938 203.296 335.681 204.007 332.799C204.745 329.784 205.486 326.77 206.229 323.756C206.338 323.25 206.49 322.754 206.683 322.274C207.001 321.537 207.588 320.948 208.324 320.626C209.06 320.305 209.891 320.276 210.648 320.544C212.94 321.237 214.929 323.775 217.151 325.17C220.376 327.198 223.719 326.636 226.793 326.021C229.082 325.559 231.375 325.099 233.669 324.641C236.169 326.69 238.527 328.906 240.726 331.275C237.761 334.283 235.622 338.505 234.604 343.42Z" fill="#FDFDFD"/>
<path d="M259.873 385.267C259.614 389.153 259.04 393.011 258.157 396.803C256.585 396.783 255.569 398.396 254.713 399.87C253.819 401.411 252.651 403.035 250.934 402.674C249.179 402.303 247.658 399.868 247.236 397.613C246.817 395.363 247.221 393.267 247.626 391.267C248.054 389.145 248.534 386.927 249.816 385.643C251.102 384.357 253.472 384.448 254.834 386.467L255.918 385.977C254.953 385.384 254.553 383.499 255.254 382.849C256.06 382.096 257.428 383.065 258.47 383.991C258.938 384.41 259.412 384.832 259.873 385.267Z" fill="#FDFDFD"/>
<path d="M211.318 386.936C209.017 388.058 205.948 385.921 203.525 383.573C201.102 381.225 198.619 378.421 195.887 377.844C194.326 377.514 192.891 377.972 191.404 378.113C189.916 378.255 188.19 377.991 186.858 376.552L185.11 376.564C183.59 378.493 182.052 380.452 181.093 382.966C180.018 385.786 179.901 388.881 180.759 391.775C181.709 394.892 184.144 397.801 186.584 398.113C188.511 398.36 190.097 397.05 192.014 397.213C194.409 397.417 196.801 399.892 198.448 402.63C200.096 405.367 201.235 408.449 202.77 411.272C204.306 414.095 206.448 416.807 208.883 417.574C211.93 418.534 214.607 415.589 214.203 411.722C214.004 409.825 213.2 407.923 212.85 406.014C212.232 402.651 213.059 399.626 213.42 396.51C213.78 393.395 213.467 389.494 211.318 386.936Z" fill="#FDFDFD"/>
<path d="M175.452 366.176C175.756 366.288 176.051 366.422 176.336 366.576C176.672 366.833 176.93 367.176 177.084 367.57C177.239 367.963 177.283 368.391 177.212 368.807C177.49 368.673 177.737 368.484 177.938 368.25C178.139 368.016 178.289 367.743 178.379 367.448C178.607 366.779 178.766 366.089 178.853 365.387C178.932 364.895 178.97 364.258 178.614 363.859C178.371 363.587 178.051 363.56 177.767 363.397C177.317 363.138 176.996 362.565 176.63 362.106C175.838 361.116 174.712 360.612 173.81 360.845L173.938 360.819C173.632 361.088 173.617 361.756 173.905 362.232C174.168 362.666 174.624 362.928 174.79 363.412C175.027 364.109 174.479 364.708 174.718 365.405C174.852 365.749 175.115 366.026 175.452 366.176Z" fill="#FDFDFD"/>
<path d="M166.645 356.299C166.648 356.296 166.651 356.295 166.654 356.292C166.7 356.196 166.738 356.096 166.768 355.994L166.645 356.299Z" fill="#E6E6E6"/>
<path d="M168.668 359.196C169.052 358.645 168.961 357.596 168.468 356.889C167.977 356.187 167.156 355.918 166.655 356.292C166.56 356.524 166.408 356.728 166.213 356.885C166.018 357.041 165.786 357.146 165.54 357.189C165.156 357.242 164.681 357.17 164.489 357.554C164.397 357.82 164.374 358.104 164.42 358.382C164.45 358.769 164.479 359.156 164.509 359.543C164.507 359.687 164.549 359.828 164.63 359.947C164.672 359.991 164.726 360.022 164.784 360.039C164.843 360.056 164.905 360.058 164.964 360.044C165.712 359.965 166.461 359.887 167.209 359.809C167.754 359.752 168.336 359.673 168.668 359.196Z" fill="#FDFDFD"/>
<path d="M237.181 382.467C236.664 382.089 236.148 381.712 235.631 381.334C235.087 380.874 234.459 380.525 233.781 380.306C233.633 380.259 233.476 380.242 233.321 380.256C233.166 380.271 233.016 380.316 232.878 380.389C232.741 380.463 232.62 380.563 232.521 380.684C232.423 380.805 232.35 380.944 232.307 381.094L232.463 381.367C233.53 381.959 234.677 382.632 235.395 383.867C235.678 384.354 235.874 384.898 236.149 385.391C236.424 385.884 236.821 386.349 237.248 386.434C237.867 386.559 238.24 385.845 238.345 385.119C238.456 384.512 238.36 383.886 238.072 383.341C237.838 382.991 237.535 382.694 237.181 382.467Z" fill="#FDFDFD"/>
<path d="M242.956 357.529C242.804 356.907 242.652 356.286 242.5 355.664C242.38 354.962 242.124 354.29 241.747 353.686C241.663 353.554 241.555 353.441 241.427 353.352C241.299 353.263 241.154 353.201 241.002 353.168C240.85 353.136 240.692 353.135 240.54 353.164C240.387 353.193 240.241 353.253 240.111 353.34L240.055 353.649C240.49 354.789 240.935 356.043 240.688 357.45C240.591 358.005 240.39 358.547 240.284 359.101C240.177 359.655 240.181 360.267 240.452 360.607C240.846 361.101 241.591 360.795 242.139 360.307C242.614 359.915 242.944 359.374 243.075 358.771C243.121 358.353 243.08 357.93 242.956 357.529Z" fill="#E6E6E6"/>
<path d="M242.289 381.13C242.261 380.635 241.838 380.227 241.595 379.767C241.318 379.158 241.23 378.479 241.343 377.819C241.465 377.19 241.489 376.545 241.413 375.908C241.373 375.62 241.248 375.351 241.053 375.135C240.857 374.948 240.566 374.945 240.499 375.185L240.883 375.255C240.443 375.351 240.031 375.545 239.676 375.823C239.484 376.005 239.338 376.23 239.251 376.48C239.164 376.73 239.138 376.998 239.177 377.26C239.279 377.651 239.348 378.05 239.382 378.452C239.354 378.899 239.055 379.167 238.969 379.585C238.939 379.936 238.996 380.29 239.136 380.614C239.275 380.937 239.494 381.221 239.771 381.44C240.239 381.791 240.821 381.956 241.404 381.901C241.829 381.882 242.32 381.687 242.289 381.13Z" fill="#FDFDFD"/>
<path d="M251.975 380.178C252.253 380.472 252.568 380.727 252.912 380.938C253.496 381.183 253.951 380.697 254.41 380.39C254.835 380.131 255.321 379.992 255.818 379.987C256.315 379.982 256.805 380.112 257.234 380.363C256.641 379.475 255.844 378.743 254.909 378.227C253.974 377.711 252.929 377.427 251.862 377.399C250.485 377.405 249.223 377.87 247.979 378.333L247.789 378.474C248.977 379.823 250.658 379.089 251.975 380.178Z" fill="#FDFDFD"/>
<path d="M216.814 398.432L216.82 398.437C216.824 398.39 216.828 398.342 216.832 398.295L216.814 398.432Z" fill="#E6E6E6"/>
<path d="M216.55 401.502C216.478 402.137 216.455 402.776 216.481 403.415C216.582 404.424 216.785 405.421 217.086 406.389C217.238 406.948 217.497 407.635 217.937 407.756C218.058 407.78 218.185 407.759 218.292 407.697C218.399 407.635 218.48 407.535 218.52 407.418C218.624 407.146 218.682 406.859 218.693 406.568C218.883 405.172 218.894 403.758 218.726 402.359C218.499 400.906 217.855 399.351 216.82 398.439C216.73 399.46 216.64 400.481 216.55 401.502Z" fill="#FDFDFD"/>
<path d="M176.161 339.307C176.452 339.424 176.771 339.454 177.079 339.392C177.387 339.33 177.67 339.179 177.893 338.959C178.349 338.486 178.721 337.939 178.991 337.34C179.246 336.918 179.416 336.452 179.494 335.965C179.53 335.679 179.509 335.389 179.432 335.111C179.355 334.834 179.224 334.574 179.046 334.347C178.59 333.828 177.983 333.841 177.464 333.895C176.633 333.98 175.802 334.066 174.971 334.152L175.307 333.448C174.634 333.38 174.251 334.18 174.187 335.001C174.149 335.536 174.19 336.074 174.31 336.596C174.565 337.739 175.269 338.935 176.161 339.307Z" fill="#E6E6E6"/>
<path d="M187.424 329.529C187.728 329.673 188.075 329.696 188.395 329.594C188.715 329.491 188.984 329.271 189.147 328.977C189.292 328.734 189.383 328.463 189.416 328.181C189.449 327.9 189.422 327.615 189.337 327.345C189.149 326.741 188.594 326.213 188.162 326.332L188.032 325.748C187.18 325.931 186.194 326.305 186.166 327.442C186.174 327.869 186.295 328.287 186.516 328.653C186.737 329.02 187.05 329.322 187.424 329.529Z" fill="#E6E6E6"/>
<path d="M348.302 373.216C343.744 375.095 338.677 376.983 333.101 378.878C304.26 388.68 265.297 397.482 223.39 403.665C181.483 409.848 141.637 412.672 111.195 411.617C96.3652 411.103 84.5653 409.694 76.1232 407.428C67.1854 405.031 62.3451 401.724 61.7368 397.601C60.552 389.57 75.9869 381.343 89.1439 375.856L89.585 376.913C71.5169 384.448 62.0295 391.736 62.8703 397.434C63.9408 404.692 81.5689 409.443 111.234 410.472C141.61 411.525 181.382 408.705 223.223 402.532C265.064 396.359 303.955 387.573 332.733 377.793C360.837 368.243 376.342 358.602 375.271 351.345C374.382 345.319 362.076 340.976 340.62 339.115L340.72 337.974C356.31 339.326 375.156 342.715 376.405 351.178C377.013 355.3 373.333 359.864 365.469 364.74C360.986 367.52 355.24 370.356 348.302 373.216Z" fill="#665DF5"/>
</svg>
