<svg width="333" height="597" viewBox="0 0 333 597" fill="none" xmlns="http://www.w3.org/2000/svg">
<path d="M115.123 230.246C178.704 230.246 230.246 178.703 230.246 115.123C230.246 51.5423 178.704 0 115.123 0C51.5423 0 0 51.5423 0 115.123C0 178.703 51.5423 230.246 115.123 230.246Z" fill="#E6E6E6"/>
<path d="M110.043 48.9225C111.014 48.9225 111.5 49.4085 112.471 49.8945C106.644 52.3244 100.817 58.642 97.904 72.2493L87.2214 75.1651C90.6204 65.4457 97.4184 48.9225 110.043 48.9225ZM115.384 53.7823C116.356 56.6981 117.327 60.1 117.327 65.4457C117.327 65.9316 117.327 65.9316 117.327 66.4176L103.245 70.3054C106.159 60.0999 111.014 55.7262 115.384 53.7823ZM128.009 62.5298L121.697 64.4737C121.697 63.9877 121.697 63.5018 121.697 63.0158C121.697 58.642 121.211 55.2402 120.24 52.3244C123.639 53.2963 126.553 57.6701 128.009 62.5298ZM159.571 70.3054C159.571 69.8194 159.086 69.3335 158.6 69.3335C157.629 69.3335 147.432 68.3615 147.432 68.3615C147.432 68.3615 140.148 61.0719 139.177 60.5859C138.206 59.614 136.75 60.0999 136.264 60.0999C136.264 60.0999 134.807 60.5859 132.379 61.5579C129.952 54.7542 125.581 48.4366 118.298 48.4366H117.812C115.87 45.5207 112.957 44.5488 110.529 44.5488C93.0483 44.0628 84.7936 65.9316 81.8802 77.109C77.9956 78.081 74.1111 79.5389 69.7409 80.9968C65.8564 81.9688 65.8564 82.4548 65.3708 85.8566C64.8852 88.2865 55.1739 165.07 55.1739 165.07L132.379 179.65L174.138 170.416C174.138 170.416 159.571 71.2774 159.571 70.3054Z" fill="#8DB849"/>
<path d="M158.114 69.3317C157.629 69.3317 147.432 68.3615 147.432 68.3615C147.432 68.3615 140.148 61.0719 139.177 60.5859C138.692 60.0999 138.692 60.0982 138.206 60.0982L132.379 179.65L174.138 170.416C174.138 170.416 159.571 71.2774 159.571 70.3054C159.571 69.8194 158.6 69.3317 158.114 69.3317Z" fill="#5A863E"/>
<path d="M118.297 92.6636L112.956 108.215C112.956 108.215 108.586 105.785 102.759 105.785C94.5046 105.785 94.019 110.645 94.019 112.103C94.019 118.906 112.471 121.822 112.471 138.345C112.471 151.467 104.216 159.728 93.0479 159.728C79.9375 159.728 73.1395 151.467 73.1395 151.467L76.5385 139.803C76.5385 139.803 83.3365 145.635 89.1633 145.635C93.0479 145.635 94.5046 142.719 94.5046 140.289C94.5046 131.056 79.4519 130.57 79.4519 115.504C79.4519 102.869 88.6777 90.7197 106.644 90.7197C114.898 90.2338 118.297 92.6636 118.297 92.6636Z" fill="#FFFFFE"/>
<path d="M183.604 188.76C183.604 184.934 185.126 181.189 187.987 178.402L228.325 139.108C229.378 135.103 231.389 131.357 234.146 128.269C237.478 124.436 241.567 121.656 245.66 120.442C249.824 119.205 253.504 119.73 256.022 121.919C261.16 126.384 259.704 136.502 252.778 144.47C250.109 147.628 246.682 150.141 242.864 151.74L206.247 189.486L226.405 220.034C230.309 224.586 231.174 230.887 228.63 236.432C226.174 241.789 221.037 245.127 215.223 245.141C209.005 245.157 203.5 241.435 201.196 235.66L184.64 194.141C183.943 192.391 183.604 190.566 183.604 188.76Z" fill="#FFB6B6"/>
<path d="M263.827 552.45L263.616 552.232L204.317 490.621C198.577 484.658 195.798 476.519 196.693 468.29L199.786 439.823L229.818 445.284L230.967 463.23L281.409 545.048L263.827 552.45Z" fill="#FFB6B6"/>
<path d="M271.033 596.887C270.077 596.887 269.131 596.644 268.269 596.165C266.181 595.005 265.029 592.639 265.401 590.28L267.462 577.227L256.818 554.164L259.625 545.743L275.697 544.85L281.054 539.494L287.053 540.538C290.642 541.161 293.63 543.39 295.25 546.653C296.87 549.915 296.841 553.642 295.171 556.879L276.119 593.791C275.404 595.177 274.188 596.189 272.695 596.639C272.147 596.805 271.588 596.887 271.033 596.887Z" fill="#2F2E41"/>
<path d="M240.911 380.126L229.399 452.742L173.608 479.308L164.753 408.464L240.911 380.126Z" fill="#2F2E41"/>
<path d="M208.923 531.197L149.412 469.368C143.672 463.405 140.894 455.265 141.788 447.037L144.881 418.57L174.913 424.03L176.062 441.977L226.504 523.794L208.923 531.197Z" fill="#FFB6B6"/>
<path d="M216.128 575.634C215.172 575.634 214.227 575.39 213.364 574.912C211.277 573.751 210.124 571.386 210.496 569.027L212.558 555.973L201.913 532.911L204.721 524.489L220.792 523.597L226.149 518.24L232.148 519.284C235.737 519.908 238.725 522.137 240.345 525.399C241.965 528.662 241.937 532.388 240.266 535.625L221.214 572.538C220.499 573.923 219.283 574.935 217.79 575.386C217.242 575.552 216.683 575.634 216.128 575.634Z" fill="#2F2E41"/>
<path d="M177.45 355.8L171.218 372.751L143.233 418.457C142.411 419.799 142.278 421.405 142.87 422.864C143.461 424.322 144.675 425.383 146.198 425.774L207.961 441.611L236.553 401.46C244.709 390.005 248.929 375.985 248.453 361.936L177.45 355.8Z" fill="#2F2E41"/>
<path d="M241.195 373.041H170.321L179.309 264.103C180.482 249.888 187.833 237.012 199.476 228.776L199.599 228.69L248.044 230.484L237.526 328.239L251.513 356.396C253.298 359.993 253.102 364.178 250.986 367.59C248.871 371.004 245.21 373.041 241.195 373.041Z" fill="#E6E6E6"/>
<path d="M234.048 206.418L210.319 224.507L240.423 245.184L255.53 212.802L234.048 206.418Z" fill="#FFB6B6"/>
<path d="M265.103 199.264C244.615 198.403 258.478 207.641 220.368 206.73C219.038 206.698 208.785 224.65 208.781 225.981C208.768 231.119 216.413 231.151 221.18 229.397C205.473 241.804 247.222 243.246 240.778 262.197C237.579 271.606 232.135 280.062 227.807 289.009C213.185 319.232 146.316 358.569 170.615 409.867C193.132 430.23 189.276 446.087 181.795 461.3C175.145 474.823 185.361 490.525 200.419 489.904C211.165 489.461 237.383 520.138 256.936 520.077C284.859 519.991 296.852 490.794 323.586 498.856C361.531 444.104 260.56 452.405 264.388 396.521C265.036 387.061 281.056 343.955 278.192 334.916C270.394 310.312 296.824 269.786 295.197 252.877C293.554 235.806 296.331 227.424 277.32 211.424C279.28 208.635 281.24 205.846 283.2 203.057C276.228 198.617 267.046 197.863 259.443 201.108" fill="#665DF5"/>
<path d="M246.991 221.981C260.865 221.981 272.112 210.734 272.112 196.86C272.112 182.986 260.865 171.739 246.991 171.739C233.117 171.739 221.87 182.986 221.87 196.86C221.87 210.734 233.117 221.981 246.991 221.981Z" fill="#FFB6B6"/>
<path d="M248.945 225.01C248.945 225.01 254.605 206.889 250.947 203.464C247.29 200.039 247.406 203.581 247.406 203.581L252.045 186.119C252.045 186.119 249.835 175.973 235.191 174.577C235.191 174.577 240.393 164.709 247.954 166.337C255.515 167.966 255.993 169.827 259.205 169.2C262.417 168.573 269.074 174.402 269.074 174.402C269.074 174.402 272.483 171.619 272.097 175.053C271.711 178.486 275.334 184.098 275.334 184.098C275.334 184.098 277.396 182.811 276.829 186.413C276.261 190.015 278.93 191.908 278.93 191.908C278.93 191.908 275.396 194.189 276.53 195.989C277.663 197.789 282.194 199.204 280.481 201.033C278.769 202.862 280.055 207.095 274.258 211.561C268.461 216.027 248.945 225.01 248.945 225.01Z" fill="#2F2E41"/>
<path d="M221.813 250.509C217.768 250.51 213.823 248.868 210.908 245.789L180.18 213.329C176.139 209.06 175.077 202.835 177.474 197.468L200.433 146.046C199.929 141.937 200.415 137.713 201.837 133.824C203.516 129.032 206.288 124.937 209.641 122.296C213.055 119.607 216.667 118.734 219.816 119.839C226.24 122.089 228.627 132.028 225.136 141.993C223.823 145.911 221.567 149.514 218.611 152.412L198.536 201.018L228.558 221.955C233.866 224.74 236.999 230.274 236.685 236.368C236.383 242.255 232.842 247.254 227.446 249.416C225.61 250.152 223.7 250.509 221.813 250.509Z" fill="#FFB6B6"/>
</svg>
