<svg width="172" height="308" viewBox="0 0 172 308" fill="none" xmlns="http://www.w3.org/2000/svg">
<path d="M59.341 118.682C92.1141 118.682 118.682 92.1141 118.682 59.341C118.682 26.5678 92.1141 0 59.341 0C26.5679 0 0 26.5678 0 59.341C0 92.1141 26.5679 118.682 59.341 118.682Z" fill="#E6E6E6"/>
<path d="M56.7226 25.2175C57.2232 25.2175 57.4735 25.468 57.9741 25.7185C54.9706 26.971 51.9671 30.2275 50.4653 37.2415L44.959 38.7444C46.711 33.7345 50.215 25.2175 56.7226 25.2175ZM59.4758 27.7225C59.9764 29.2255 60.477 30.979 60.477 33.7345C60.477 33.985 60.477 33.985 60.477 34.2355L53.2185 36.2395C54.7203 30.979 57.2232 28.7245 59.4758 27.7225ZM65.9833 32.2315L62.7296 33.2335C62.7296 32.983 62.7296 32.7325 62.7296 32.482C62.7296 30.2275 62.4793 28.474 61.9787 26.971C63.7307 27.472 65.2325 29.7265 65.9833 32.2315ZM82.2522 36.2395C82.2522 35.989 82.0019 35.7385 81.7516 35.7385C81.2511 35.7385 75.995 35.2375 75.995 35.2375C75.995 35.2375 72.2406 31.48 71.74 31.2295C71.2394 30.7285 70.4886 30.979 70.2383 30.979C70.2383 30.979 69.4874 31.2295 68.236 31.7305C66.9845 28.2235 64.7319 24.967 60.9775 24.967H60.7272C59.7261 23.464 58.2243 22.963 56.9729 22.963C47.9624 22.7125 43.7075 33.985 42.2058 39.7464C40.2034 40.2474 38.2011 40.9989 35.9485 41.7504C33.9462 42.2514 33.9462 42.5019 33.6959 44.2554C33.4456 45.5079 28.4398 85.0868 28.4398 85.0868L68.236 92.6018L89.7609 87.8423C89.7609 87.8423 82.2522 36.7405 82.2522 36.2395Z" fill="#8DB849"/>
<path d="M81.5012 35.7376C81.2509 35.7376 75.995 35.2375 75.995 35.2375C75.995 35.2375 72.2406 31.48 71.74 31.2295C71.4897 30.979 71.4896 30.9781 71.2393 30.9781L68.236 92.6018L89.7609 87.8423C89.7609 87.8423 82.2522 36.7405 82.2522 36.2395C82.2522 35.989 81.7515 35.7376 81.5012 35.7376Z" fill="#5A863E"/>
<path d="M60.9773 47.7642L58.2241 55.7801C58.2241 55.7801 55.9715 54.5276 52.968 54.5276C48.7131 54.5276 48.4628 57.0326 48.4628 57.7841C48.4628 61.2911 57.9738 62.7941 57.9738 71.3111C57.9738 78.0746 53.7189 82.3331 47.9622 82.3331C41.2044 82.3331 37.7003 78.0746 37.7003 78.0746L39.4524 72.0626C39.4524 72.0626 42.9564 75.0686 45.9599 75.0686C47.9622 75.0686 48.7131 73.5656 48.7131 72.3131C48.7131 67.5536 40.9541 67.3031 40.9541 59.5376C40.9541 53.0247 45.7096 46.7622 54.9704 46.7622C59.2253 46.5117 60.9773 47.7642 60.9773 47.7642Z" fill="#FFFFFE"/>
<path d="M94.6398 97.298C94.6398 95.3254 95.4248 93.3952 96.8994 91.9585L117.692 71.704C118.234 69.6397 119.271 67.7091 120.692 66.1172C122.41 64.1415 124.518 62.7084 126.627 62.0825C128.774 61.4451 130.671 61.7157 131.969 62.8439C134.617 65.1454 133.866 70.3609 130.296 74.4683C128.92 76.0958 127.154 77.3912 125.186 78.2154L106.311 97.6719L116.702 113.418C118.715 115.764 119.16 119.012 117.849 121.871C116.583 124.632 113.935 126.352 110.939 126.36C107.733 126.368 104.896 124.449 103.708 121.473L95.1743 100.072C94.8146 99.1693 94.6398 98.2287 94.6398 97.298Z" fill="#FFB6B6"/>
<path d="M135.992 284.765L135.883 284.652L105.317 252.894C102.358 249.821 100.926 245.625 101.387 241.384L102.981 226.71L118.461 229.525L119.053 238.775L145.054 280.949L135.992 284.765Z" fill="#FFB6B6"/>
<path d="M139.706 307.67C139.213 307.67 138.726 307.544 138.281 307.298C137.205 306.7 136.611 305.481 136.803 304.264L137.865 297.536L132.379 285.648L133.826 281.307L142.11 280.847L144.871 278.086L147.963 278.624C149.813 278.946 151.354 280.095 152.189 281.776C153.024 283.458 153.009 285.379 152.148 287.047L142.328 306.074C141.959 306.788 141.332 307.31 140.563 307.542C140.28 307.628 139.992 307.67 139.706 307.67Z" fill="#2F2E41"/>
<path d="M124.179 195.939L118.245 233.369L89.4877 247.063L84.923 210.546L124.179 195.939Z" fill="#2F2E41"/>
<path d="M107.691 273.809L77.0155 241.939C74.0569 238.865 72.6247 234.67 73.0856 230.428L74.6801 215.755L90.1604 218.57L90.7524 227.82L116.753 269.994L107.691 273.809Z" fill="#FFB6B6"/>
<path d="M111.405 296.715C110.912 296.715 110.425 296.589 109.98 296.343C108.904 295.744 108.31 294.525 108.502 293.309L109.564 286.581L104.078 274.693L105.525 270.352L113.809 269.892L116.57 267.131L119.662 267.669C121.512 267.99 123.052 269.14 123.888 270.821C124.723 272.503 124.708 274.424 123.847 276.092L114.027 295.119C113.658 295.833 113.031 296.355 112.262 296.587C111.979 296.673 111.691 296.715 111.405 296.715Z" fill="#2F2E41"/>
<path d="M91.4679 183.4L88.2557 192.138L73.8305 215.697C73.4066 216.389 73.3384 217.217 73.6433 217.969C73.9482 218.72 74.5736 219.267 75.3591 219.468L107.195 227.632L121.933 206.935C126.137 201.031 128.312 193.804 128.067 186.563L91.4679 183.4Z" fill="#2F2E41"/>
<path d="M124.326 192.287H87.7934L92.4263 136.134C93.0307 128.807 96.8198 122.17 102.822 117.924L102.885 117.88L127.856 118.805L122.435 169.193L129.644 183.707C130.565 185.561 130.463 187.718 129.373 189.477C128.282 191.237 126.395 192.287 124.326 192.287Z" fill="#E6E6E6"/>
<path d="M120.642 106.4L108.41 115.724L123.928 126.382L131.715 109.691L120.642 106.4Z" fill="#FFB6B6"/>
<path d="M136.649 102.712C126.089 102.268 133.235 107.03 113.59 106.561C112.905 106.544 107.62 115.798 107.618 116.483C107.611 119.132 111.552 119.148 114.009 118.245C105.913 124.64 127.432 125.383 124.111 135.151C122.462 140.001 119.656 144.36 117.425 148.972C109.888 164.551 75.4199 184.827 87.9447 211.269C99.5515 221.765 97.5636 229.939 93.7077 237.78C90.2798 244.751 95.5457 252.845 103.307 252.525C108.847 252.297 122.361 268.109 132.44 268.078C146.833 268.033 153.015 252.983 166.795 257.139C186.354 228.917 134.308 233.195 136.281 204.39C136.615 199.514 144.873 177.294 143.396 172.635C139.377 159.953 153 139.063 152.161 130.347C151.315 121.548 152.746 117.228 142.947 108.98C143.957 107.543 144.967 106.105 145.978 104.667C142.384 102.378 137.651 101.99 133.732 103.663" fill="#665DF5"/>
<path d="M127.313 114.422C134.465 114.422 140.262 108.624 140.262 101.473C140.262 94.3217 134.465 88.5244 127.313 88.5244C120.162 88.5244 114.365 94.3217 114.365 101.473C114.365 108.624 120.162 114.422 127.313 114.422Z" fill="#FFB6B6"/>
<path d="M128.321 115.983C128.321 115.983 131.238 106.643 129.353 104.877C127.467 103.112 127.527 104.937 127.527 104.937L129.919 95.9364C129.919 95.9364 128.779 90.7065 121.231 89.9873C121.231 89.9873 123.912 84.9005 127.81 85.7398C131.707 86.5791 131.954 87.5385 133.609 87.2153C135.265 86.8921 138.696 89.8966 138.696 89.8966C138.696 89.8966 140.453 88.4626 140.254 90.2322C140.055 92.0019 141.923 94.8945 141.923 94.8945C141.923 94.8945 142.986 94.2315 142.693 96.088C142.401 97.9446 143.776 98.9205 143.776 98.9205C143.776 98.9205 141.955 100.096 142.539 101.024C143.124 101.952 145.459 102.681 144.576 103.624C143.693 104.567 144.356 106.749 141.368 109.051C138.38 111.353 128.321 115.983 128.321 115.983Z" fill="#2F2E41"/>
<path d="M114.335 129.127C112.25 129.127 110.217 128.281 108.714 126.694L92.8751 109.962C90.792 107.762 90.2446 104.553 91.4803 101.786L103.315 75.2806C103.055 73.1623 103.305 70.9852 104.039 68.9806C104.904 66.5106 106.332 64.3998 108.061 63.0384C109.821 61.6525 111.683 61.2023 113.306 61.772C116.617 62.9319 117.848 68.0547 116.048 73.1913C115.371 75.2111 114.208 77.0682 112.685 78.562L102.337 103.617L117.812 114.408C120.548 115.844 122.163 118.696 122.001 121.838C121.845 124.872 120.02 127.449 117.239 128.563C116.292 128.943 115.308 129.127 114.335 129.127Z" fill="#FFB6B6"/>
</svg>
