<svg width="333" height="756" viewBox="0 0 333 756" fill="none" xmlns="http://www.w3.org/2000/svg">
<path d="M130 260C201.797 260 260 201.797 260 130C260 58.203 201.797 0 130 0C58.203 0 0 58.203 0 130C0 201.797 58.203 260 130 260Z" fill="#E6E6E6"/>
<path d="M124.264 55.2449C125.36 55.2449 125.909 55.7936 127.005 56.3424C120.425 59.0863 113.846 66.2204 110.556 81.5861L98.4927 84.8787C102.331 73.9032 110.007 55.2449 124.264 55.2449ZM130.295 60.7326C131.392 64.0253 132.488 67.8667 132.488 73.9032C132.488 74.452 132.488 74.452 132.488 75.0008L116.587 79.391C119.877 67.8667 125.36 62.9277 130.295 60.7326ZM144.551 70.6106L137.423 72.8057C137.423 72.2569 137.423 71.7081 137.423 71.1594C137.423 66.2204 136.875 62.3789 135.778 59.0863C139.617 60.1838 142.907 65.1228 144.551 70.6106ZM180.192 79.391C180.192 78.8422 179.644 78.2934 179.096 78.2934C177.999 78.2934 166.484 77.1959 166.484 77.1959C166.484 77.1959 158.259 68.9642 157.163 68.4155C156.066 67.3179 154.421 67.8667 153.873 67.8667C153.873 67.8667 152.228 68.4155 149.486 69.513C146.745 61.8302 141.81 54.6961 133.585 54.6961H133.037C130.844 51.4034 127.554 50.3059 124.812 50.3059C105.073 49.7571 95.7511 74.452 92.4612 87.0739C88.0747 88.1714 83.6881 89.8177 78.7533 91.4641C74.3667 92.5616 74.3667 93.1104 73.8184 96.9518C73.2701 99.6957 62.3037 186.402 62.3037 186.402L149.486 202.866L196.642 192.439C196.642 192.439 180.192 80.4885 180.192 79.391Z" fill="#8DB849"/>
<path d="M178.547 78.2919C177.999 78.2919 166.484 77.1943 166.484 77.1943C166.484 77.1943 158.26 68.9627 157.163 68.4139C156.615 67.8652 156.615 67.8652 156.066 67.8652L149.486 202.864L196.642 192.437C196.642 192.437 180.192 80.487 180.192 79.3895C180.192 78.8407 179.096 78.2919 178.547 78.2919Z" fill="#5A863E"/>
<path d="M133.585 104.638L127.554 122.198C127.554 122.198 122.619 119.455 116.039 119.455C106.718 119.455 106.17 124.942 106.17 126.589C106.17 134.272 127.006 137.564 127.006 156.223C127.006 171.04 117.684 180.369 105.073 180.369C90.2683 180.369 82.5918 171.04 82.5918 171.04L86.4301 157.869C86.4301 157.869 94.1065 164.454 100.686 164.454C105.073 164.454 106.718 161.162 106.718 158.418C106.718 147.991 89.72 147.442 89.72 130.43C89.72 116.162 100.138 102.443 120.426 102.443C129.747 101.894 133.585 104.638 133.585 104.638Z" fill="#FFFFFE"/>
<path d="M164.405 294.355C164.405 290.033 166.125 285.805 169.356 282.657L214.906 238.285C216.095 233.763 218.366 229.533 221.48 226.046C225.242 221.718 229.859 218.578 234.482 217.207C239.184 215.811 243.339 216.403 246.183 218.875C251.984 223.917 250.34 235.343 242.519 244.341C239.505 247.906 235.635 250.744 231.324 252.55L189.975 295.174L212.738 329.67C217.147 334.81 218.123 341.925 215.251 348.187C212.477 354.236 206.676 358.005 200.111 358.022C193.09 358.039 186.873 353.836 184.272 347.315L165.576 300.431C164.788 298.454 164.405 296.394 164.405 294.355Z" fill="#FFB6B6"/>
<path d="M254.996 705.044L254.758 704.796L187.795 635.224C181.314 628.491 178.176 619.299 179.186 610.007L182.679 577.862L216.592 584.028L217.889 604.294L274.85 696.684L254.996 705.044Z" fill="#FFB6B6"/>
<path d="M263.133 755.223C262.053 755.223 260.986 754.948 260.012 754.408C257.655 753.097 256.353 750.426 256.773 747.762L259.101 733.022L247.081 706.979L250.251 697.469L268.4 696.461L274.449 690.413L281.223 691.591C285.276 692.295 288.65 694.813 290.48 698.497C292.309 702.181 292.277 706.389 290.39 710.044L268.876 751.727C268.069 753.292 266.696 754.434 265.01 754.943C264.391 755.13 263.76 755.223 263.133 755.223Z" fill="#2F2E41"/>
<path d="M229.118 510.45L216.118 592.45L153.118 622.45L143.118 542.45L229.118 510.45Z" fill="#2F2E41"/>
<path d="M192.996 681.044L125.795 611.224C119.314 604.491 116.176 595.299 117.186 586.007L120.679 553.862L154.592 560.028L155.889 580.294L212.85 672.684L192.996 681.044Z" fill="#FFB6B6"/>
<path d="M201.133 731.223C200.053 731.223 198.986 730.948 198.012 730.408C195.655 729.097 194.353 726.426 194.773 723.762L197.101 709.022L185.081 682.979L188.251 673.469L206.4 672.461L212.449 666.413L219.223 667.591C223.276 668.295 226.65 670.813 228.48 674.497C230.309 678.181 230.277 682.389 228.39 686.044L206.876 727.727C206.069 729.292 204.696 730.434 203.01 730.943C202.391 731.13 201.76 731.223 201.133 731.223Z" fill="#2F2E41"/>
<path d="M157.456 482.981L150.419 502.123L118.818 553.735C117.889 555.25 117.74 557.064 118.408 558.711C119.076 560.358 120.446 561.555 122.166 561.997L191.911 579.88L224.198 534.541C233.408 521.606 238.172 505.774 237.635 489.91L157.456 482.981Z" fill="#2F2E41"/>
<path d="M229.439 502.45H149.407L159.556 379.434C160.88 363.382 169.181 348.842 182.33 339.542L182.468 339.444L237.173 341.47L225.296 451.858L241.09 483.654C243.107 487.715 242.885 492.441 240.496 496.294C238.107 500.149 233.973 502.45 229.439 502.45Z" fill="#E6E6E6"/>
<path d="M221.369 314.294L194.573 334.72L228.568 358.07L245.626 321.504L221.369 314.294Z" fill="#FFB6B6"/>
<path d="M256.437 306.215C233.302 305.243 248.956 315.676 205.921 314.647C204.419 314.611 192.841 334.882 192.837 336.385C192.821 342.188 201.455 342.223 206.838 340.243C189.101 354.253 236.245 355.882 228.969 377.281C225.356 387.906 219.208 397.455 214.321 407.558C197.809 441.687 122.3 486.108 149.738 544.034C175.166 567.029 170.811 584.936 162.363 602.114C154.854 617.385 166.39 635.116 183.393 634.415C195.529 633.915 225.135 668.555 247.215 668.487C278.746 668.389 292.289 635.419 322.478 644.523C365.326 582.695 251.307 592.069 255.629 528.964C256.361 518.282 274.452 469.604 271.217 459.397C262.412 431.614 292.257 385.851 290.42 366.757C288.565 347.479 291.7 338.015 270.232 319.947C272.446 316.798 274.659 313.648 276.873 310.499C268.999 305.485 258.631 304.634 250.045 308.298" fill="#665DF5"/>
<path d="M235.985 331.868C251.651 331.868 264.352 319.168 264.352 303.501C264.352 287.834 251.651 275.134 235.985 275.134C220.318 275.134 207.618 287.834 207.618 303.501C207.618 319.168 220.318 331.868 235.985 331.868Z" fill="#FFB6B6"/>
<path d="M238.191 335.289C238.191 335.289 244.583 314.826 240.452 310.959C236.321 307.091 236.453 311.09 236.453 311.09L241.692 291.372C241.692 291.372 239.196 279.915 222.659 278.339C222.659 278.339 228.533 267.195 237.072 269.034C245.61 270.873 246.15 272.974 249.777 272.266C253.404 271.558 260.921 278.14 260.921 278.14C260.921 278.14 264.771 274.999 264.334 278.876C263.898 282.752 267.99 289.089 267.99 289.089C267.99 289.089 270.319 287.637 269.678 291.704C269.036 295.771 272.05 297.909 272.05 297.909C272.05 297.909 268.06 300.485 269.34 302.518C270.62 304.55 275.736 306.148 273.802 308.213C271.868 310.279 273.321 315.059 266.775 320.102C260.229 325.145 238.191 335.289 238.191 335.289Z" fill="#2F2E41"/>
<path d="M207.552 364.083C202.985 364.084 198.531 362.23 195.239 358.753L160.539 322.098C155.976 317.278 154.777 310.248 157.484 304.187L183.41 246.121C182.841 241.48 183.389 236.711 184.995 232.319C186.891 226.908 190.021 222.284 193.808 219.301C197.662 216.265 201.742 215.279 205.297 216.527C212.552 219.068 215.247 230.291 211.305 241.544C209.823 245.968 207.275 250.037 203.937 253.309L181.268 308.197L215.169 331.838C221.163 334.984 224.702 341.233 224.347 348.115C224.005 354.762 220.007 360.408 213.913 362.848C211.84 363.679 209.684 364.083 207.552 364.083Z" fill="#FFB6B6"/>
</svg>
