<svg width="40" height="40" viewBox="0 0 40 40" fill="none" xmlns="http://www.w3.org/2000/svg">
<path d="M22.1146 6.11463C22.6147 5.6147 23.2928 5.33386 23.9999 5.33386C24.707 5.33386 25.3852 5.6147 25.8853 6.11463L37.8853 18.1146C38.3852 18.6147 38.666 19.2929 38.666 20C38.666 20.7071 38.3852 21.3852 37.8853 21.8853L25.8853 33.8853C25.3823 34.371 24.7087 34.6398 24.0095 34.6338C23.3103 34.6277 22.6415 34.3472 22.1471 33.8528C21.6526 33.3584 21.3722 32.6896 21.3661 31.9904C21.36 31.2912 21.6288 30.6176 22.1146 30.1146L29.3333 22.6666H3.99992C3.29267 22.6666 2.6144 22.3857 2.1143 21.8856C1.6142 21.3855 1.33325 20.7072 1.33325 20C1.33325 19.2927 1.6142 18.6144 2.1143 18.1143C2.6144 17.6142 3.29267 17.3333 3.99992 17.3333H29.3333L22.1146 9.88529C21.6147 9.38522 21.3338 8.70706 21.3338 7.99996C21.3338 7.29285 21.6147 6.6147 22.1146 6.11463Z" fill="#665DF5"/>
</svg>
