<svg width="40" height="40" viewBox="0 0 40 40" fill="none" xmlns="http://www.w3.org/2000/svg">
<path d="M17.8854 33.8853C17.3853 34.3852 16.7072 34.666 16.0001 34.666C15.293 34.666 14.6148 34.3852 14.1147 33.8853L2.11475 21.8853C1.61482 21.3852 1.33398 20.707 1.33398 19.9999C1.33398 19.2928 1.61482 18.6147 2.11475 18.1146L14.1147 6.11459C14.6177 5.62883 15.2913 5.36005 15.9905 5.36612C16.6897 5.3722 17.3585 5.65265 17.8529 6.14707C18.3474 6.64149 18.6278 7.31032 18.6339 8.00952C18.64 8.70871 18.3712 9.38231 17.8854 9.88525L10.6667 17.3333H36.0001C36.7073 17.3333 37.3856 17.6142 37.8857 18.1143C38.3858 18.6144 38.6667 19.2927 38.6667 19.9999C38.6667 20.7072 38.3858 21.3854 37.8857 21.8855C37.3856 22.3856 36.7073 22.6666 36.0001 22.6666H10.6667L17.8854 30.1146C18.3853 30.6147 18.6662 31.2928 18.6662 31.9999C18.6662 32.707 18.3853 33.3852 17.8854 33.8853Z" fill="#665DF5"/>
</svg>
