<svg width="12" height="12" viewBox="0 0 12 12" fill="none" xmlns="http://www.w3.org/2000/svg">
<path d="M4.00956 3.77606L3.65606 3.42256M5.49006 10.0971L1.84106 6.44806C1.65606 6.26306 1.55106 6.01306 1.54756 5.75206L1.50006 2.00756C1.49905 1.94063 1.51148 1.87418 1.53663 1.81215C1.56177 1.75012 1.59912 1.69378 1.64645 1.64645C1.69378 1.59912 1.75012 1.56177 1.81215 1.53663C1.87418 1.51148 1.94063 1.49905 2.00756 1.50006L5.75206 1.54756C6.01351 1.55064 6.26335 1.656 6.44806 1.84106L10.0971 5.49006C10.4341 5.82656 10.6931 6.46956 10.3091 6.85356L6.85406 10.3086C6.46956 10.6931 5.82656 10.4336 5.49006 10.0971Z" stroke="black" stroke-width="1.5" stroke-linecap="round" stroke-linejoin="round"/>
</svg>
