<svg width="32" height="20" viewBox="0 0 32 20" fill="none" xmlns="http://www.w3.org/2000/svg">
<g clip-path="url(#clip0_2447_837)">
<path d="M0.00134277 0.0693359H31.9988V19.9303H0.00134277V0.0693359Z" fill="white"/>
<path d="M0.00134277 0.0693359H31.9988V1.59713H0.00134277V0.0693359ZM0.00134277 3.12493H31.9988V4.65273H0.00134277V3.12493ZM0.00134277 6.1804H31.9988V7.7082H0.00134277V6.1804ZM0.00134277 9.236H31.9988V10.7638H0.00134277V9.236ZM0.00134277 12.2915H31.9988V13.8193H0.00134277V12.2915ZM0.00134277 15.3471H31.9988V16.8749H0.00134277V15.3471ZM0.00134277 18.4025H31.9988V19.9303H0.00134277V18.4025Z" fill="#B22234"/>
<path d="M0.00134277 0.0693359H12.8003V10.7637H0.00134277V0.0693359Z" fill="#3C3B6E"/>
<path d="M0.602661 0.937534L0.907597 1.19879L0.791126 1.62156L1.09595 1.3603L1.40089 1.62156L1.28442 1.19879L1.58925 0.937534H1.21243L1.09595 0.514893L0.979484 0.937534H0.602661ZM2.72462 0.937534L3.02945 1.19879L2.91298 1.62156L3.21792 1.3603L3.52285 1.62156L3.40638 1.19879L3.71121 0.937534H3.33439L3.21792 0.514893L3.10145 0.937534H2.72462ZM4.84659 0.937534L5.15141 1.19879L5.03494 1.62156L5.33988 1.3603L5.64471 1.62156L5.52824 1.19879L5.83317 0.937534H5.45635L5.33988 0.514893L5.22341 0.937534H4.84659ZM6.96855 0.937534L7.27338 1.19879L7.15691 1.62156L7.46184 1.3603L7.76667 1.62156L7.6502 1.19879L7.95514 0.937534H7.57821L7.46184 0.514893L7.34537 0.937534H6.96855ZM9.0904 0.937534L9.39534 1.19879L9.27887 1.62156L9.5837 1.3603L9.88863 1.62156L9.77216 1.19879L10.077 0.937534H9.70017L9.5837 0.514893L9.46723 0.937534H9.0904ZM11.2124 0.937534L11.5172 1.19879L11.4007 1.62156L11.7057 1.3603L12.0105 1.62156L11.894 1.19879L12.199 0.937534H11.8221L11.7057 0.514893L11.5892 0.937534H11.2124ZM1.66359 2.01011L1.96852 2.27137L1.85205 2.69401L2.15699 2.43275L2.46182 2.69401L2.34535 2.27137L2.65028 2.01011H2.27335L2.15699 1.58735L2.04052 2.01011H1.66359ZM3.78555 2.01011L4.09049 2.27137L3.97402 2.69401L4.27884 2.43275L4.58378 2.69401L4.46731 2.27137L4.77214 2.01011H4.39532L4.27884 1.58735L4.16237 2.01011H3.78555ZM5.90751 2.01011L6.21245 2.27137L6.09598 2.69401L6.40081 2.43275L6.70574 2.69401L6.58927 2.27137L6.8941 2.01011H6.51728L6.40081 1.58735L6.28434 2.01011H5.90751ZM8.02948 2.01011L8.3343 2.27137L8.21783 2.69401L8.52277 2.43275L8.8276 2.69401L8.71113 2.27137L9.01606 2.01011H8.63924L8.52277 1.58735L8.4063 2.01011H8.02948ZM10.1513 2.01011L10.4563 2.27137L10.3398 2.69401L10.6446 2.43275L10.9496 2.69401L10.8331 2.27137L11.1379 2.01011H10.7611L10.6446 1.58735L10.5283 2.01011H10.1513ZM0.602661 3.08257L0.907597 3.34382L0.791126 3.76659L1.09595 3.50533L1.40089 3.76659L1.28442 3.34382L1.58925 3.08257H1.21243L1.09595 2.65992L0.979484 3.08257H0.602661ZM2.72462 3.08257L3.02945 3.34382L2.91298 3.76659L3.21792 3.50533L3.52285 3.76659L3.40638 3.34382L3.71121 3.08257H3.33439L3.21792 2.65992L3.10145 3.08257H2.72462ZM4.84659 3.08257L5.15141 3.34382L5.03494 3.76659L5.33988 3.50533L5.64471 3.76659L5.52824 3.34382L5.83317 3.08257H5.45635L5.33988 2.65992L5.22341 3.08257H4.84659ZM6.96855 3.08257L7.27338 3.34382L7.15691 3.76659L7.46184 3.50533L7.76667 3.76659L7.6502 3.34382L7.95514 3.08257H7.57821L7.46184 2.65992L7.34537 3.08257H6.96855ZM9.0904 3.08257L9.39534 3.34382L9.27887 3.76659L9.5837 3.50533L9.88863 3.76659L9.77216 3.34382L10.077 3.08257H9.70017L9.5837 2.65992L9.46723 3.08257H9.0904ZM11.2124 3.08257L11.5172 3.34382L11.4007 3.76659L11.7057 3.50533L12.0105 3.76659L11.894 3.34382L12.199 3.08257H11.8221L11.7057 2.65992L11.5892 3.08257H11.2124ZM1.68983 4.15867L1.99466 4.41992L1.87829 4.84257L2.18312 4.58131L2.48806 4.84257L2.37159 4.4198L2.67641 4.15867H2.29959L2.18312 3.7359L2.06665 4.15867H1.68983ZM3.81179 4.15867L4.11662 4.41992L4.00015 4.84257L4.30508 4.58131L4.60991 4.84257L4.49344 4.4198L4.79838 4.15867H4.42155L4.30508 3.7359L4.18861 4.15867H3.81179ZM5.93375 4.15867L6.23858 4.41992L6.12211 4.84257L6.42704 4.58131L6.73187 4.84257L6.6154 4.4198L6.92034 4.15867H6.54341L6.42704 3.7359L6.31057 4.15867H5.93375ZM8.05561 4.15867L8.36054 4.41992L8.24407 4.84257L8.5489 4.58131L8.85384 4.84257L8.73737 4.4198L9.04219 4.15867H8.66537L8.5489 3.7359L8.43243 4.15867H8.05561ZM10.1776 4.15867L10.4824 4.41992L10.3659 4.84257L10.6709 4.58131L10.9757 4.84257L10.8592 4.4198L11.1642 4.15867H10.7873L10.6709 3.7359L10.5544 4.15867H10.1776ZM0.634872 5.22219L0.939807 5.48332L0.823337 5.90609L1.12817 5.64483L1.4331 5.90609L1.31663 5.48332L1.62146 5.22219H1.24464L1.12817 4.79942L1.01169 5.22219H0.634872ZM2.75683 5.22219L3.06166 5.48332L2.94519 5.90609L3.25013 5.64483L3.55496 5.90609L3.43859 5.48332L3.74342 5.22219H3.3666L3.25013 4.79942L3.13366 5.22219H2.75683ZM4.8788 5.22219L5.18363 5.48332L5.06715 5.90609L5.37209 5.64483L5.67692 5.90609L5.56045 5.48332L5.86538 5.22219H5.48856L5.37209 4.79942L5.25562 5.22219H4.8788ZM7.00065 5.22219L7.30559 5.48332L7.18912 5.90609L7.49395 5.64483L7.79888 5.90609L7.68241 5.48332L7.98735 5.22219H7.61042L7.49395 4.79942L7.37758 5.22219H7.00065ZM9.12261 5.22219L9.42744 5.48332L9.31108 5.90609L9.61591 5.64483L9.92084 5.90609L9.80437 5.48332L10.1092 5.22219H9.73238L9.61591 4.79942L9.49944 5.22219H9.12261ZM11.2446 5.22219L11.5494 5.48332L11.4329 5.90609L11.7379 5.64483L12.0427 5.90609L11.9262 5.48332L12.2312 5.22219H11.8543L11.7379 4.79942L11.6214 5.22219H11.2446ZM0.654817 7.33313L0.959646 7.59439L0.843175 8.01716L1.14811 7.7559L1.45294 8.01716L1.33647 7.59439L1.6414 7.33313H1.26458L1.14811 6.91049L1.03164 7.33313H0.654817ZM2.77667 7.33313L3.08161 7.59439L2.96514 8.01716L3.26997 7.7559L3.5749 8.01716L3.45843 7.59439L3.76326 7.33313H3.38644L3.26997 6.91049L3.1535 7.33313H2.77667ZM4.89863 7.33313L5.20346 7.59439L5.0871 8.01716L5.39193 7.7559L5.69686 8.01716L5.58039 7.59439L5.88522 7.33313H5.5084L5.39193 6.91049L5.27546 7.33313H4.89863ZM7.0206 7.33313L7.32543 7.59439L7.20896 8.01716L7.51389 7.7559L7.81872 8.01716L7.70236 7.59439L8.00718 7.33313H7.63036L7.51389 6.91049L7.39742 7.33313H7.0206ZM9.14245 7.33313L9.44739 7.59439L9.33092 8.01716L9.63575 7.7559L9.94068 8.01716L9.82421 7.59439L10.1291 7.33313H9.75222L9.63575 6.91049L9.51938 7.33313H9.14245ZM11.2644 7.33313L11.5692 7.59439L11.4529 8.01716L11.7577 7.7559L12.0626 8.01716L11.9462 7.59439L12.251 7.33313H11.8742L11.7577 6.91049L11.6412 7.33313H11.2644ZM0.628899 9.46898L0.933728 9.73024L0.817257 10.153L1.12219 9.89175L1.42702 10.153L1.31055 9.73024L1.61549 9.46898H1.23856L1.12219 9.04634L1.00572 9.46898H0.628899ZM2.75075 9.46898L3.05569 9.73024L2.93922 10.153L3.24405 9.89175L3.54898 10.153L3.43251 9.73024L3.73734 9.46898H3.36052L3.24405 9.04634L3.12758 9.46898H2.75075ZM4.87272 9.46898L5.17755 9.73024L5.06118 10.153L5.36601 9.89175L5.67095 10.153L5.55448 9.73024L5.8593 9.46898H5.48248L5.36601 9.04634L5.24954 9.46898H4.87272ZM6.99468 9.46898L7.29951 9.73024L7.18304 10.153L7.48797 9.89175L7.7928 10.153L7.67644 9.73024L7.98127 9.46898H7.60444L7.48797 9.04634L7.3715 9.46898H6.99468ZM9.11653 9.46898L9.42147 9.73024L9.305 10.153L9.60983 9.89175L9.91476 10.153L9.79829 9.73024L10.1032 9.46898H9.7263L9.60983 9.04634L9.49346 9.46898H9.11653ZM11.2385 9.46898L11.5433 9.73024L11.427 10.153L11.7318 9.89175L12.0367 10.153L11.9203 9.73024L12.2251 9.46898H11.8483L11.7318 9.04634L11.6153 9.46898H11.2385ZM1.69612 6.26709L2.00095 6.52835L1.88458 6.95099L2.18941 6.68974L2.49435 6.95099L2.37788 6.52835L2.68271 6.26709H2.30588L2.18941 5.84433L2.07294 6.26709H1.69612ZM3.81808 6.26709L4.12291 6.52835L4.00644 6.95099L4.31138 6.68974L4.6162 6.95099L4.49984 6.52835L4.80467 6.26709H4.42785L4.31138 5.84433L4.19491 6.26709H3.81808ZM5.94004 6.26709L6.24487 6.52835L6.1284 6.95099L6.43334 6.68974L6.73817 6.95099L6.6217 6.52835L6.92663 6.26709H6.54981L6.43334 5.84433L6.31687 6.26709H5.94004ZM8.0619 6.26709L8.36684 6.52835L8.25037 6.95099L8.55519 6.68974L8.86013 6.95099L8.74366 6.52835L9.04849 6.26709H8.67166L8.55519 5.84433L8.43872 6.26709H8.0619ZM10.1839 6.26709L10.4887 6.52835L10.3722 6.95099L10.6772 6.68974L10.982 6.95099L10.8656 6.52835L11.1704 6.26709H10.7936L10.6772 5.84433L10.5607 6.26709H10.1839ZM1.68983 8.39955L1.99476 8.6608L1.87829 9.08357L2.18312 8.82231L2.48806 9.08357L2.37159 8.6608L2.67641 8.39955H2.29959L2.18312 7.97691L2.06665 8.39955H1.68983ZM3.81179 8.39955L4.11662 8.6608L4.00015 9.08357L4.30508 8.82231L4.61002 9.08357L4.49355 8.6608L4.79838 8.39955H4.42155L4.30508 7.97691L4.18861 8.39955H3.81179ZM5.93375 8.39955L6.23858 8.6608L6.12211 9.08357L6.42704 8.82231L6.73187 9.08357L6.6154 8.6608L6.92034 8.39955H6.54352L6.42704 7.97691L6.31057 8.39955H5.93375ZM8.05561 8.39955L8.36054 8.6608L8.24407 9.08357L8.5489 8.82231L8.85384 9.08357L8.73737 8.6608L9.04219 8.39955H8.66537L8.5489 7.97691L8.43243 8.39955H8.05561ZM10.1776 8.39955L10.4824 8.6608L10.3659 9.08357L10.6709 8.82231L10.9757 9.08357L10.8593 8.6608L11.1642 8.39955H10.7873L10.6709 7.97691L10.5544 8.39955H10.1776Z" fill="white"/>
</g>
<defs>
<clipPath id="clip0_2447_837">
<rect width="32" height="20" fill="white"/>
</clipPath>
</defs>
</svg>
