<svg width="24" height="27" viewBox="0 0 24 27" fill="none" xmlns="http://www.w3.org/2000/svg">
<path d="M9.78492 9.78543C10.9188 8.65159 12.4452 7.99697 14.0482 7.95695C15.6512 7.91693 17.2083 8.49458 18.3974 9.57043L18.6237 9.78543L22.1587 13.3217C23.31 14.475 23.9653 16.0324 23.9849 17.6619C24.0045 19.2914 23.3869 20.8641 22.2637 22.0449C21.1405 23.2256 19.6006 23.9209 17.9722 23.9827C16.3437 24.0444 14.7555 23.4677 13.5462 22.3754L13.3212 22.1604L10.6687 19.5079C10.4445 19.283 10.3143 18.9811 10.3046 18.6637C10.2949 18.3463 10.4064 18.037 10.6165 17.7988C10.8265 17.5606 11.1194 17.4113 11.4355 17.3812C11.7517 17.3511 12.0674 17.4424 12.3187 17.6367L12.4362 17.7404L15.0887 20.3929C15.7763 21.0845 16.7062 21.4811 17.6813 21.4984C18.6564 21.5157 19.5999 21.1525 20.3116 20.4858C21.0234 19.8191 21.4474 18.9014 21.4938 17.9272C21.5401 16.9531 21.2052 15.9992 20.5599 15.2679L20.3912 15.0892L16.8562 11.5542C16.5079 11.2059 16.0945 10.9296 15.6395 10.7411C15.1845 10.5526 14.6968 10.4556 14.2043 10.4556C13.7118 10.4556 13.2241 10.5526 12.7691 10.7411C12.3141 10.9296 11.9006 11.2059 11.5524 11.5542C11.3179 11.7886 10.9998 11.9202 10.6682 11.9201C10.3366 11.9199 10.0187 11.7881 9.78429 11.5536C9.5499 11.319 9.41829 11.0009 9.41841 10.6694C9.41853 10.3378 9.55036 10.0198 9.78492 9.78543ZM1.82992 1.83043C2.96383 0.696596 4.49016 0.0419664 6.0932 0.00194859C7.69624 -0.0380692 9.25334 0.539586 10.4424 1.61543L10.6687 1.83043L13.3199 4.48418C13.5441 4.70913 13.6743 5.01097 13.6839 5.32841C13.6936 5.64585 13.5821 5.95507 13.3721 6.19328C13.1621 6.43148 12.8692 6.58081 12.5531 6.61093C12.2369 6.64104 11.9212 6.54969 11.6699 6.35543L11.5524 6.25168L8.90116 3.60043C8.21238 2.91613 7.28503 2.52565 6.31421 2.51115C5.34339 2.49664 4.40479 2.85924 3.69587 3.52266C2.98695 4.18608 2.56297 5.0986 2.51313 6.06825C2.4633 7.0379 2.79149 7.98908 3.42867 8.72168L3.59742 8.90168L7.13367 12.4379C7.83689 13.1409 8.79055 13.5359 9.78492 13.5359C10.7793 13.5359 11.7329 13.1409 12.4362 12.4379C12.5522 12.3218 12.69 12.2296 12.8417 12.1668C12.9933 12.1039 13.1559 12.0715 13.3201 12.0714C13.4843 12.0714 13.6469 12.1036 13.7986 12.1664C13.9503 12.2292 14.0882 12.3212 14.2043 12.4373C14.3204 12.5534 14.4126 12.6912 14.4755 12.8428C14.5383 12.9945 14.5707 13.157 14.5708 13.3212C14.5709 13.4854 14.5386 13.648 14.4758 13.7997C14.413 13.9514 14.321 14.0893 14.2049 14.2054C13.071 15.3393 11.5447 15.9939 9.94163 16.0339C8.33859 16.0739 6.78149 15.4963 5.59242 14.4204L5.36492 14.2054L1.82992 10.6692C0.658221 9.49713 0 7.9077 0 6.25043C0 4.59315 0.658221 3.00248 1.82992 1.83043Z" fill="#FDFDFD"/>
</svg>
